%FSDAX44Y44*%
%MOMM*%
%SFA1B1*%

%IPPOS*%
%ADD15C,0.050800*%
%ADD16C,0.067700*%
%LNcoenv_pcb-1*%
%LPD*%
G54D15*
X00286258Y00060747D02*
Y00064811D01*
X00290322*
Y00060747*
X00286258*
Y00110447D02*
Y00114511D01*
X00290322*
Y00110447*
X00286258*
X00419608Y00109728D02*
Y00113792D01*
X00423672*
Y00109728*
X00419608*
X00318008D02*
Y00113792D01*
X00322072*
Y00109728*
X00318008*
X00452628Y00034798D02*
Y00038862D01*
X00456692*
Y00034798*
X00452628*
Y00060198D02*
Y00064262D01*
X00456692*
Y00060198*
X00452628*
X00342138Y00019558D02*
Y00023622D01*
X00346202*
Y00019558*
X00342138*
Y00044958D02*
Y00049022D01*
X00346202*
Y00044958*
X00342138*
X00230378Y00034798D02*
Y00038862D01*
X00234442*
Y00034798*
X00230378*
Y00060198D02*
Y00064262D01*
X00234442*
Y00060198*
X00230378*
X00164338Y00107188D02*
Y00111252D01*
X00168402*
Y00107188*
X00164338*
Y00081788D02*
Y00085852D01*
X00168402*
Y00081788*
X00164338*
X00546608Y00530098D02*
Y00534162D01*
X00550672*
Y00530098*
X00546608*
Y00555498D02*
Y00559562D01*
X00550672*
Y00555498*
X00546608*
Y00580898D02*
Y00584962D01*
X00550672*
Y00580898*
X00546608*
Y00606298D02*
Y00610362D01*
X00550672*
Y00606298*
X00546608*
G54D16*
X00036322Y00157480D02*
D01*
X00036316Y00157621*
X00036302Y00157762*
X00036277Y00157902*
X00036243Y00158040*
X00036199Y00158174*
X00036146Y00158306*
X00036084Y00158433*
X00036013Y00158556*
X00035933Y00158674*
X00035846Y00158786*
X00035751Y00158891*
X00035649Y00158990*
X00035540Y00159081*
X00035426Y00159164*
X00035306Y00159239*
X00035180Y00159306*
X00035050Y00159363*
X00034917Y00159412*
X00034781Y00159451*
X00034642Y00159481*
X00034502Y00159500*
X00034360Y00159510*
X00034218*
X00034077Y00159500*
X00033936Y00159481*
X00033798Y00159451*
X00033661Y00159412*
X00033528Y00159363*
X00033399Y00159306*
X00033274Y00159239*
X00033153Y00159164*
X00033038Y00159081*
X00032930Y00158990*
X00032828Y00158891*
X00032733Y00158786*
X00032645Y00158674*
X00032566Y00158556*
X00032495Y00158433*
X00032433Y00158306*
X00032380Y00158174*
X00032336Y00158040*
X00032302Y00157902*
X00032277Y00157762*
X00032262Y00157621*
X00032258Y00157480*
X00032262Y00157338*
X00032277Y00157197*
X00032302Y00157057*
X00032336Y00156919*
X00032380Y00156784*
X00032433Y00156653*
X00032495Y00156525*
X00032566Y00156403*
X00032645Y00156285*
X00032733Y00156173*
X00032828Y00156068*
X00032930Y00155969*
X00033038Y00155878*
X00033153Y00155795*
X00033274Y00155720*
X00033399Y00155653*
X00033528Y00155595*
X00033661Y00155547*
X00033798Y00155508*
X00033936Y00155478*
X00034077Y00155458*
X00034218Y00155449*
X00034360*
X00034502Y00155458*
X00034642Y00155478*
X00034781Y00155508*
X00034917Y00155547*
X00035050Y00155595*
X00035180Y00155653*
X00035306Y00155720*
X00035426Y00155795*
X00035540Y00155878*
X00035649Y00155969*
X00035751Y00156068*
X00035846Y00156173*
X00035933Y00156285*
X00036013Y00156403*
X00036084Y00156525*
X00036146Y00156653*
X00036199Y00156784*
X00036243Y00156919*
X00036277Y00157057*
X00036302Y00157197*
X00036316Y00157338*
X00036322Y00157480*
X00061722D02*
D01*
X00061716Y00157621*
X00061702Y00157762*
X00061677Y00157902*
X00061643Y00158040*
X00061599Y00158174*
X00061546Y00158306*
X00061484Y00158433*
X00061413Y00158556*
X00061333Y00158674*
X00061246Y00158786*
X00061151Y00158891*
X00061049Y00158990*
X00060940Y00159081*
X00060826Y00159164*
X00060706Y00159239*
X00060580Y00159306*
X00060450Y00159363*
X00060317Y00159412*
X00060181Y00159451*
X00060042Y00159481*
X00059902Y00159500*
X00059760Y00159510*
X00059618*
X00059477Y00159500*
X00059336Y00159481*
X00059198Y00159451*
X00059061Y00159412*
X00058928Y00159363*
X00058799Y00159306*
X00058674Y00159239*
X00058553Y00159164*
X00058438Y00159081*
X00058330Y00158990*
X00058228Y00158891*
X00058133Y00158786*
X00058045Y00158674*
X00057966Y00158556*
X00057895Y00158433*
X00057833Y00158306*
X00057780Y00158174*
X00057736Y00158040*
X00057702Y00157902*
X00057677Y00157762*
X00057662Y00157621*
X00057658Y00157480*
X00057662Y00157338*
X00057677Y00157197*
X00057702Y00157057*
X00057736Y00156919*
X00057780Y00156784*
X00057833Y00156653*
X00057895Y00156525*
X00057966Y00156403*
X00058045Y00156285*
X00058133Y00156173*
X00058228Y00156068*
X00058330Y00155969*
X00058438Y00155878*
X00058553Y00155795*
X00058674Y00155720*
X00058799Y00155653*
X00058928Y00155595*
X00059061Y00155547*
X00059198Y00155508*
X00059336Y00155478*
X00059477Y00155458*
X00059618Y00155449*
X00059760*
X00059902Y00155458*
X00060042Y00155478*
X00060181Y00155508*
X00060317Y00155547*
X00060450Y00155595*
X00060580Y00155653*
X00060706Y00155720*
X00060826Y00155795*
X00060940Y00155878*
X00061049Y00155969*
X00061151Y00156068*
X00061246Y00156173*
X00061333Y00156285*
X00061413Y00156403*
X00061484Y00156525*
X00061546Y00156653*
X00061599Y00156784*
X00061643Y00156919*
X00061677Y00157057*
X00061702Y00157197*
X00061716Y00157338*
X00061722Y00157480*
X00087122D02*
D01*
X00087116Y00157621*
X00087102Y00157762*
X00087077Y00157902*
X00087043Y00158040*
X00086999Y00158174*
X00086946Y00158306*
X00086884Y00158433*
X00086813Y00158556*
X00086733Y00158674*
X00086646Y00158786*
X00086551Y00158891*
X00086449Y00158990*
X00086340Y00159081*
X00086226Y00159164*
X00086106Y00159239*
X00085980Y00159306*
X00085850Y00159363*
X00085717Y00159412*
X00085581Y00159451*
X00085442Y00159481*
X00085302Y00159500*
X00085160Y00159510*
X00085018*
X00084877Y00159500*
X00084736Y00159481*
X00084598Y00159451*
X00084461Y00159412*
X00084328Y00159363*
X00084199Y00159306*
X00084074Y00159239*
X00083953Y00159164*
X00083838Y00159081*
X00083730Y00158990*
X00083628Y00158891*
X00083533Y00158786*
X00083445Y00158674*
X00083366Y00158556*
X00083295Y00158433*
X00083233Y00158306*
X00083180Y00158174*
X00083136Y00158040*
X00083102Y00157902*
X00083077Y00157762*
X00083062Y00157621*
X00083058Y00157480*
X00083062Y00157338*
X00083077Y00157197*
X00083102Y00157057*
X00083136Y00156919*
X00083180Y00156784*
X00083233Y00156653*
X00083295Y00156525*
X00083366Y00156403*
X00083445Y00156285*
X00083533Y00156173*
X00083628Y00156068*
X00083730Y00155969*
X00083838Y00155878*
X00083953Y00155795*
X00084074Y00155720*
X00084199Y00155653*
X00084328Y00155595*
X00084461Y00155547*
X00084598Y00155508*
X00084736Y00155478*
X00084877Y00155458*
X00085018Y00155449*
X00085160*
X00085302Y00155458*
X00085442Y00155478*
X00085581Y00155508*
X00085717Y00155547*
X00085850Y00155595*
X00085980Y00155653*
X00086106Y00155720*
X00086226Y00155795*
X00086340Y00155878*
X00086449Y00155969*
X00086551Y00156068*
X00086646Y00156173*
X00086733Y00156285*
X00086813Y00156403*
X00086884Y00156525*
X00086946Y00156653*
X00086999Y00156784*
X00087043Y00156919*
X00087077Y00157057*
X00087102Y00157197*
X00087116Y00157338*
X00087122Y00157480*
X00112522D02*
D01*
X00112516Y00157621*
X00112502Y00157762*
X00112477Y00157902*
X00112443Y00158040*
X00112399Y00158174*
X00112346Y00158306*
X00112284Y00158433*
X00112213Y00158556*
X00112133Y00158674*
X00112046Y00158786*
X00111951Y00158891*
X00111849Y00158990*
X00111740Y00159081*
X00111626Y00159164*
X00111506Y00159239*
X00111380Y00159306*
X00111250Y00159363*
X00111117Y00159412*
X00110981Y00159451*
X00110842Y00159481*
X00110702Y00159500*
X00110560Y00159510*
X00110418*
X00110277Y00159500*
X00110136Y00159481*
X00109998Y00159451*
X00109861Y00159412*
X00109728Y00159363*
X00109599Y00159306*
X00109474Y00159239*
X00109353Y00159164*
X00109238Y00159081*
X00109130Y00158990*
X00109028Y00158891*
X00108933Y00158786*
X00108845Y00158674*
X00108766Y00158556*
X00108695Y00158433*
X00108633Y00158306*
X00108580Y00158174*
X00108536Y00158040*
X00108502Y00157902*
X00108477Y00157762*
X00108462Y00157621*
X00108458Y00157480*
X00108462Y00157338*
X00108477Y00157197*
X00108502Y00157057*
X00108536Y00156919*
X00108580Y00156784*
X00108633Y00156653*
X00108695Y00156525*
X00108766Y00156403*
X00108845Y00156285*
X00108933Y00156173*
X00109028Y00156068*
X00109130Y00155969*
X00109238Y00155878*
X00109353Y00155795*
X00109474Y00155720*
X00109599Y00155653*
X00109728Y00155595*
X00109861Y00155547*
X00109998Y00155508*
X00110136Y00155478*
X00110277Y00155458*
X00110418Y00155449*
X00110560*
X00110702Y00155458*
X00110842Y00155478*
X00110981Y00155508*
X00111117Y00155547*
X00111250Y00155595*
X00111380Y00155653*
X00111506Y00155720*
X00111626Y00155795*
X00111740Y00155878*
X00111849Y00155969*
X00111951Y00156068*
X00112046Y00156173*
X00112133Y00156285*
X00112213Y00156403*
X00112284Y00156525*
X00112346Y00156653*
X00112399Y00156784*
X00112443Y00156919*
X00112477Y00157057*
X00112502Y00157197*
X00112516Y00157338*
X00112522Y00157480*
X00201941Y00082189D02*
D01*
X00201936Y00082331*
X00201922Y00082472*
X00201897Y00082612*
X00201863Y00082749*
X00201819Y00082884*
X00201766Y00083016*
X00201703Y00083143*
X00201633Y00083266*
X00201553Y00083384*
X00201466Y00083495*
X00201371Y00083601*
X00201269Y00083699*
X00201160Y00083791*
X00201046Y00083874*
X00200925Y00083949*
X00200800Y00084016*
X00200671Y00084074*
X00200537Y00084122*
X00200401Y00084161*
X00200262Y00084191*
X00200122Y00084210*
X00199980Y00084220*
X00199839*
X00199697Y00084210*
X00199557Y00084191*
X00199418Y00084161*
X00199282Y00084122*
X00199148Y00084074*
X00199019Y00084016*
X00198893Y00083949*
X00198773Y00083874*
X00198658Y00083791*
X00198550Y00083699*
X00198448Y00083601*
X00198353Y00083495*
X00198266Y00083384*
X00198186Y00083266*
X00198115Y00083143*
X00198053Y00083016*
X00198000Y00082884*
X00197956Y00082749*
X00197922Y00082612*
X00197897Y00082472*
X00197882Y00082331*
X00197877Y00082189*
X00197882Y00082048*
X00197897Y00081907*
X00197922Y00081767*
X00197956Y00081629*
X00198000Y00081494*
X00198053Y00081363*
X00198115Y00081235*
X00198186Y00081113*
X00198266Y00080995*
X00198353Y00080883*
X00198448Y00080778*
X00198550Y00080679*
X00198658Y00080588*
X00198773Y00080505*
X00198893Y00080430*
X00199019Y00080363*
X00199148Y00080305*
X00199282Y00080257*
X00199418Y00080218*
X00199557Y00080188*
X00199697Y00080169*
X00199839Y00080159*
X00199980*
X00200122Y00080169*
X00200262Y00080188*
X00200401Y00080218*
X00200537Y00080257*
X00200671Y00080305*
X00200800Y00080363*
X00200925Y00080430*
X00201046Y00080505*
X00201160Y00080588*
X00201269Y00080679*
X00201371Y00080778*
X00201466Y00080883*
X00201553Y00080995*
X00201633Y00081113*
X00201703Y00081235*
X00201766Y00081363*
X00201819Y00081494*
X00201863Y00081629*
X00201897Y00081767*
X00201922Y00081907*
X00201936Y00082048*
X00201941Y00082189*
Y00037189D02*
D01*
X00201936Y00037331*
X00201922Y00037472*
X00201897Y00037612*
X00201863Y00037749*
X00201819Y00037884*
X00201766Y00038016*
X00201703Y00038143*
X00201633Y00038266*
X00201553Y00038384*
X00201466Y00038495*
X00201371Y00038601*
X00201269Y00038699*
X00201160Y00038791*
X00201046Y00038874*
X00200925Y00038949*
X00200800Y00039016*
X00200671Y00039073*
X00200537Y00039122*
X00200401Y00039161*
X00200262Y00039190*
X00200122Y00039210*
X00199980Y00039220*
X00199839*
X00199697Y00039210*
X00199557Y00039190*
X00199418Y00039161*
X00199282Y00039122*
X00199148Y00039073*
X00199019Y00039016*
X00198893Y00038949*
X00198773Y00038874*
X00198658Y00038791*
X00198550Y00038699*
X00198448Y00038601*
X00198353Y00038495*
X00198266Y00038384*
X00198186Y00038266*
X00198115Y00038143*
X00198053Y00038016*
X00198000Y00037884*
X00197956Y00037749*
X00197922Y00037612*
X00197897Y00037472*
X00197882Y00037331*
X00197877Y00037189*
X00197882Y00037048*
X00197897Y00036906*
X00197922Y00036767*
X00197956Y00036629*
X00198000Y00036494*
X00198053Y00036363*
X00198115Y00036235*
X00198186Y00036112*
X00198266Y00035995*
X00198353Y00035883*
X00198448Y00035778*
X00198550Y00035679*
X00198658Y00035588*
X00198773Y00035505*
X00198893Y00035430*
X00199019Y00035363*
X00199148Y00035305*
X00199282Y00035257*
X00199418Y00035218*
X00199557Y00035188*
X00199697Y00035169*
X00199839Y00035159*
X00199980*
X00200122Y00035169*
X00200262Y00035188*
X00200401Y00035218*
X00200537Y00035257*
X00200671Y00035305*
X00200800Y00035363*
X00200925Y00035430*
X00201046Y00035505*
X00201160Y00035588*
X00201269Y00035679*
X00201371Y00035778*
X00201466Y00035883*
X00201553Y00035995*
X00201633Y00036112*
X00201703Y00036235*
X00201766Y00036363*
X00201819Y00036494*
X00201863Y00036629*
X00201897Y00036767*
X00201922Y00036906*
X00201936Y00037048*
X00201941Y00037189*
X00266941D02*
D01*
X00266936Y00037331*
X00266921Y00037472*
X00266897Y00037612*
X00266863Y00037749*
X00266819Y00037884*
X00266766Y00038016*
X00266704Y00038143*
X00266633Y00038266*
X00266553Y00038384*
X00266466Y00038495*
X00266371Y00038601*
X00266269Y00038699*
X00266161Y00038791*
X00266046Y00038874*
X00265925Y00038949*
X00265800Y00039016*
X00265671Y00039073*
X00265537Y00039122*
X00265401Y00039161*
X00265262Y00039190*
X00265122Y00039210*
X00264980Y00039220*
X00264838*
X00264697Y00039210*
X00264557Y00039190*
X00264418Y00039161*
X00264281Y00039122*
X00264148Y00039073*
X00264019Y00039016*
X00263893Y00038949*
X00263773Y00038874*
X00263658Y00038791*
X00263550Y00038699*
X00263448Y00038601*
X00263353Y00038495*
X00263265Y00038384*
X00263186Y00038266*
X00263115Y00038143*
X00263053Y00038016*
X00263000Y00037884*
X00262956Y00037749*
X00262922Y00037612*
X00262897Y00037472*
X00262882Y00037331*
X00262877Y00037189*
X00262882Y00037048*
X00262897Y00036906*
X00262922Y00036767*
X00262956Y00036629*
X00263000Y00036494*
X00263053Y00036363*
X00263115Y00036235*
X00263186Y00036112*
X00263265Y00035995*
X00263353Y00035883*
X00263448Y00035778*
X00263550Y00035679*
X00263658Y00035588*
X00263773Y00035505*
X00263893Y00035430*
X00264019Y00035363*
X00264148Y00035305*
X00264281Y00035257*
X00264418Y00035218*
X00264557Y00035188*
X00264697Y00035169*
X00264838Y00035159*
X00264980*
X00265122Y00035169*
X00265262Y00035188*
X00265401Y00035218*
X00265537Y00035257*
X00265671Y00035305*
X00265800Y00035363*
X00265925Y00035430*
X00266046Y00035505*
X00266161Y00035588*
X00266269Y00035679*
X00266371Y00035778*
X00266466Y00035883*
X00266553Y00035995*
X00266633Y00036112*
X00266704Y00036235*
X00266766Y00036363*
X00266819Y00036494*
X00266863Y00036629*
X00266897Y00036767*
X00266921Y00036906*
X00266936Y00037048*
X00266941Y00037189*
Y00082189D02*
D01*
X00266936Y00082331*
X00266921Y00082472*
X00266897Y00082612*
X00266863Y00082749*
X00266819Y00082884*
X00266766Y00083016*
X00266704Y00083143*
X00266633Y00083266*
X00266553Y00083384*
X00266466Y00083495*
X00266371Y00083601*
X00266269Y00083699*
X00266161Y00083791*
X00266046Y00083874*
X00265925Y00083949*
X00265800Y00084016*
X00265671Y00084074*
X00265537Y00084122*
X00265401Y00084161*
X00265262Y00084191*
X00265122Y00084210*
X00264980Y00084220*
X00264838*
X00264697Y00084210*
X00264557Y00084191*
X00264418Y00084161*
X00264281Y00084122*
X00264148Y00084074*
X00264019Y00084016*
X00263893Y00083949*
X00263773Y00083874*
X00263658Y00083791*
X00263550Y00083699*
X00263448Y00083601*
X00263353Y00083495*
X00263265Y00083384*
X00263186Y00083266*
X00263115Y00083143*
X00263053Y00083016*
X00263000Y00082884*
X00262956Y00082749*
X00262922Y00082612*
X00262897Y00082472*
X00262882Y00082331*
X00262877Y00082189*
X00262882Y00082048*
X00262897Y00081907*
X00262922Y00081767*
X00262956Y00081629*
X00263000Y00081494*
X00263053Y00081363*
X00263115Y00081235*
X00263186Y00081113*
X00263265Y00080995*
X00263353Y00080883*
X00263448Y00080778*
X00263550Y00080679*
X00263658Y00080588*
X00263773Y00080505*
X00263893Y00080430*
X00264019Y00080363*
X00264148Y00080305*
X00264281Y00080257*
X00264418Y00080218*
X00264557Y00080188*
X00264697Y00080169*
X00264838Y00080159*
X00264980*
X00265122Y00080169*
X00265262Y00080188*
X00265401Y00080218*
X00265537Y00080257*
X00265671Y00080305*
X00265800Y00080363*
X00265925Y00080430*
X00266046Y00080505*
X00266161Y00080588*
X00266269Y00080679*
X00266371Y00080778*
X00266466Y00080883*
X00266553Y00080995*
X00266633Y00081113*
X00266704Y00081235*
X00266766Y00081363*
X00266819Y00081494*
X00266863Y00081629*
X00266897Y00081767*
X00266921Y00081907*
X00266936Y00082048*
X00266941Y00082189*
X00151892Y00515620D02*
D01*
X00151886Y00515761*
X00151872Y00515902*
X00151847Y00516042*
X00151813Y00516180*
X00151769Y00516314*
X00151716Y00516446*
X00151654Y00516573*
X00151583Y00516696*
X00151503Y00516814*
X00151416Y00516926*
X00151321Y00517031*
X00151219Y00517130*
X00151110Y00517221*
X00150996Y00517304*
X00150876Y00517379*
X00150750Y00517446*
X00150620Y00517503*
X00150487Y00517552*
X00150351Y00517591*
X00150212Y00517621*
X00150072Y00517640*
X00149930Y00517650*
X00149788*
X00149647Y00517640*
X00149506Y00517621*
X00149368Y00517591*
X00149231Y00517552*
X00149098Y00517503*
X00148969Y00517446*
X00148844Y00517379*
X00148723Y00517304*
X00148608Y00517221*
X00148500Y00517130*
X00148398Y00517031*
X00148303Y00516926*
X00148215Y00516814*
X00148136Y00516696*
X00148065Y00516573*
X00148003Y00516446*
X00147950Y00516314*
X00147906Y00516180*
X00147872Y00516042*
X00147847Y00515902*
X00147832Y00515761*
X00147828Y00515620*
X00147832Y00515478*
X00147847Y00515337*
X00147872Y00515197*
X00147906Y00515059*
X00147950Y00514924*
X00148003Y00514793*
X00148065Y00514665*
X00148136Y00514543*
X00148215Y00514425*
X00148303Y00514313*
X00148398Y00514208*
X00148500Y00514109*
X00148608Y00514018*
X00148723Y00513935*
X00148844Y00513860*
X00148969Y00513793*
X00149098Y00513735*
X00149231Y00513687*
X00149368Y00513648*
X00149506Y00513618*
X00149647Y00513598*
X00149788Y00513589*
X00149930*
X00150072Y00513598*
X00150212Y00513618*
X00150351Y00513648*
X00150487Y00513687*
X00150620Y00513735*
X00150750Y00513793*
X00150876Y00513860*
X00150996Y00513935*
X00151110Y00514018*
X00151219Y00514109*
X00151321Y00514208*
X00151416Y00514313*
X00151503Y00514425*
X00151583Y00514543*
X00151654Y00514665*
X00151716Y00514793*
X00151769Y00514924*
X00151813Y00515059*
X00151847Y00515197*
X00151872Y00515337*
X00151886Y00515478*
X00151892Y00515620*
X00380091D02*
D01*
X00380086Y00515761*
X00380072Y00515902*
X00380047Y00516042*
X00380013Y00516180*
X00379969Y00516314*
X00379916Y00516446*
X00379853Y00516573*
X00379783Y00516696*
X00379703Y00516814*
X00379616Y00516926*
X00379521Y00517031*
X00379419Y00517130*
X00379310Y00517221*
X00379196Y00517304*
X00379075Y00517379*
X00378950Y00517446*
X00378821Y00517503*
X00378687Y00517552*
X00378551Y00517591*
X00378412Y00517621*
X00378272Y00517640*
X00378130Y00517650*
X00377989*
X00377847Y00517640*
X00377707Y00517621*
X00377568Y00517591*
X00377432Y00517552*
X00377298Y00517503*
X00377169Y00517446*
X00377043Y00517379*
X00376923Y00517304*
X00376808Y00517221*
X00376700Y00517130*
X00376598Y00517031*
X00376503Y00516926*
X00376416Y00516814*
X00376336Y00516696*
X00376265Y00516573*
X00376203Y00516446*
X00376150Y00516314*
X00376106Y00516180*
X00376072Y00516042*
X00376047Y00515902*
X00376032Y00515761*
X00376027Y00515620*
X00376032Y00515478*
X00376047Y00515337*
X00376072Y00515197*
X00376106Y00515059*
X00376150Y00514924*
X00376203Y00514793*
X00376265Y00514665*
X00376336Y00514543*
X00376416Y00514425*
X00376503Y00514313*
X00376598Y00514208*
X00376700Y00514109*
X00376808Y00514018*
X00376923Y00513935*
X00377043Y00513860*
X00377169Y00513793*
X00377298Y00513735*
X00377432Y00513687*
X00377568Y00513648*
X00377707Y00513618*
X00377847Y00513598*
X00377989Y00513589*
X00378130*
X00378272Y00513598*
X00378412Y00513618*
X00378551Y00513648*
X00378687Y00513687*
X00378821Y00513735*
X00378950Y00513793*
X00379075Y00513860*
X00379196Y00513935*
X00379310Y00514018*
X00379419Y00514109*
X00379521Y00514208*
X00379616Y00514313*
X00379703Y00514425*
X00379783Y00514543*
X00379853Y00514665*
X00379916Y00514793*
X00379969Y00514924*
X00380013Y00515059*
X00380047Y00515197*
X00380072Y00515337*
X00380086Y00515478*
X00380091Y00515620*
X00405491D02*
D01*
X00405486Y00515761*
X00405472Y00515902*
X00405447Y00516042*
X00405413Y00516180*
X00405369Y00516314*
X00405316Y00516446*
X00405253Y00516573*
X00405183Y00516696*
X00405103Y00516814*
X00405016Y00516926*
X00404921Y00517031*
X00404819Y00517130*
X00404710Y00517221*
X00404596Y00517304*
X00404475Y00517379*
X00404350Y00517446*
X00404221Y00517503*
X00404087Y00517552*
X00403951Y00517591*
X00403812Y00517621*
X00403672Y00517640*
X00403530Y00517650*
X00403389*
X00403247Y00517640*
X00403107Y00517621*
X00402968Y00517591*
X00402832Y00517552*
X00402698Y00517503*
X00402569Y00517446*
X00402443Y00517379*
X00402323Y00517304*
X00402208Y00517221*
X00402100Y00517130*
X00401998Y00517031*
X00401903Y00516926*
X00401816Y00516814*
X00401736Y00516696*
X00401665Y00516573*
X00401603Y00516446*
X00401550Y00516314*
X00401506Y00516180*
X00401472Y00516042*
X00401447Y00515902*
X00401432Y00515761*
X00401427Y00515620*
X00401432Y00515478*
X00401447Y00515337*
X00401472Y00515197*
X00401506Y00515059*
X00401550Y00514924*
X00401603Y00514793*
X00401665Y00514665*
X00401736Y00514543*
X00401816Y00514425*
X00401903Y00514313*
X00401998Y00514208*
X00402100Y00514109*
X00402208Y00514018*
X00402323Y00513935*
X00402443Y00513860*
X00402569Y00513793*
X00402698Y00513735*
X00402832Y00513687*
X00402968Y00513648*
X00403107Y00513618*
X00403247Y00513598*
X00403389Y00513589*
X00403530*
X00403672Y00513598*
X00403812Y00513618*
X00403951Y00513648*
X00404087Y00513687*
X00404221Y00513735*
X00404350Y00513793*
X00404475Y00513860*
X00404596Y00513935*
X00404710Y00514018*
X00404819Y00514109*
X00404921Y00514208*
X00405016Y00514313*
X00405103Y00514425*
X00405183Y00514543*
X00405253Y00514665*
X00405316Y00514793*
X00405369Y00514924*
X00405413Y00515059*
X00405447Y00515197*
X00405472Y00515337*
X00405486Y00515478*
X00405491Y00515620*
X00430891D02*
D01*
X00430886Y00515761*
X00430872Y00515902*
X00430847Y00516042*
X00430813Y00516180*
X00430769Y00516314*
X00430716Y00516446*
X00430653Y00516573*
X00430583Y00516696*
X00430503Y00516814*
X00430416Y00516926*
X00430321Y00517031*
X00430219Y00517130*
X00430110Y00517221*
X00429996Y00517304*
X00429875Y00517379*
X00429750Y00517446*
X00429621Y00517503*
X00429487Y00517552*
X00429351Y00517591*
X00429212Y00517621*
X00429072Y00517640*
X00428930Y00517650*
X00428789*
X00428647Y00517640*
X00428507Y00517621*
X00428368Y00517591*
X00428232Y00517552*
X00428098Y00517503*
X00427969Y00517446*
X00427843Y00517379*
X00427723Y00517304*
X00427608Y00517221*
X00427500Y00517130*
X00427398Y00517031*
X00427303Y00516926*
X00427216Y00516814*
X00427136Y00516696*
X00427065Y00516573*
X00427003Y00516446*
X00426950Y00516314*
X00426906Y00516180*
X00426872Y00516042*
X00426847Y00515902*
X00426832Y00515761*
X00426827Y00515620*
X00426832Y00515478*
X00426847Y00515337*
X00426872Y00515197*
X00426906Y00515059*
X00426950Y00514924*
X00427003Y00514793*
X00427065Y00514665*
X00427136Y00514543*
X00427216Y00514425*
X00427303Y00514313*
X00427398Y00514208*
X00427500Y00514109*
X00427608Y00514018*
X00427723Y00513935*
X00427843Y00513860*
X00427969Y00513793*
X00428098Y00513735*
X00428232Y00513687*
X00428368Y00513648*
X00428507Y00513618*
X00428647Y00513598*
X00428789Y00513589*
X00428930*
X00429072Y00513598*
X00429212Y00513618*
X00429351Y00513648*
X00429487Y00513687*
X00429621Y00513735*
X00429750Y00513793*
X00429875Y00513860*
X00429996Y00513935*
X00430110Y00514018*
X00430219Y00514109*
X00430321Y00514208*
X00430416Y00514313*
X00430503Y00514425*
X00430583Y00514543*
X00430653Y00514665*
X00430716Y00514793*
X00430769Y00514924*
X00430813Y00515059*
X00430847Y00515197*
X00430872Y00515337*
X00430886Y00515478*
X00430891Y00515620*
X00456291D02*
D01*
X00456286Y00515761*
X00456272Y00515902*
X00456247Y00516042*
X00456213Y00516180*
X00456169Y00516314*
X00456116Y00516446*
X00456053Y00516573*
X00455983Y00516696*
X00455903Y00516814*
X00455816Y00516926*
X00455721Y00517031*
X00455619Y00517130*
X00455510Y00517221*
X00455396Y00517304*
X00455275Y00517379*
X00455150Y00517446*
X00455021Y00517503*
X00454887Y00517552*
X00454751Y00517591*
X00454612Y00517621*
X00454472Y00517640*
X00454330Y00517650*
X00454189*
X00454047Y00517640*
X00453907Y00517621*
X00453768Y00517591*
X00453632Y00517552*
X00453498Y00517503*
X00453369Y00517446*
X00453243Y00517379*
X00453123Y00517304*
X00453008Y00517221*
X00452900Y00517130*
X00452798Y00517031*
X00452703Y00516926*
X00452616Y00516814*
X00452536Y00516696*
X00452465Y00516573*
X00452403Y00516446*
X00452350Y00516314*
X00452306Y00516180*
X00452272Y00516042*
X00452247Y00515902*
X00452232Y00515761*
X00452227Y00515620*
X00452232Y00515478*
X00452247Y00515337*
X00452272Y00515197*
X00452306Y00515059*
X00452350Y00514924*
X00452403Y00514793*
X00452465Y00514665*
X00452536Y00514543*
X00452616Y00514425*
X00452703Y00514313*
X00452798Y00514208*
X00452900Y00514109*
X00453008Y00514018*
X00453123Y00513935*
X00453243Y00513860*
X00453369Y00513793*
X00453498Y00513735*
X00453632Y00513687*
X00453768Y00513648*
X00453907Y00513618*
X00454047Y00513598*
X00454189Y00513589*
X00454330*
X00454472Y00513598*
X00454612Y00513618*
X00454751Y00513648*
X00454887Y00513687*
X00455021Y00513735*
X00455150Y00513793*
X00455275Y00513860*
X00455396Y00513935*
X00455510Y00514018*
X00455619Y00514109*
X00455721Y00514208*
X00455816Y00514313*
X00455903Y00514425*
X00455983Y00514543*
X00456053Y00514665*
X00456116Y00514793*
X00456169Y00514924*
X00456213Y00515059*
X00456247Y00515197*
X00456272Y00515337*
X00456286Y00515478*
X00456291Y00515620*
X00481691D02*
D01*
X00481686Y00515761*
X00481672Y00515902*
X00481647Y00516042*
X00481613Y00516180*
X00481569Y00516314*
X00481516Y00516446*
X00481453Y00516573*
X00481383Y00516696*
X00481303Y00516814*
X00481216Y00516926*
X00481121Y00517031*
X00481019Y00517130*
X00480910Y00517221*
X00480796Y00517304*
X00480675Y00517379*
X00480550Y00517446*
X00480421Y00517503*
X00480287Y00517552*
X00480151Y00517591*
X00480012Y00517621*
X00479872Y00517640*
X00479730Y00517650*
X00479589*
X00479447Y00517640*
X00479307Y00517621*
X00479168Y00517591*
X00479032Y00517552*
X00478898Y00517503*
X00478769Y00517446*
X00478643Y00517379*
X00478523Y00517304*
X00478408Y00517221*
X00478300Y00517130*
X00478198Y00517031*
X00478103Y00516926*
X00478016Y00516814*
X00477936Y00516696*
X00477865Y00516573*
X00477803Y00516446*
X00477750Y00516314*
X00477706Y00516180*
X00477672Y00516042*
X00477647Y00515902*
X00477632Y00515761*
X00477627Y00515620*
X00477632Y00515478*
X00477647Y00515337*
X00477672Y00515197*
X00477706Y00515059*
X00477750Y00514924*
X00477803Y00514793*
X00477865Y00514665*
X00477936Y00514543*
X00478016Y00514425*
X00478103Y00514313*
X00478198Y00514208*
X00478300Y00514109*
X00478408Y00514018*
X00478523Y00513935*
X00478643Y00513860*
X00478769Y00513793*
X00478898Y00513735*
X00479032Y00513687*
X00479168Y00513648*
X00479307Y00513618*
X00479447Y00513598*
X00479589Y00513589*
X00479730*
X00479872Y00513598*
X00480012Y00513618*
X00480151Y00513648*
X00480287Y00513687*
X00480421Y00513735*
X00480550Y00513793*
X00480675Y00513860*
X00480796Y00513935*
X00480910Y00514018*
X00481019Y00514109*
X00481121Y00514208*
X00481216Y00514313*
X00481303Y00514425*
X00481383Y00514543*
X00481453Y00514665*
X00481516Y00514793*
X00481569Y00514924*
X00481613Y00515059*
X00481647Y00515197*
X00481672Y00515337*
X00481686Y00515478*
X00481691Y00515620*
X00507091D02*
D01*
X00507086Y00515761*
X00507072Y00515902*
X00507047Y00516042*
X00507013Y00516180*
X00506969Y00516314*
X00506916Y00516446*
X00506853Y00516573*
X00506783Y00516696*
X00506703Y00516814*
X00506616Y00516926*
X00506521Y00517031*
X00506419Y00517130*
X00506310Y00517221*
X00506196Y00517304*
X00506075Y00517379*
X00505950Y00517446*
X00505821Y00517503*
X00505687Y00517552*
X00505551Y00517591*
X00505412Y00517621*
X00505272Y00517640*
X00505130Y00517650*
X00504989*
X00504847Y00517640*
X00504707Y00517621*
X00504568Y00517591*
X00504432Y00517552*
X00504298Y00517503*
X00504169Y00517446*
X00504043Y00517379*
X00503923Y00517304*
X00503808Y00517221*
X00503700Y00517130*
X00503598Y00517031*
X00503503Y00516926*
X00503416Y00516814*
X00503336Y00516696*
X00503265Y00516573*
X00503203Y00516446*
X00503150Y00516314*
X00503106Y00516180*
X00503072Y00516042*
X00503047Y00515902*
X00503032Y00515761*
X00503027Y00515620*
X00503032Y00515478*
X00503047Y00515337*
X00503072Y00515197*
X00503106Y00515059*
X00503150Y00514924*
X00503203Y00514793*
X00503265Y00514665*
X00503336Y00514543*
X00503416Y00514425*
X00503503Y00514313*
X00503598Y00514208*
X00503700Y00514109*
X00503808Y00514018*
X00503923Y00513935*
X00504043Y00513860*
X00504169Y00513793*
X00504298Y00513735*
X00504432Y00513687*
X00504568Y00513648*
X00504707Y00513618*
X00504847Y00513598*
X00504989Y00513589*
X00505130*
X00505272Y00513598*
X00505412Y00513618*
X00505551Y00513648*
X00505687Y00513687*
X00505821Y00513735*
X00505950Y00513793*
X00506075Y00513860*
X00506196Y00513935*
X00506310Y00514018*
X00506419Y00514109*
X00506521Y00514208*
X00506616Y00514313*
X00506703Y00514425*
X00506783Y00514543*
X00506853Y00514665*
X00506916Y00514793*
X00506969Y00514924*
X00507013Y00515059*
X00507047Y00515197*
X00507072Y00515337*
X00507086Y00515478*
X00507091Y00515620*
X00253091D02*
D01*
X00253086Y00515761*
X00253072Y00515902*
X00253047Y00516042*
X00253013Y00516180*
X00252969Y00516314*
X00252916Y00516446*
X00252853Y00516573*
X00252783Y00516696*
X00252703Y00516814*
X00252616Y00516926*
X00252521Y00517031*
X00252419Y00517130*
X00252310Y00517221*
X00252196Y00517304*
X00252075Y00517379*
X00251950Y00517446*
X00251821Y00517503*
X00251687Y00517552*
X00251551Y00517591*
X00251412Y00517621*
X00251272Y00517640*
X00251130Y00517650*
X00250989*
X00250847Y00517640*
X00250707Y00517621*
X00250568Y00517591*
X00250432Y00517552*
X00250298Y00517503*
X00250169Y00517446*
X00250043Y00517379*
X00249923Y00517304*
X00249808Y00517221*
X00249700Y00517130*
X00249598Y00517031*
X00249503Y00516926*
X00249416Y00516814*
X00249336Y00516696*
X00249265Y00516573*
X00249203Y00516446*
X00249150Y00516314*
X00249106Y00516180*
X00249072Y00516042*
X00249047Y00515902*
X00249032Y00515761*
X00249027Y00515620*
X00249032Y00515478*
X00249047Y00515337*
X00249072Y00515197*
X00249106Y00515059*
X00249150Y00514924*
X00249203Y00514793*
X00249265Y00514665*
X00249336Y00514543*
X00249416Y00514425*
X00249503Y00514313*
X00249598Y00514208*
X00249700Y00514109*
X00249808Y00514018*
X00249923Y00513935*
X00250043Y00513860*
X00250169Y00513793*
X00250298Y00513735*
X00250432Y00513687*
X00250568Y00513648*
X00250707Y00513618*
X00250847Y00513598*
X00250989Y00513589*
X00251130*
X00251272Y00513598*
X00251412Y00513618*
X00251551Y00513648*
X00251687Y00513687*
X00251821Y00513735*
X00251950Y00513793*
X00252075Y00513860*
X00252196Y00513935*
X00252310Y00514018*
X00252419Y00514109*
X00252521Y00514208*
X00252616Y00514313*
X00252703Y00514425*
X00252783Y00514543*
X00252853Y00514665*
X00252916Y00514793*
X00252969Y00514924*
X00253013Y00515059*
X00253047Y00515197*
X00253072Y00515337*
X00253086Y00515478*
X00253091Y00515620*
X00227691D02*
D01*
X00227686Y00515761*
X00227672Y00515902*
X00227647Y00516042*
X00227613Y00516180*
X00227569Y00516314*
X00227516Y00516446*
X00227453Y00516573*
X00227383Y00516696*
X00227303Y00516814*
X00227216Y00516926*
X00227121Y00517031*
X00227019Y00517130*
X00226910Y00517221*
X00226796Y00517304*
X00226675Y00517379*
X00226550Y00517446*
X00226421Y00517503*
X00226287Y00517552*
X00226151Y00517591*
X00226012Y00517621*
X00225872Y00517640*
X00225730Y00517650*
X00225589*
X00225447Y00517640*
X00225307Y00517621*
X00225168Y00517591*
X00225032Y00517552*
X00224898Y00517503*
X00224769Y00517446*
X00224643Y00517379*
X00224523Y00517304*
X00224408Y00517221*
X00224300Y00517130*
X00224198Y00517031*
X00224103Y00516926*
X00224016Y00516814*
X00223936Y00516696*
X00223865Y00516573*
X00223803Y00516446*
X00223750Y00516314*
X00223706Y00516180*
X00223672Y00516042*
X00223647Y00515902*
X00223632Y00515761*
X00223627Y00515620*
X00223632Y00515478*
X00223647Y00515337*
X00223672Y00515197*
X00223706Y00515059*
X00223750Y00514924*
X00223803Y00514793*
X00223865Y00514665*
X00223936Y00514543*
X00224016Y00514425*
X00224103Y00514313*
X00224198Y00514208*
X00224300Y00514109*
X00224408Y00514018*
X00224523Y00513935*
X00224643Y00513860*
X00224769Y00513793*
X00224898Y00513735*
X00225032Y00513687*
X00225168Y00513648*
X00225307Y00513618*
X00225447Y00513598*
X00225589Y00513589*
X00225730*
X00225872Y00513598*
X00226012Y00513618*
X00226151Y00513648*
X00226287Y00513687*
X00226421Y00513735*
X00226550Y00513793*
X00226675Y00513860*
X00226796Y00513935*
X00226910Y00514018*
X00227019Y00514109*
X00227121Y00514208*
X00227216Y00514313*
X00227303Y00514425*
X00227383Y00514543*
X00227453Y00514665*
X00227516Y00514793*
X00227569Y00514924*
X00227613Y00515059*
X00227647Y00515197*
X00227672Y00515337*
X00227686Y00515478*
X00227691Y00515620*
X00202291D02*
D01*
X00202286Y00515761*
X00202272Y00515902*
X00202247Y00516042*
X00202213Y00516180*
X00202169Y00516314*
X00202116Y00516446*
X00202053Y00516573*
X00201983Y00516696*
X00201903Y00516814*
X00201816Y00516926*
X00201721Y00517031*
X00201619Y00517130*
X00201510Y00517221*
X00201396Y00517304*
X00201275Y00517379*
X00201150Y00517446*
X00201021Y00517503*
X00200887Y00517552*
X00200751Y00517591*
X00200612Y00517621*
X00200472Y00517640*
X00200330Y00517650*
X00200189*
X00200047Y00517640*
X00199907Y00517621*
X00199768Y00517591*
X00199632Y00517552*
X00199498Y00517503*
X00199369Y00517446*
X00199243Y00517379*
X00199123Y00517304*
X00199008Y00517221*
X00198900Y00517130*
X00198798Y00517031*
X00198703Y00516926*
X00198616Y00516814*
X00198536Y00516696*
X00198465Y00516573*
X00198403Y00516446*
X00198350Y00516314*
X00198306Y00516180*
X00198272Y00516042*
X00198247Y00515902*
X00198232Y00515761*
X00198227Y00515620*
X00198232Y00515478*
X00198247Y00515337*
X00198272Y00515197*
X00198306Y00515059*
X00198350Y00514924*
X00198403Y00514793*
X00198465Y00514665*
X00198536Y00514543*
X00198616Y00514425*
X00198703Y00514313*
X00198798Y00514208*
X00198900Y00514109*
X00199008Y00514018*
X00199123Y00513935*
X00199243Y00513860*
X00199369Y00513793*
X00199498Y00513735*
X00199632Y00513687*
X00199768Y00513648*
X00199907Y00513618*
X00200047Y00513598*
X00200189Y00513589*
X00200330*
X00200472Y00513598*
X00200612Y00513618*
X00200751Y00513648*
X00200887Y00513687*
X00201021Y00513735*
X00201150Y00513793*
X00201275Y00513860*
X00201396Y00513935*
X00201510Y00514018*
X00201619Y00514109*
X00201721Y00514208*
X00201816Y00514313*
X00201903Y00514425*
X00201983Y00514543*
X00202053Y00514665*
X00202116Y00514793*
X00202169Y00514924*
X00202213Y00515059*
X00202247Y00515197*
X00202272Y00515337*
X00202286Y00515478*
X00202291Y00515620*
X00176891D02*
D01*
X00176886Y00515761*
X00176872Y00515902*
X00176847Y00516042*
X00176813Y00516180*
X00176769Y00516314*
X00176716Y00516446*
X00176653Y00516573*
X00176583Y00516696*
X00176503Y00516814*
X00176416Y00516926*
X00176321Y00517031*
X00176219Y00517130*
X00176110Y00517221*
X00175996Y00517304*
X00175875Y00517379*
X00175750Y00517446*
X00175621Y00517503*
X00175487Y00517552*
X00175351Y00517591*
X00175212Y00517621*
X00175072Y00517640*
X00174930Y00517650*
X00174789*
X00174647Y00517640*
X00174507Y00517621*
X00174368Y00517591*
X00174232Y00517552*
X00174098Y00517503*
X00173969Y00517446*
X00173843Y00517379*
X00173723Y00517304*
X00173608Y00517221*
X00173500Y00517130*
X00173398Y00517031*
X00173303Y00516926*
X00173216Y00516814*
X00173136Y00516696*
X00173065Y00516573*
X00173003Y00516446*
X00172950Y00516314*
X00172906Y00516180*
X00172872Y00516042*
X00172847Y00515902*
X00172832Y00515761*
X00172827Y00515620*
X00172832Y00515478*
X00172847Y00515337*
X00172872Y00515197*
X00172906Y00515059*
X00172950Y00514924*
X00173003Y00514793*
X00173065Y00514665*
X00173136Y00514543*
X00173216Y00514425*
X00173303Y00514313*
X00173398Y00514208*
X00173500Y00514109*
X00173608Y00514018*
X00173723Y00513935*
X00173843Y00513860*
X00173969Y00513793*
X00174098Y00513735*
X00174232Y00513687*
X00174368Y00513648*
X00174507Y00513618*
X00174647Y00513598*
X00174789Y00513589*
X00174930*
X00175072Y00513598*
X00175212Y00513618*
X00175351Y00513648*
X00175487Y00513687*
X00175621Y00513735*
X00175750Y00513793*
X00175875Y00513860*
X00175996Y00513935*
X00176110Y00514018*
X00176219Y00514109*
X00176321Y00514208*
X00176416Y00514313*
X00176503Y00514425*
X00176583Y00514543*
X00176653Y00514665*
X00176716Y00514793*
X00176769Y00514924*
X00176813Y00515059*
X00176847Y00515197*
X00176872Y00515337*
X00176886Y00515478*
X00176891Y00515620*
X00278491D02*
D01*
X00278486Y00515761*
X00278472Y00515902*
X00278447Y00516042*
X00278413Y00516180*
X00278369Y00516314*
X00278316Y00516446*
X00278253Y00516573*
X00278183Y00516696*
X00278103Y00516814*
X00278016Y00516926*
X00277921Y00517031*
X00277819Y00517130*
X00277710Y00517221*
X00277596Y00517304*
X00277475Y00517379*
X00277350Y00517446*
X00277221Y00517503*
X00277087Y00517552*
X00276951Y00517591*
X00276812Y00517621*
X00276672Y00517640*
X00276530Y00517650*
X00276389*
X00276247Y00517640*
X00276107Y00517621*
X00275968Y00517591*
X00275832Y00517552*
X00275698Y00517503*
X00275569Y00517446*
X00275443Y00517379*
X00275323Y00517304*
X00275208Y00517221*
X00275100Y00517130*
X00274998Y00517031*
X00274903Y00516926*
X00274816Y00516814*
X00274736Y00516696*
X00274665Y00516573*
X00274603Y00516446*
X00274550Y00516314*
X00274506Y00516180*
X00274472Y00516042*
X00274447Y00515902*
X00274432Y00515761*
X00274427Y00515620*
X00274432Y00515478*
X00274447Y00515337*
X00274472Y00515197*
X00274506Y00515059*
X00274550Y00514924*
X00274603Y00514793*
X00274665Y00514665*
X00274736Y00514543*
X00274816Y00514425*
X00274903Y00514313*
X00274998Y00514208*
X00275100Y00514109*
X00275208Y00514018*
X00275323Y00513935*
X00275443Y00513860*
X00275569Y00513793*
X00275698Y00513735*
X00275832Y00513687*
X00275968Y00513648*
X00276107Y00513618*
X00276247Y00513598*
X00276389Y00513589*
X00276530*
X00276672Y00513598*
X00276812Y00513618*
X00276951Y00513648*
X00277087Y00513687*
X00277221Y00513735*
X00277350Y00513793*
X00277475Y00513860*
X00277596Y00513935*
X00277710Y00514018*
X00277819Y00514109*
X00277921Y00514208*
X00278016Y00514313*
X00278103Y00514425*
X00278183Y00514543*
X00278253Y00514665*
X00278316Y00514793*
X00278369Y00514924*
X00278413Y00515059*
X00278447Y00515197*
X00278472Y00515337*
X00278486Y00515478*
X00278491Y00515620*
X00303891D02*
D01*
X00303886Y00515761*
X00303872Y00515902*
X00303847Y00516042*
X00303813Y00516180*
X00303769Y00516314*
X00303716Y00516446*
X00303653Y00516573*
X00303583Y00516696*
X00303503Y00516814*
X00303416Y00516926*
X00303321Y00517031*
X00303219Y00517130*
X00303110Y00517221*
X00302996Y00517304*
X00302875Y00517379*
X00302750Y00517446*
X00302621Y00517503*
X00302487Y00517552*
X00302351Y00517591*
X00302212Y00517621*
X00302072Y00517640*
X00301930Y00517650*
X00301789*
X00301647Y00517640*
X00301507Y00517621*
X00301368Y00517591*
X00301232Y00517552*
X00301098Y00517503*
X00300969Y00517446*
X00300843Y00517379*
X00300723Y00517304*
X00300608Y00517221*
X00300500Y00517130*
X00300398Y00517031*
X00300303Y00516926*
X00300216Y00516814*
X00300136Y00516696*
X00300065Y00516573*
X00300003Y00516446*
X00299950Y00516314*
X00299906Y00516180*
X00299872Y00516042*
X00299847Y00515902*
X00299832Y00515761*
X00299827Y00515620*
X00299832Y00515478*
X00299847Y00515337*
X00299872Y00515197*
X00299906Y00515059*
X00299950Y00514924*
X00300003Y00514793*
X00300065Y00514665*
X00300136Y00514543*
X00300216Y00514425*
X00300303Y00514313*
X00300398Y00514208*
X00300500Y00514109*
X00300608Y00514018*
X00300723Y00513935*
X00300843Y00513860*
X00300969Y00513793*
X00301098Y00513735*
X00301232Y00513687*
X00301368Y00513648*
X00301507Y00513618*
X00301647Y00513598*
X00301789Y00513589*
X00301930*
X00302072Y00513598*
X00302212Y00513618*
X00302351Y00513648*
X00302487Y00513687*
X00302621Y00513735*
X00302750Y00513793*
X00302875Y00513860*
X00302996Y00513935*
X00303110Y00514018*
X00303219Y00514109*
X00303321Y00514208*
X00303416Y00514313*
X00303503Y00514425*
X00303583Y00514543*
X00303653Y00514665*
X00303716Y00514793*
X00303769Y00514924*
X00303813Y00515059*
X00303847Y00515197*
X00303872Y00515337*
X00303886Y00515478*
X00303891Y00515620*
X00329291D02*
D01*
X00329286Y00515761*
X00329272Y00515902*
X00329247Y00516042*
X00329213Y00516180*
X00329169Y00516314*
X00329116Y00516446*
X00329053Y00516573*
X00328983Y00516696*
X00328903Y00516814*
X00328816Y00516926*
X00328721Y00517031*
X00328619Y00517130*
X00328510Y00517221*
X00328396Y00517304*
X00328275Y00517379*
X00328150Y00517446*
X00328021Y00517503*
X00327887Y00517552*
X00327751Y00517591*
X00327612Y00517621*
X00327472Y00517640*
X00327330Y00517650*
X00327189*
X00327047Y00517640*
X00326907Y00517621*
X00326768Y00517591*
X00326632Y00517552*
X00326498Y00517503*
X00326369Y00517446*
X00326243Y00517379*
X00326123Y00517304*
X00326008Y00517221*
X00325900Y00517130*
X00325798Y00517031*
X00325703Y00516926*
X00325616Y00516814*
X00325536Y00516696*
X00325465Y00516573*
X00325403Y00516446*
X00325350Y00516314*
X00325306Y00516180*
X00325272Y00516042*
X00325247Y00515902*
X00325232Y00515761*
X00325227Y00515620*
X00325232Y00515478*
X00325247Y00515337*
X00325272Y00515197*
X00325306Y00515059*
X00325350Y00514924*
X00325403Y00514793*
X00325465Y00514665*
X00325536Y00514543*
X00325616Y00514425*
X00325703Y00514313*
X00325798Y00514208*
X00325900Y00514109*
X00326008Y00514018*
X00326123Y00513935*
X00326243Y00513860*
X00326369Y00513793*
X00326498Y00513735*
X00326632Y00513687*
X00326768Y00513648*
X00326907Y00513618*
X00327047Y00513598*
X00327189Y00513589*
X00327330*
X00327472Y00513598*
X00327612Y00513618*
X00327751Y00513648*
X00327887Y00513687*
X00328021Y00513735*
X00328150Y00513793*
X00328275Y00513860*
X00328396Y00513935*
X00328510Y00514018*
X00328619Y00514109*
X00328721Y00514208*
X00328816Y00514313*
X00328903Y00514425*
X00328983Y00514543*
X00329053Y00514665*
X00329116Y00514793*
X00329169Y00514924*
X00329213Y00515059*
X00329247Y00515197*
X00329272Y00515337*
X00329286Y00515478*
X00329291Y00515620*
X00354691D02*
D01*
X00354686Y00515761*
X00354672Y00515902*
X00354647Y00516042*
X00354613Y00516180*
X00354569Y00516314*
X00354516Y00516446*
X00354453Y00516573*
X00354383Y00516696*
X00354303Y00516814*
X00354216Y00516926*
X00354121Y00517031*
X00354019Y00517130*
X00353910Y00517221*
X00353796Y00517304*
X00353675Y00517379*
X00353550Y00517446*
X00353421Y00517503*
X00353287Y00517552*
X00353151Y00517591*
X00353012Y00517621*
X00352872Y00517640*
X00352730Y00517650*
X00352589*
X00352447Y00517640*
X00352307Y00517621*
X00352168Y00517591*
X00352032Y00517552*
X00351898Y00517503*
X00351769Y00517446*
X00351643Y00517379*
X00351523Y00517304*
X00351408Y00517221*
X00351300Y00517130*
X00351198Y00517031*
X00351103Y00516926*
X00351016Y00516814*
X00350936Y00516696*
X00350865Y00516573*
X00350803Y00516446*
X00350750Y00516314*
X00350706Y00516180*
X00350672Y00516042*
X00350647Y00515902*
X00350632Y00515761*
X00350627Y00515620*
X00350632Y00515478*
X00350647Y00515337*
X00350672Y00515197*
X00350706Y00515059*
X00350750Y00514924*
X00350803Y00514793*
X00350865Y00514665*
X00350936Y00514543*
X00351016Y00514425*
X00351103Y00514313*
X00351198Y00514208*
X00351300Y00514109*
X00351408Y00514018*
X00351523Y00513935*
X00351643Y00513860*
X00351769Y00513793*
X00351898Y00513735*
X00352032Y00513687*
X00352168Y00513648*
X00352307Y00513618*
X00352447Y00513598*
X00352589Y00513589*
X00352730*
X00352872Y00513598*
X00353012Y00513618*
X00353151Y00513648*
X00353287Y00513687*
X00353421Y00513735*
X00353550Y00513793*
X00353675Y00513860*
X00353796Y00513935*
X00353910Y00514018*
X00354019Y00514109*
X00354121Y00514208*
X00354216Y00514313*
X00354303Y00514425*
X00354383Y00514543*
X00354453Y00514665*
X00354516Y00514793*
X00354569Y00514924*
X00354613Y00515059*
X00354647Y00515197*
X00354672Y00515337*
X00354686Y00515478*
X00354691Y00515620*
X00151892Y00139700D02*
D01*
X00151886Y00139841*
X00151872Y00139982*
X00151847Y00140122*
X00151813Y00140260*
X00151769Y00140394*
X00151716Y00140526*
X00151654Y00140653*
X00151583Y00140776*
X00151503Y00140894*
X00151416Y00141006*
X00151321Y00141111*
X00151219Y00141210*
X00151110Y00141301*
X00150996Y00141384*
X00150876Y00141459*
X00150750Y00141526*
X00150620Y00141583*
X00150487Y00141632*
X00150351Y00141671*
X00150212Y00141701*
X00150072Y00141720*
X00149930Y00141730*
X00149788*
X00149647Y00141720*
X00149506Y00141701*
X00149368Y00141671*
X00149231Y00141632*
X00149098Y00141583*
X00148969Y00141526*
X00148844Y00141459*
X00148723Y00141384*
X00148608Y00141301*
X00148500Y00141210*
X00148398Y00141111*
X00148303Y00141006*
X00148215Y00140894*
X00148136Y00140776*
X00148065Y00140653*
X00148003Y00140526*
X00147950Y00140394*
X00147906Y00140260*
X00147872Y00140122*
X00147847Y00139982*
X00147832Y00139841*
X00147828Y00139700*
X00147832Y00139558*
X00147847Y00139417*
X00147872Y00139277*
X00147906Y00139139*
X00147950Y00139004*
X00148003Y00138873*
X00148065Y00138745*
X00148136Y00138623*
X00148215Y00138505*
X00148303Y00138393*
X00148398Y00138288*
X00148500Y00138189*
X00148608Y00138098*
X00148723Y00138015*
X00148844Y00137940*
X00148969Y00137873*
X00149098Y00137815*
X00149231Y00137767*
X00149368Y00137728*
X00149506Y00137698*
X00149647Y00137678*
X00149788Y00137669*
X00149930*
X00150072Y00137678*
X00150212Y00137698*
X00150351Y00137728*
X00150487Y00137767*
X00150620Y00137815*
X00150750Y00137873*
X00150876Y00137940*
X00150996Y00138015*
X00151110Y00138098*
X00151219Y00138189*
X00151321Y00138288*
X00151416Y00138393*
X00151503Y00138505*
X00151583Y00138623*
X00151654Y00138745*
X00151716Y00138873*
X00151769Y00139004*
X00151813Y00139139*
X00151847Y00139277*
X00151872Y00139417*
X00151886Y00139558*
X00151892Y00139700*
X00380091D02*
D01*
X00380086Y00139841*
X00380072Y00139982*
X00380047Y00140122*
X00380013Y00140260*
X00379969Y00140394*
X00379916Y00140526*
X00379853Y00140653*
X00379783Y00140776*
X00379703Y00140894*
X00379616Y00141006*
X00379521Y00141111*
X00379419Y00141210*
X00379310Y00141301*
X00379196Y00141384*
X00379075Y00141459*
X00378950Y00141526*
X00378821Y00141583*
X00378687Y00141632*
X00378551Y00141671*
X00378412Y00141701*
X00378272Y00141720*
X00378130Y00141730*
X00377989*
X00377847Y00141720*
X00377707Y00141701*
X00377568Y00141671*
X00377432Y00141632*
X00377298Y00141583*
X00377169Y00141526*
X00377043Y00141459*
X00376923Y00141384*
X00376808Y00141301*
X00376700Y00141210*
X00376598Y00141111*
X00376503Y00141006*
X00376416Y00140894*
X00376336Y00140776*
X00376265Y00140653*
X00376203Y00140526*
X00376150Y00140394*
X00376106Y00140260*
X00376072Y00140122*
X00376047Y00139982*
X00376032Y00139841*
X00376027Y00139700*
X00376032Y00139558*
X00376047Y00139417*
X00376072Y00139277*
X00376106Y00139139*
X00376150Y00139004*
X00376203Y00138873*
X00376265Y00138745*
X00376336Y00138623*
X00376416Y00138505*
X00376503Y00138393*
X00376598Y00138288*
X00376700Y00138189*
X00376808Y00138098*
X00376923Y00138015*
X00377043Y00137940*
X00377169Y00137873*
X00377298Y00137815*
X00377432Y00137767*
X00377568Y00137728*
X00377707Y00137698*
X00377847Y00137678*
X00377989Y00137669*
X00378130*
X00378272Y00137678*
X00378412Y00137698*
X00378551Y00137728*
X00378687Y00137767*
X00378821Y00137815*
X00378950Y00137873*
X00379075Y00137940*
X00379196Y00138015*
X00379310Y00138098*
X00379419Y00138189*
X00379521Y00138288*
X00379616Y00138393*
X00379703Y00138505*
X00379783Y00138623*
X00379853Y00138745*
X00379916Y00138873*
X00379969Y00139004*
X00380013Y00139139*
X00380047Y00139277*
X00380072Y00139417*
X00380086Y00139558*
X00380091Y00139700*
X00405491D02*
D01*
X00405486Y00139841*
X00405472Y00139982*
X00405447Y00140122*
X00405413Y00140260*
X00405369Y00140394*
X00405316Y00140526*
X00405253Y00140653*
X00405183Y00140776*
X00405103Y00140894*
X00405016Y00141006*
X00404921Y00141111*
X00404819Y00141210*
X00404710Y00141301*
X00404596Y00141384*
X00404475Y00141459*
X00404350Y00141526*
X00404221Y00141583*
X00404087Y00141632*
X00403951Y00141671*
X00403812Y00141701*
X00403672Y00141720*
X00403530Y00141730*
X00403389*
X00403247Y00141720*
X00403107Y00141701*
X00402968Y00141671*
X00402832Y00141632*
X00402698Y00141583*
X00402569Y00141526*
X00402443Y00141459*
X00402323Y00141384*
X00402208Y00141301*
X00402100Y00141210*
X00401998Y00141111*
X00401903Y00141006*
X00401816Y00140894*
X00401736Y00140776*
X00401665Y00140653*
X00401603Y00140526*
X00401550Y00140394*
X00401506Y00140260*
X00401472Y00140122*
X00401447Y00139982*
X00401432Y00139841*
X00401427Y00139700*
X00401432Y00139558*
X00401447Y00139417*
X00401472Y00139277*
X00401506Y00139139*
X00401550Y00139004*
X00401603Y00138873*
X00401665Y00138745*
X00401736Y00138623*
X00401816Y00138505*
X00401903Y00138393*
X00401998Y00138288*
X00402100Y00138189*
X00402208Y00138098*
X00402323Y00138015*
X00402443Y00137940*
X00402569Y00137873*
X00402698Y00137815*
X00402832Y00137767*
X00402968Y00137728*
X00403107Y00137698*
X00403247Y00137678*
X00403389Y00137669*
X00403530*
X00403672Y00137678*
X00403812Y00137698*
X00403951Y00137728*
X00404087Y00137767*
X00404221Y00137815*
X00404350Y00137873*
X00404475Y00137940*
X00404596Y00138015*
X00404710Y00138098*
X00404819Y00138189*
X00404921Y00138288*
X00405016Y00138393*
X00405103Y00138505*
X00405183Y00138623*
X00405253Y00138745*
X00405316Y00138873*
X00405369Y00139004*
X00405413Y00139139*
X00405447Y00139277*
X00405472Y00139417*
X00405486Y00139558*
X00405491Y00139700*
X00430891D02*
D01*
X00430886Y00139841*
X00430872Y00139982*
X00430847Y00140122*
X00430813Y00140260*
X00430769Y00140394*
X00430716Y00140526*
X00430653Y00140653*
X00430583Y00140776*
X00430503Y00140894*
X00430416Y00141006*
X00430321Y00141111*
X00430219Y00141210*
X00430110Y00141301*
X00429996Y00141384*
X00429875Y00141459*
X00429750Y00141526*
X00429621Y00141583*
X00429487Y00141632*
X00429351Y00141671*
X00429212Y00141701*
X00429072Y00141720*
X00428930Y00141730*
X00428789*
X00428647Y00141720*
X00428507Y00141701*
X00428368Y00141671*
X00428232Y00141632*
X00428098Y00141583*
X00427969Y00141526*
X00427843Y00141459*
X00427723Y00141384*
X00427608Y00141301*
X00427500Y00141210*
X00427398Y00141111*
X00427303Y00141006*
X00427216Y00140894*
X00427136Y00140776*
X00427065Y00140653*
X00427003Y00140526*
X00426950Y00140394*
X00426906Y00140260*
X00426872Y00140122*
X00426847Y00139982*
X00426832Y00139841*
X00426827Y00139700*
X00426832Y00139558*
X00426847Y00139417*
X00426872Y00139277*
X00426906Y00139139*
X00426950Y00139004*
X00427003Y00138873*
X00427065Y00138745*
X00427136Y00138623*
X00427216Y00138505*
X00427303Y00138393*
X00427398Y00138288*
X00427500Y00138189*
X00427608Y00138098*
X00427723Y00138015*
X00427843Y00137940*
X00427969Y00137873*
X00428098Y00137815*
X00428232Y00137767*
X00428368Y00137728*
X00428507Y00137698*
X00428647Y00137678*
X00428789Y00137669*
X00428930*
X00429072Y00137678*
X00429212Y00137698*
X00429351Y00137728*
X00429487Y00137767*
X00429621Y00137815*
X00429750Y00137873*
X00429875Y00137940*
X00429996Y00138015*
X00430110Y00138098*
X00430219Y00138189*
X00430321Y00138288*
X00430416Y00138393*
X00430503Y00138505*
X00430583Y00138623*
X00430653Y00138745*
X00430716Y00138873*
X00430769Y00139004*
X00430813Y00139139*
X00430847Y00139277*
X00430872Y00139417*
X00430886Y00139558*
X00430891Y00139700*
X00456291D02*
D01*
X00456286Y00139841*
X00456272Y00139982*
X00456247Y00140122*
X00456213Y00140260*
X00456169Y00140394*
X00456116Y00140526*
X00456053Y00140653*
X00455983Y00140776*
X00455903Y00140894*
X00455816Y00141006*
X00455721Y00141111*
X00455619Y00141210*
X00455510Y00141301*
X00455396Y00141384*
X00455275Y00141459*
X00455150Y00141526*
X00455021Y00141583*
X00454887Y00141632*
X00454751Y00141671*
X00454612Y00141701*
X00454472Y00141720*
X00454330Y00141730*
X00454189*
X00454047Y00141720*
X00453907Y00141701*
X00453768Y00141671*
X00453632Y00141632*
X00453498Y00141583*
X00453369Y00141526*
X00453243Y00141459*
X00453123Y00141384*
X00453008Y00141301*
X00452900Y00141210*
X00452798Y00141111*
X00452703Y00141006*
X00452616Y00140894*
X00452536Y00140776*
X00452465Y00140653*
X00452403Y00140526*
X00452350Y00140394*
X00452306Y00140260*
X00452272Y00140122*
X00452247Y00139982*
X00452232Y00139841*
X00452227Y00139700*
X00452232Y00139558*
X00452247Y00139417*
X00452272Y00139277*
X00452306Y00139139*
X00452350Y00139004*
X00452403Y00138873*
X00452465Y00138745*
X00452536Y00138623*
X00452616Y00138505*
X00452703Y00138393*
X00452798Y00138288*
X00452900Y00138189*
X00453008Y00138098*
X00453123Y00138015*
X00453243Y00137940*
X00453369Y00137873*
X00453498Y00137815*
X00453632Y00137767*
X00453768Y00137728*
X00453907Y00137698*
X00454047Y00137678*
X00454189Y00137669*
X00454330*
X00454472Y00137678*
X00454612Y00137698*
X00454751Y00137728*
X00454887Y00137767*
X00455021Y00137815*
X00455150Y00137873*
X00455275Y00137940*
X00455396Y00138015*
X00455510Y00138098*
X00455619Y00138189*
X00455721Y00138288*
X00455816Y00138393*
X00455903Y00138505*
X00455983Y00138623*
X00456053Y00138745*
X00456116Y00138873*
X00456169Y00139004*
X00456213Y00139139*
X00456247Y00139277*
X00456272Y00139417*
X00456286Y00139558*
X00456291Y00139700*
X00481691D02*
D01*
X00481686Y00139841*
X00481672Y00139982*
X00481647Y00140122*
X00481613Y00140260*
X00481569Y00140394*
X00481516Y00140526*
X00481453Y00140653*
X00481383Y00140776*
X00481303Y00140894*
X00481216Y00141006*
X00481121Y00141111*
X00481019Y00141210*
X00480910Y00141301*
X00480796Y00141384*
X00480675Y00141459*
X00480550Y00141526*
X00480421Y00141583*
X00480287Y00141632*
X00480151Y00141671*
X00480012Y00141701*
X00479872Y00141720*
X00479730Y00141730*
X00479589*
X00479447Y00141720*
X00479307Y00141701*
X00479168Y00141671*
X00479032Y00141632*
X00478898Y00141583*
X00478769Y00141526*
X00478643Y00141459*
X00478523Y00141384*
X00478408Y00141301*
X00478300Y00141210*
X00478198Y00141111*
X00478103Y00141006*
X00478016Y00140894*
X00477936Y00140776*
X00477865Y00140653*
X00477803Y00140526*
X00477750Y00140394*
X00477706Y00140260*
X00477672Y00140122*
X00477647Y00139982*
X00477632Y00139841*
X00477627Y00139700*
X00477632Y00139558*
X00477647Y00139417*
X00477672Y00139277*
X00477706Y00139139*
X00477750Y00139004*
X00477803Y00138873*
X00477865Y00138745*
X00477936Y00138623*
X00478016Y00138505*
X00478103Y00138393*
X00478198Y00138288*
X00478300Y00138189*
X00478408Y00138098*
X00478523Y00138015*
X00478643Y00137940*
X00478769Y00137873*
X00478898Y00137815*
X00479032Y00137767*
X00479168Y00137728*
X00479307Y00137698*
X00479447Y00137678*
X00479589Y00137669*
X00479730*
X00479872Y00137678*
X00480012Y00137698*
X00480151Y00137728*
X00480287Y00137767*
X00480421Y00137815*
X00480550Y00137873*
X00480675Y00137940*
X00480796Y00138015*
X00480910Y00138098*
X00481019Y00138189*
X00481121Y00138288*
X00481216Y00138393*
X00481303Y00138505*
X00481383Y00138623*
X00481453Y00138745*
X00481516Y00138873*
X00481569Y00139004*
X00481613Y00139139*
X00481647Y00139277*
X00481672Y00139417*
X00481686Y00139558*
X00481691Y00139700*
X00507091D02*
D01*
X00507086Y00139841*
X00507072Y00139982*
X00507047Y00140122*
X00507013Y00140260*
X00506969Y00140394*
X00506916Y00140526*
X00506853Y00140653*
X00506783Y00140776*
X00506703Y00140894*
X00506616Y00141006*
X00506521Y00141111*
X00506419Y00141210*
X00506310Y00141301*
X00506196Y00141384*
X00506075Y00141459*
X00505950Y00141526*
X00505821Y00141583*
X00505687Y00141632*
X00505551Y00141671*
X00505412Y00141701*
X00505272Y00141720*
X00505130Y00141730*
X00504989*
X00504847Y00141720*
X00504707Y00141701*
X00504568Y00141671*
X00504432Y00141632*
X00504298Y00141583*
X00504169Y00141526*
X00504043Y00141459*
X00503923Y00141384*
X00503808Y00141301*
X00503700Y00141210*
X00503598Y00141111*
X00503503Y00141006*
X00503416Y00140894*
X00503336Y00140776*
X00503265Y00140653*
X00503203Y00140526*
X00503150Y00140394*
X00503106Y00140260*
X00503072Y00140122*
X00503047Y00139982*
X00503032Y00139841*
X00503027Y00139700*
X00503032Y00139558*
X00503047Y00139417*
X00503072Y00139277*
X00503106Y00139139*
X00503150Y00139004*
X00503203Y00138873*
X00503265Y00138745*
X00503336Y00138623*
X00503416Y00138505*
X00503503Y00138393*
X00503598Y00138288*
X00503700Y00138189*
X00503808Y00138098*
X00503923Y00138015*
X00504043Y00137940*
X00504169Y00137873*
X00504298Y00137815*
X00504432Y00137767*
X00504568Y00137728*
X00504707Y00137698*
X00504847Y00137678*
X00504989Y00137669*
X00505130*
X00505272Y00137678*
X00505412Y00137698*
X00505551Y00137728*
X00505687Y00137767*
X00505821Y00137815*
X00505950Y00137873*
X00506075Y00137940*
X00506196Y00138015*
X00506310Y00138098*
X00506419Y00138189*
X00506521Y00138288*
X00506616Y00138393*
X00506703Y00138505*
X00506783Y00138623*
X00506853Y00138745*
X00506916Y00138873*
X00506969Y00139004*
X00507013Y00139139*
X00507047Y00139277*
X00507072Y00139417*
X00507086Y00139558*
X00507091Y00139700*
X00253091D02*
D01*
X00253086Y00139841*
X00253072Y00139982*
X00253047Y00140122*
X00253013Y00140260*
X00252969Y00140394*
X00252916Y00140526*
X00252853Y00140653*
X00252783Y00140776*
X00252703Y00140894*
X00252616Y00141006*
X00252521Y00141111*
X00252419Y00141210*
X00252310Y00141301*
X00252196Y00141384*
X00252075Y00141459*
X00251950Y00141526*
X00251821Y00141583*
X00251687Y00141632*
X00251551Y00141671*
X00251412Y00141701*
X00251272Y00141720*
X00251130Y00141730*
X00250989*
X00250847Y00141720*
X00250707Y00141701*
X00250568Y00141671*
X00250432Y00141632*
X00250298Y00141583*
X00250169Y00141526*
X00250043Y00141459*
X00249923Y00141384*
X00249808Y00141301*
X00249700Y00141210*
X00249598Y00141111*
X00249503Y00141006*
X00249416Y00140894*
X00249336Y00140776*
X00249265Y00140653*
X00249203Y00140526*
X00249150Y00140394*
X00249106Y00140260*
X00249072Y00140122*
X00249047Y00139982*
X00249032Y00139841*
X00249027Y00139700*
X00249032Y00139558*
X00249047Y00139417*
X00249072Y00139277*
X00249106Y00139139*
X00249150Y00139004*
X00249203Y00138873*
X00249265Y00138745*
X00249336Y00138623*
X00249416Y00138505*
X00249503Y00138393*
X00249598Y00138288*
X00249700Y00138189*
X00249808Y00138098*
X00249923Y00138015*
X00250043Y00137940*
X00250169Y00137873*
X00250298Y00137815*
X00250432Y00137767*
X00250568Y00137728*
X00250707Y00137698*
X00250847Y00137678*
X00250989Y00137669*
X00251130*
X00251272Y00137678*
X00251412Y00137698*
X00251551Y00137728*
X00251687Y00137767*
X00251821Y00137815*
X00251950Y00137873*
X00252075Y00137940*
X00252196Y00138015*
X00252310Y00138098*
X00252419Y00138189*
X00252521Y00138288*
X00252616Y00138393*
X00252703Y00138505*
X00252783Y00138623*
X00252853Y00138745*
X00252916Y00138873*
X00252969Y00139004*
X00253013Y00139139*
X00253047Y00139277*
X00253072Y00139417*
X00253086Y00139558*
X00253091Y00139700*
X00227691D02*
D01*
X00227686Y00139841*
X00227672Y00139982*
X00227647Y00140122*
X00227613Y00140260*
X00227569Y00140394*
X00227516Y00140526*
X00227453Y00140653*
X00227383Y00140776*
X00227303Y00140894*
X00227216Y00141006*
X00227121Y00141111*
X00227019Y00141210*
X00226910Y00141301*
X00226796Y00141384*
X00226675Y00141459*
X00226550Y00141526*
X00226421Y00141583*
X00226287Y00141632*
X00226151Y00141671*
X00226012Y00141701*
X00225872Y00141720*
X00225730Y00141730*
X00225589*
X00225447Y00141720*
X00225307Y00141701*
X00225168Y00141671*
X00225032Y00141632*
X00224898Y00141583*
X00224769Y00141526*
X00224643Y00141459*
X00224523Y00141384*
X00224408Y00141301*
X00224300Y00141210*
X00224198Y00141111*
X00224103Y00141006*
X00224016Y00140894*
X00223936Y00140776*
X00223865Y00140653*
X00223803Y00140526*
X00223750Y00140394*
X00223706Y00140260*
X00223672Y00140122*
X00223647Y00139982*
X00223632Y00139841*
X00223627Y00139700*
X00223632Y00139558*
X00223647Y00139417*
X00223672Y00139277*
X00223706Y00139139*
X00223750Y00139004*
X00223803Y00138873*
X00223865Y00138745*
X00223936Y00138623*
X00224016Y00138505*
X00224103Y00138393*
X00224198Y00138288*
X00224300Y00138189*
X00224408Y00138098*
X00224523Y00138015*
X00224643Y00137940*
X00224769Y00137873*
X00224898Y00137815*
X00225032Y00137767*
X00225168Y00137728*
X00225307Y00137698*
X00225447Y00137678*
X00225589Y00137669*
X00225730*
X00225872Y00137678*
X00226012Y00137698*
X00226151Y00137728*
X00226287Y00137767*
X00226421Y00137815*
X00226550Y00137873*
X00226675Y00137940*
X00226796Y00138015*
X00226910Y00138098*
X00227019Y00138189*
X00227121Y00138288*
X00227216Y00138393*
X00227303Y00138505*
X00227383Y00138623*
X00227453Y00138745*
X00227516Y00138873*
X00227569Y00139004*
X00227613Y00139139*
X00227647Y00139277*
X00227672Y00139417*
X00227686Y00139558*
X00227691Y00139700*
X00202291D02*
D01*
X00202286Y00139841*
X00202272Y00139982*
X00202247Y00140122*
X00202213Y00140260*
X00202169Y00140394*
X00202116Y00140526*
X00202053Y00140653*
X00201983Y00140776*
X00201903Y00140894*
X00201816Y00141006*
X00201721Y00141111*
X00201619Y00141210*
X00201510Y00141301*
X00201396Y00141384*
X00201275Y00141459*
X00201150Y00141526*
X00201021Y00141583*
X00200887Y00141632*
X00200751Y00141671*
X00200612Y00141701*
X00200472Y00141720*
X00200330Y00141730*
X00200189*
X00200047Y00141720*
X00199907Y00141701*
X00199768Y00141671*
X00199632Y00141632*
X00199498Y00141583*
X00199369Y00141526*
X00199243Y00141459*
X00199123Y00141384*
X00199008Y00141301*
X00198900Y00141210*
X00198798Y00141111*
X00198703Y00141006*
X00198616Y00140894*
X00198536Y00140776*
X00198465Y00140653*
X00198403Y00140526*
X00198350Y00140394*
X00198306Y00140260*
X00198272Y00140122*
X00198247Y00139982*
X00198232Y00139841*
X00198227Y00139700*
X00198232Y00139558*
X00198247Y00139417*
X00198272Y00139277*
X00198306Y00139139*
X00198350Y00139004*
X00198403Y00138873*
X00198465Y00138745*
X00198536Y00138623*
X00198616Y00138505*
X00198703Y00138393*
X00198798Y00138288*
X00198900Y00138189*
X00199008Y00138098*
X00199123Y00138015*
X00199243Y00137940*
X00199369Y00137873*
X00199498Y00137815*
X00199632Y00137767*
X00199768Y00137728*
X00199907Y00137698*
X00200047Y00137678*
X00200189Y00137669*
X00200330*
X00200472Y00137678*
X00200612Y00137698*
X00200751Y00137728*
X00200887Y00137767*
X00201021Y00137815*
X00201150Y00137873*
X00201275Y00137940*
X00201396Y00138015*
X00201510Y00138098*
X00201619Y00138189*
X00201721Y00138288*
X00201816Y00138393*
X00201903Y00138505*
X00201983Y00138623*
X00202053Y00138745*
X00202116Y00138873*
X00202169Y00139004*
X00202213Y00139139*
X00202247Y00139277*
X00202272Y00139417*
X00202286Y00139558*
X00202291Y00139700*
X00176891D02*
D01*
X00176886Y00139841*
X00176872Y00139982*
X00176847Y00140122*
X00176813Y00140260*
X00176769Y00140394*
X00176716Y00140526*
X00176653Y00140653*
X00176583Y00140776*
X00176503Y00140894*
X00176416Y00141006*
X00176321Y00141111*
X00176219Y00141210*
X00176110Y00141301*
X00175996Y00141384*
X00175875Y00141459*
X00175750Y00141526*
X00175621Y00141583*
X00175487Y00141632*
X00175351Y00141671*
X00175212Y00141701*
X00175072Y00141720*
X00174930Y00141730*
X00174789*
X00174647Y00141720*
X00174507Y00141701*
X00174368Y00141671*
X00174232Y00141632*
X00174098Y00141583*
X00173969Y00141526*
X00173843Y00141459*
X00173723Y00141384*
X00173608Y00141301*
X00173500Y00141210*
X00173398Y00141111*
X00173303Y00141006*
X00173216Y00140894*
X00173136Y00140776*
X00173065Y00140653*
X00173003Y00140526*
X00172950Y00140394*
X00172906Y00140260*
X00172872Y00140122*
X00172847Y00139982*
X00172832Y00139841*
X00172827Y00139700*
X00172832Y00139558*
X00172847Y00139417*
X00172872Y00139277*
X00172906Y00139139*
X00172950Y00139004*
X00173003Y00138873*
X00173065Y00138745*
X00173136Y00138623*
X00173216Y00138505*
X00173303Y00138393*
X00173398Y00138288*
X00173500Y00138189*
X00173608Y00138098*
X00173723Y00138015*
X00173843Y00137940*
X00173969Y00137873*
X00174098Y00137815*
X00174232Y00137767*
X00174368Y00137728*
X00174507Y00137698*
X00174647Y00137678*
X00174789Y00137669*
X00174930*
X00175072Y00137678*
X00175212Y00137698*
X00175351Y00137728*
X00175487Y00137767*
X00175621Y00137815*
X00175750Y00137873*
X00175875Y00137940*
X00175996Y00138015*
X00176110Y00138098*
X00176219Y00138189*
X00176321Y00138288*
X00176416Y00138393*
X00176503Y00138505*
X00176583Y00138623*
X00176653Y00138745*
X00176716Y00138873*
X00176769Y00139004*
X00176813Y00139139*
X00176847Y00139277*
X00176872Y00139417*
X00176886Y00139558*
X00176891Y00139700*
X00278491D02*
D01*
X00278486Y00139841*
X00278472Y00139982*
X00278447Y00140122*
X00278413Y00140260*
X00278369Y00140394*
X00278316Y00140526*
X00278253Y00140653*
X00278183Y00140776*
X00278103Y00140894*
X00278016Y00141006*
X00277921Y00141111*
X00277819Y00141210*
X00277710Y00141301*
X00277596Y00141384*
X00277475Y00141459*
X00277350Y00141526*
X00277221Y00141583*
X00277087Y00141632*
X00276951Y00141671*
X00276812Y00141701*
X00276672Y00141720*
X00276530Y00141730*
X00276389*
X00276247Y00141720*
X00276107Y00141701*
X00275968Y00141671*
X00275832Y00141632*
X00275698Y00141583*
X00275569Y00141526*
X00275443Y00141459*
X00275323Y00141384*
X00275208Y00141301*
X00275100Y00141210*
X00274998Y00141111*
X00274903Y00141006*
X00274816Y00140894*
X00274736Y00140776*
X00274665Y00140653*
X00274603Y00140526*
X00274550Y00140394*
X00274506Y00140260*
X00274472Y00140122*
X00274447Y00139982*
X00274432Y00139841*
X00274427Y00139700*
X00274432Y00139558*
X00274447Y00139417*
X00274472Y00139277*
X00274506Y00139139*
X00274550Y00139004*
X00274603Y00138873*
X00274665Y00138745*
X00274736Y00138623*
X00274816Y00138505*
X00274903Y00138393*
X00274998Y00138288*
X00275100Y00138189*
X00275208Y00138098*
X00275323Y00138015*
X00275443Y00137940*
X00275569Y00137873*
X00275698Y00137815*
X00275832Y00137767*
X00275968Y00137728*
X00276107Y00137698*
X00276247Y00137678*
X00276389Y00137669*
X00276530*
X00276672Y00137678*
X00276812Y00137698*
X00276951Y00137728*
X00277087Y00137767*
X00277221Y00137815*
X00277350Y00137873*
X00277475Y00137940*
X00277596Y00138015*
X00277710Y00138098*
X00277819Y00138189*
X00277921Y00138288*
X00278016Y00138393*
X00278103Y00138505*
X00278183Y00138623*
X00278253Y00138745*
X00278316Y00138873*
X00278369Y00139004*
X00278413Y00139139*
X00278447Y00139277*
X00278472Y00139417*
X00278486Y00139558*
X00278491Y00139700*
X00303891D02*
D01*
X00303886Y00139841*
X00303872Y00139982*
X00303847Y00140122*
X00303813Y00140260*
X00303769Y00140394*
X00303716Y00140526*
X00303653Y00140653*
X00303583Y00140776*
X00303503Y00140894*
X00303416Y00141006*
X00303321Y00141111*
X00303219Y00141210*
X00303110Y00141301*
X00302996Y00141384*
X00302875Y00141459*
X00302750Y00141526*
X00302621Y00141583*
X00302487Y00141632*
X00302351Y00141671*
X00302212Y00141701*
X00302072Y00141720*
X00301930Y00141730*
X00301789*
X00301647Y00141720*
X00301507Y00141701*
X00301368Y00141671*
X00301232Y00141632*
X00301098Y00141583*
X00300969Y00141526*
X00300843Y00141459*
X00300723Y00141384*
X00300608Y00141301*
X00300500Y00141210*
X00300398Y00141111*
X00300303Y00141006*
X00300216Y00140894*
X00300136Y00140776*
X00300065Y00140653*
X00300003Y00140526*
X00299950Y00140394*
X00299906Y00140260*
X00299872Y00140122*
X00299847Y00139982*
X00299832Y00139841*
X00299827Y00139700*
X00299832Y00139558*
X00299847Y00139417*
X00299872Y00139277*
X00299906Y00139139*
X00299950Y00139004*
X00300003Y00138873*
X00300065Y00138745*
X00300136Y00138623*
X00300216Y00138505*
X00300303Y00138393*
X00300398Y00138288*
X00300500Y00138189*
X00300608Y00138098*
X00300723Y00138015*
X00300843Y00137940*
X00300969Y00137873*
X00301098Y00137815*
X00301232Y00137767*
X00301368Y00137728*
X00301507Y00137698*
X00301647Y00137678*
X00301789Y00137669*
X00301930*
X00302072Y00137678*
X00302212Y00137698*
X00302351Y00137728*
X00302487Y00137767*
X00302621Y00137815*
X00302750Y00137873*
X00302875Y00137940*
X00302996Y00138015*
X00303110Y00138098*
X00303219Y00138189*
X00303321Y00138288*
X00303416Y00138393*
X00303503Y00138505*
X00303583Y00138623*
X00303653Y00138745*
X00303716Y00138873*
X00303769Y00139004*
X00303813Y00139139*
X00303847Y00139277*
X00303872Y00139417*
X00303886Y00139558*
X00303891Y00139700*
X00329291D02*
D01*
X00329286Y00139841*
X00329272Y00139982*
X00329247Y00140122*
X00329213Y00140260*
X00329169Y00140394*
X00329116Y00140526*
X00329053Y00140653*
X00328983Y00140776*
X00328903Y00140894*
X00328816Y00141006*
X00328721Y00141111*
X00328619Y00141210*
X00328510Y00141301*
X00328396Y00141384*
X00328275Y00141459*
X00328150Y00141526*
X00328021Y00141583*
X00327887Y00141632*
X00327751Y00141671*
X00327612Y00141701*
X00327472Y00141720*
X00327330Y00141730*
X00327189*
X00327047Y00141720*
X00326907Y00141701*
X00326768Y00141671*
X00326632Y00141632*
X00326498Y00141583*
X00326369Y00141526*
X00326243Y00141459*
X00326123Y00141384*
X00326008Y00141301*
X00325900Y00141210*
X00325798Y00141111*
X00325703Y00141006*
X00325616Y00140894*
X00325536Y00140776*
X00325465Y00140653*
X00325403Y00140526*
X00325350Y00140394*
X00325306Y00140260*
X00325272Y00140122*
X00325247Y00139982*
X00325232Y00139841*
X00325227Y00139700*
X00325232Y00139558*
X00325247Y00139417*
X00325272Y00139277*
X00325306Y00139139*
X00325350Y00139004*
X00325403Y00138873*
X00325465Y00138745*
X00325536Y00138623*
X00325616Y00138505*
X00325703Y00138393*
X00325798Y00138288*
X00325900Y00138189*
X00326008Y00138098*
X00326123Y00138015*
X00326243Y00137940*
X00326369Y00137873*
X00326498Y00137815*
X00326632Y00137767*
X00326768Y00137728*
X00326907Y00137698*
X00327047Y00137678*
X00327189Y00137669*
X00327330*
X00327472Y00137678*
X00327612Y00137698*
X00327751Y00137728*
X00327887Y00137767*
X00328021Y00137815*
X00328150Y00137873*
X00328275Y00137940*
X00328396Y00138015*
X00328510Y00138098*
X00328619Y00138189*
X00328721Y00138288*
X00328816Y00138393*
X00328903Y00138505*
X00328983Y00138623*
X00329053Y00138745*
X00329116Y00138873*
X00329169Y00139004*
X00329213Y00139139*
X00329247Y00139277*
X00329272Y00139417*
X00329286Y00139558*
X00329291Y00139700*
X00354691D02*
D01*
X00354686Y00139841*
X00354672Y00139982*
X00354647Y00140122*
X00354613Y00140260*
X00354569Y00140394*
X00354516Y00140526*
X00354453Y00140653*
X00354383Y00140776*
X00354303Y00140894*
X00354216Y00141006*
X00354121Y00141111*
X00354019Y00141210*
X00353910Y00141301*
X00353796Y00141384*
X00353675Y00141459*
X00353550Y00141526*
X00353421Y00141583*
X00353287Y00141632*
X00353151Y00141671*
X00353012Y00141701*
X00352872Y00141720*
X00352730Y00141730*
X00352589*
X00352447Y00141720*
X00352307Y00141701*
X00352168Y00141671*
X00352032Y00141632*
X00351898Y00141583*
X00351769Y00141526*
X00351643Y00141459*
X00351523Y00141384*
X00351408Y00141301*
X00351300Y00141210*
X00351198Y00141111*
X00351103Y00141006*
X00351016Y00140894*
X00350936Y00140776*
X00350865Y00140653*
X00350803Y00140526*
X00350750Y00140394*
X00350706Y00140260*
X00350672Y00140122*
X00350647Y00139982*
X00350632Y00139841*
X00350627Y00139700*
X00350632Y00139558*
X00350647Y00139417*
X00350672Y00139277*
X00350706Y00139139*
X00350750Y00139004*
X00350803Y00138873*
X00350865Y00138745*
X00350936Y00138623*
X00351016Y00138505*
X00351103Y00138393*
X00351198Y00138288*
X00351300Y00138189*
X00351408Y00138098*
X00351523Y00138015*
X00351643Y00137940*
X00351769Y00137873*
X00351898Y00137815*
X00352032Y00137767*
X00352168Y00137728*
X00352307Y00137698*
X00352447Y00137678*
X00352589Y00137669*
X00352730*
X00352872Y00137678*
X00353012Y00137698*
X00353151Y00137728*
X00353287Y00137767*
X00353421Y00137815*
X00353550Y00137873*
X00353675Y00137940*
X00353796Y00138015*
X00353910Y00138098*
X00354019Y00138189*
X00354121Y00138288*
X00354216Y00138393*
X00354303Y00138505*
X00354383Y00138623*
X00354453Y00138745*
X00354516Y00138873*
X00354569Y00139004*
X00354613Y00139139*
X00354647Y00139277*
X00354672Y00139417*
X00354686Y00139558*
X00354691Y00139700*
X00507091Y00454660D02*
D01*
X00507086Y00454801*
X00507072Y00454942*
X00507047Y00455082*
X00507013Y00455220*
X00506969Y00455354*
X00506916Y00455486*
X00506853Y00455613*
X00506783Y00455736*
X00506703Y00455854*
X00506616Y00455966*
X00506521Y00456071*
X00506419Y00456170*
X00506310Y00456261*
X00506196Y00456344*
X00506075Y00456419*
X00505950Y00456486*
X00505821Y00456543*
X00505687Y00456592*
X00505551Y00456631*
X00505412Y00456661*
X00505272Y00456680*
X00505130Y00456690*
X00504989*
X00504847Y00456680*
X00504707Y00456661*
X00504568Y00456631*
X00504432Y00456592*
X00504298Y00456543*
X00504169Y00456486*
X00504043Y00456419*
X00503923Y00456344*
X00503808Y00456261*
X00503700Y00456170*
X00503598Y00456071*
X00503503Y00455966*
X00503416Y00455854*
X00503336Y00455736*
X00503265Y00455613*
X00503203Y00455486*
X00503150Y00455354*
X00503106Y00455220*
X00503072Y00455082*
X00503047Y00454942*
X00503032Y00454801*
X00503027Y00454660*
X00503032Y00454518*
X00503047Y00454377*
X00503072Y00454237*
X00503106Y00454099*
X00503150Y00453964*
X00503203Y00453833*
X00503265Y00453705*
X00503336Y00453583*
X00503416Y00453465*
X00503503Y00453353*
X00503598Y00453248*
X00503700Y00453149*
X00503808Y00453058*
X00503923Y00452975*
X00504043Y00452900*
X00504169Y00452833*
X00504298Y00452775*
X00504432Y00452727*
X00504568Y00452688*
X00504707Y00452658*
X00504847Y00452638*
X00504989Y00452629*
X00505130*
X00505272Y00452638*
X00505412Y00452658*
X00505551Y00452688*
X00505687Y00452727*
X00505821Y00452775*
X00505950Y00452833*
X00506075Y00452900*
X00506196Y00452975*
X00506310Y00453058*
X00506419Y00453149*
X00506521Y00453248*
X00506616Y00453353*
X00506703Y00453465*
X00506783Y00453583*
X00506853Y00453705*
X00506916Y00453833*
X00506969Y00453964*
X00507013Y00454099*
X00507047Y00454237*
X00507072Y00454377*
X00507086Y00454518*
X00507091Y00454660*
X00278892D02*
D01*
X00278886Y00454801*
X00278872Y00454942*
X00278847Y00455082*
X00278813Y00455220*
X00278769Y00455354*
X00278716Y00455486*
X00278654Y00455613*
X00278583Y00455736*
X00278503Y00455854*
X00278416Y00455966*
X00278321Y00456071*
X00278219Y00456170*
X00278110Y00456261*
X00277996Y00456344*
X00277876Y00456419*
X00277750Y00456486*
X00277620Y00456543*
X00277487Y00456592*
X00277351Y00456631*
X00277212Y00456661*
X00277072Y00456680*
X00276930Y00456690*
X00276788*
X00276647Y00456680*
X00276506Y00456661*
X00276368Y00456631*
X00276231Y00456592*
X00276098Y00456543*
X00275969Y00456486*
X00275844Y00456419*
X00275723Y00456344*
X00275608Y00456261*
X00275500Y00456170*
X00275398Y00456071*
X00275303Y00455966*
X00275215Y00455854*
X00275136Y00455736*
X00275065Y00455613*
X00275003Y00455486*
X00274950Y00455354*
X00274906Y00455220*
X00274872Y00455082*
X00274847Y00454942*
X00274832Y00454801*
X00274828Y00454660*
X00274832Y00454518*
X00274847Y00454377*
X00274872Y00454237*
X00274906Y00454099*
X00274950Y00453964*
X00275003Y00453833*
X00275065Y00453705*
X00275136Y00453583*
X00275215Y00453465*
X00275303Y00453353*
X00275398Y00453248*
X00275500Y00453149*
X00275608Y00453058*
X00275723Y00452975*
X00275844Y00452900*
X00275969Y00452833*
X00276098Y00452775*
X00276231Y00452727*
X00276368Y00452688*
X00276506Y00452658*
X00276647Y00452638*
X00276788Y00452629*
X00276930*
X00277072Y00452638*
X00277212Y00452658*
X00277351Y00452688*
X00277487Y00452727*
X00277620Y00452775*
X00277750Y00452833*
X00277876Y00452900*
X00277996Y00452975*
X00278110Y00453058*
X00278219Y00453149*
X00278321Y00453248*
X00278416Y00453353*
X00278503Y00453465*
X00278583Y00453583*
X00278654Y00453705*
X00278716Y00453833*
X00278769Y00453964*
X00278813Y00454099*
X00278847Y00454237*
X00278872Y00454377*
X00278886Y00454518*
X00278892Y00454660*
X00253492D02*
D01*
X00253486Y00454801*
X00253472Y00454942*
X00253447Y00455082*
X00253413Y00455220*
X00253369Y00455354*
X00253316Y00455486*
X00253254Y00455613*
X00253183Y00455736*
X00253103Y00455854*
X00253016Y00455966*
X00252921Y00456071*
X00252819Y00456170*
X00252710Y00456261*
X00252596Y00456344*
X00252476Y00456419*
X00252350Y00456486*
X00252220Y00456543*
X00252087Y00456592*
X00251951Y00456631*
X00251812Y00456661*
X00251672Y00456680*
X00251530Y00456690*
X00251388*
X00251247Y00456680*
X00251106Y00456661*
X00250968Y00456631*
X00250831Y00456592*
X00250698Y00456543*
X00250569Y00456486*
X00250444Y00456419*
X00250323Y00456344*
X00250208Y00456261*
X00250100Y00456170*
X00249998Y00456071*
X00249903Y00455966*
X00249815Y00455854*
X00249736Y00455736*
X00249665Y00455613*
X00249603Y00455486*
X00249550Y00455354*
X00249506Y00455220*
X00249472Y00455082*
X00249447Y00454942*
X00249432Y00454801*
X00249428Y00454660*
X00249432Y00454518*
X00249447Y00454377*
X00249472Y00454237*
X00249506Y00454099*
X00249550Y00453964*
X00249603Y00453833*
X00249665Y00453705*
X00249736Y00453583*
X00249815Y00453465*
X00249903Y00453353*
X00249998Y00453248*
X00250100Y00453149*
X00250208Y00453058*
X00250323Y00452975*
X00250444Y00452900*
X00250569Y00452833*
X00250698Y00452775*
X00250831Y00452727*
X00250968Y00452688*
X00251106Y00452658*
X00251247Y00452638*
X00251388Y00452629*
X00251530*
X00251672Y00452638*
X00251812Y00452658*
X00251951Y00452688*
X00252087Y00452727*
X00252220Y00452775*
X00252350Y00452833*
X00252476Y00452900*
X00252596Y00452975*
X00252710Y00453058*
X00252819Y00453149*
X00252921Y00453248*
X00253016Y00453353*
X00253103Y00453465*
X00253183Y00453583*
X00253254Y00453705*
X00253316Y00453833*
X00253369Y00453964*
X00253413Y00454099*
X00253447Y00454237*
X00253472Y00454377*
X00253486Y00454518*
X00253492Y00454660*
X00228092D02*
D01*
X00228086Y00454801*
X00228072Y00454942*
X00228047Y00455082*
X00228013Y00455220*
X00227969Y00455354*
X00227916Y00455486*
X00227854Y00455613*
X00227783Y00455736*
X00227703Y00455854*
X00227616Y00455966*
X00227521Y00456071*
X00227419Y00456170*
X00227310Y00456261*
X00227196Y00456344*
X00227076Y00456419*
X00226950Y00456486*
X00226820Y00456543*
X00226687Y00456592*
X00226551Y00456631*
X00226412Y00456661*
X00226272Y00456680*
X00226130Y00456690*
X00225988*
X00225847Y00456680*
X00225706Y00456661*
X00225568Y00456631*
X00225431Y00456592*
X00225298Y00456543*
X00225169Y00456486*
X00225044Y00456419*
X00224923Y00456344*
X00224808Y00456261*
X00224700Y00456170*
X00224598Y00456071*
X00224503Y00455966*
X00224415Y00455854*
X00224336Y00455736*
X00224265Y00455613*
X00224203Y00455486*
X00224150Y00455354*
X00224106Y00455220*
X00224072Y00455082*
X00224047Y00454942*
X00224032Y00454801*
X00224028Y00454660*
X00224032Y00454518*
X00224047Y00454377*
X00224072Y00454237*
X00224106Y00454099*
X00224150Y00453964*
X00224203Y00453833*
X00224265Y00453705*
X00224336Y00453583*
X00224415Y00453465*
X00224503Y00453353*
X00224598Y00453248*
X00224700Y00453149*
X00224808Y00453058*
X00224923Y00452975*
X00225044Y00452900*
X00225169Y00452833*
X00225298Y00452775*
X00225431Y00452727*
X00225568Y00452688*
X00225706Y00452658*
X00225847Y00452638*
X00225988Y00452629*
X00226130*
X00226272Y00452638*
X00226412Y00452658*
X00226551Y00452688*
X00226687Y00452727*
X00226820Y00452775*
X00226950Y00452833*
X00227076Y00452900*
X00227196Y00452975*
X00227310Y00453058*
X00227419Y00453149*
X00227521Y00453248*
X00227616Y00453353*
X00227703Y00453465*
X00227783Y00453583*
X00227854Y00453705*
X00227916Y00453833*
X00227969Y00453964*
X00228013Y00454099*
X00228047Y00454237*
X00228072Y00454377*
X00228086Y00454518*
X00228092Y00454660*
X00202692D02*
D01*
X00202686Y00454801*
X00202672Y00454942*
X00202647Y00455082*
X00202613Y00455220*
X00202569Y00455354*
X00202516Y00455486*
X00202454Y00455613*
X00202383Y00455736*
X00202303Y00455854*
X00202216Y00455966*
X00202121Y00456071*
X00202019Y00456170*
X00201910Y00456261*
X00201796Y00456344*
X00201676Y00456419*
X00201550Y00456486*
X00201420Y00456543*
X00201287Y00456592*
X00201151Y00456631*
X00201012Y00456661*
X00200872Y00456680*
X00200730Y00456690*
X00200588*
X00200447Y00456680*
X00200306Y00456661*
X00200168Y00456631*
X00200031Y00456592*
X00199898Y00456543*
X00199769Y00456486*
X00199644Y00456419*
X00199523Y00456344*
X00199408Y00456261*
X00199300Y00456170*
X00199198Y00456071*
X00199103Y00455966*
X00199015Y00455854*
X00198936Y00455736*
X00198865Y00455613*
X00198803Y00455486*
X00198750Y00455354*
X00198706Y00455220*
X00198672Y00455082*
X00198647Y00454942*
X00198632Y00454801*
X00198628Y00454660*
X00198632Y00454518*
X00198647Y00454377*
X00198672Y00454237*
X00198706Y00454099*
X00198750Y00453964*
X00198803Y00453833*
X00198865Y00453705*
X00198936Y00453583*
X00199015Y00453465*
X00199103Y00453353*
X00199198Y00453248*
X00199300Y00453149*
X00199408Y00453058*
X00199523Y00452975*
X00199644Y00452900*
X00199769Y00452833*
X00199898Y00452775*
X00200031Y00452727*
X00200168Y00452688*
X00200306Y00452658*
X00200447Y00452638*
X00200588Y00452629*
X00200730*
X00200872Y00452638*
X00201012Y00452658*
X00201151Y00452688*
X00201287Y00452727*
X00201420Y00452775*
X00201550Y00452833*
X00201676Y00452900*
X00201796Y00452975*
X00201910Y00453058*
X00202019Y00453149*
X00202121Y00453248*
X00202216Y00453353*
X00202303Y00453465*
X00202383Y00453583*
X00202454Y00453705*
X00202516Y00453833*
X00202569Y00453964*
X00202613Y00454099*
X00202647Y00454237*
X00202672Y00454377*
X00202686Y00454518*
X00202692Y00454660*
X00177292D02*
D01*
X00177286Y00454801*
X00177272Y00454942*
X00177247Y00455082*
X00177213Y00455220*
X00177169Y00455354*
X00177116Y00455486*
X00177054Y00455613*
X00176983Y00455736*
X00176903Y00455854*
X00176816Y00455966*
X00176721Y00456071*
X00176619Y00456170*
X00176510Y00456261*
X00176396Y00456344*
X00176276Y00456419*
X00176150Y00456486*
X00176020Y00456543*
X00175887Y00456592*
X00175751Y00456631*
X00175612Y00456661*
X00175472Y00456680*
X00175330Y00456690*
X00175188*
X00175047Y00456680*
X00174906Y00456661*
X00174768Y00456631*
X00174631Y00456592*
X00174498Y00456543*
X00174369Y00456486*
X00174244Y00456419*
X00174123Y00456344*
X00174008Y00456261*
X00173900Y00456170*
X00173798Y00456071*
X00173703Y00455966*
X00173615Y00455854*
X00173536Y00455736*
X00173465Y00455613*
X00173403Y00455486*
X00173350Y00455354*
X00173306Y00455220*
X00173272Y00455082*
X00173247Y00454942*
X00173232Y00454801*
X00173228Y00454660*
X00173232Y00454518*
X00173247Y00454377*
X00173272Y00454237*
X00173306Y00454099*
X00173350Y00453964*
X00173403Y00453833*
X00173465Y00453705*
X00173536Y00453583*
X00173615Y00453465*
X00173703Y00453353*
X00173798Y00453248*
X00173900Y00453149*
X00174008Y00453058*
X00174123Y00452975*
X00174244Y00452900*
X00174369Y00452833*
X00174498Y00452775*
X00174631Y00452727*
X00174768Y00452688*
X00174906Y00452658*
X00175047Y00452638*
X00175188Y00452629*
X00175330*
X00175472Y00452638*
X00175612Y00452658*
X00175751Y00452688*
X00175887Y00452727*
X00176020Y00452775*
X00176150Y00452833*
X00176276Y00452900*
X00176396Y00452975*
X00176510Y00453058*
X00176619Y00453149*
X00176721Y00453248*
X00176816Y00453353*
X00176903Y00453465*
X00176983Y00453583*
X00177054Y00453705*
X00177116Y00453833*
X00177169Y00453964*
X00177213Y00454099*
X00177247Y00454237*
X00177272Y00454377*
X00177286Y00454518*
X00177292Y00454660*
X00151892D02*
D01*
X00151886Y00454801*
X00151872Y00454942*
X00151847Y00455082*
X00151813Y00455220*
X00151769Y00455354*
X00151716Y00455486*
X00151654Y00455613*
X00151583Y00455736*
X00151503Y00455854*
X00151416Y00455966*
X00151321Y00456071*
X00151219Y00456170*
X00151110Y00456261*
X00150996Y00456344*
X00150876Y00456419*
X00150750Y00456486*
X00150620Y00456543*
X00150487Y00456592*
X00150351Y00456631*
X00150212Y00456661*
X00150072Y00456680*
X00149930Y00456690*
X00149788*
X00149647Y00456680*
X00149506Y00456661*
X00149368Y00456631*
X00149231Y00456592*
X00149098Y00456543*
X00148969Y00456486*
X00148844Y00456419*
X00148723Y00456344*
X00148608Y00456261*
X00148500Y00456170*
X00148398Y00456071*
X00148303Y00455966*
X00148215Y00455854*
X00148136Y00455736*
X00148065Y00455613*
X00148003Y00455486*
X00147950Y00455354*
X00147906Y00455220*
X00147872Y00455082*
X00147847Y00454942*
X00147832Y00454801*
X00147828Y00454660*
X00147832Y00454518*
X00147847Y00454377*
X00147872Y00454237*
X00147906Y00454099*
X00147950Y00453964*
X00148003Y00453833*
X00148065Y00453705*
X00148136Y00453583*
X00148215Y00453465*
X00148303Y00453353*
X00148398Y00453248*
X00148500Y00453149*
X00148608Y00453058*
X00148723Y00452975*
X00148844Y00452900*
X00148969Y00452833*
X00149098Y00452775*
X00149231Y00452727*
X00149368Y00452688*
X00149506Y00452658*
X00149647Y00452638*
X00149788Y00452629*
X00149930*
X00150072Y00452638*
X00150212Y00452658*
X00150351Y00452688*
X00150487Y00452727*
X00150620Y00452775*
X00150750Y00452833*
X00150876Y00452900*
X00150996Y00452975*
X00151110Y00453058*
X00151219Y00453149*
X00151321Y00453248*
X00151416Y00453353*
X00151503Y00453465*
X00151583Y00453583*
X00151654Y00453705*
X00151716Y00453833*
X00151769Y00453964*
X00151813Y00454099*
X00151847Y00454237*
X00151872Y00454377*
X00151886Y00454518*
X00151892Y00454660*
X00405892D02*
D01*
X00405886Y00454801*
X00405872Y00454942*
X00405847Y00455082*
X00405813Y00455220*
X00405769Y00455354*
X00405716Y00455486*
X00405654Y00455613*
X00405583Y00455736*
X00405503Y00455854*
X00405416Y00455966*
X00405321Y00456071*
X00405219Y00456170*
X00405110Y00456261*
X00404996Y00456344*
X00404876Y00456419*
X00404750Y00456486*
X00404620Y00456543*
X00404487Y00456592*
X00404351Y00456631*
X00404212Y00456661*
X00404072Y00456680*
X00403930Y00456690*
X00403788*
X00403647Y00456680*
X00403506Y00456661*
X00403368Y00456631*
X00403231Y00456592*
X00403098Y00456543*
X00402969Y00456486*
X00402844Y00456419*
X00402723Y00456344*
X00402608Y00456261*
X00402500Y00456170*
X00402398Y00456071*
X00402303Y00455966*
X00402215Y00455854*
X00402136Y00455736*
X00402065Y00455613*
X00402003Y00455486*
X00401950Y00455354*
X00401906Y00455220*
X00401872Y00455082*
X00401847Y00454942*
X00401832Y00454801*
X00401828Y00454660*
X00401832Y00454518*
X00401847Y00454377*
X00401872Y00454237*
X00401906Y00454099*
X00401950Y00453964*
X00402003Y00453833*
X00402065Y00453705*
X00402136Y00453583*
X00402215Y00453465*
X00402303Y00453353*
X00402398Y00453248*
X00402500Y00453149*
X00402608Y00453058*
X00402723Y00452975*
X00402844Y00452900*
X00402969Y00452833*
X00403098Y00452775*
X00403231Y00452727*
X00403368Y00452688*
X00403506Y00452658*
X00403647Y00452638*
X00403788Y00452629*
X00403930*
X00404072Y00452638*
X00404212Y00452658*
X00404351Y00452688*
X00404487Y00452727*
X00404620Y00452775*
X00404750Y00452833*
X00404876Y00452900*
X00404996Y00452975*
X00405110Y00453058*
X00405219Y00453149*
X00405321Y00453248*
X00405416Y00453353*
X00405503Y00453465*
X00405583Y00453583*
X00405654Y00453705*
X00405716Y00453833*
X00405769Y00453964*
X00405813Y00454099*
X00405847Y00454237*
X00405872Y00454377*
X00405886Y00454518*
X00405892Y00454660*
X00431292D02*
D01*
X00431286Y00454801*
X00431272Y00454942*
X00431247Y00455082*
X00431213Y00455220*
X00431169Y00455354*
X00431116Y00455486*
X00431054Y00455613*
X00430983Y00455736*
X00430903Y00455854*
X00430816Y00455966*
X00430721Y00456071*
X00430619Y00456170*
X00430510Y00456261*
X00430396Y00456344*
X00430276Y00456419*
X00430150Y00456486*
X00430020Y00456543*
X00429887Y00456592*
X00429751Y00456631*
X00429612Y00456661*
X00429472Y00456680*
X00429330Y00456690*
X00429188*
X00429047Y00456680*
X00428906Y00456661*
X00428768Y00456631*
X00428631Y00456592*
X00428498Y00456543*
X00428369Y00456486*
X00428244Y00456419*
X00428123Y00456344*
X00428008Y00456261*
X00427900Y00456170*
X00427798Y00456071*
X00427703Y00455966*
X00427615Y00455854*
X00427536Y00455736*
X00427465Y00455613*
X00427403Y00455486*
X00427350Y00455354*
X00427306Y00455220*
X00427272Y00455082*
X00427247Y00454942*
X00427232Y00454801*
X00427228Y00454660*
X00427232Y00454518*
X00427247Y00454377*
X00427272Y00454237*
X00427306Y00454099*
X00427350Y00453964*
X00427403Y00453833*
X00427465Y00453705*
X00427536Y00453583*
X00427615Y00453465*
X00427703Y00453353*
X00427798Y00453248*
X00427900Y00453149*
X00428008Y00453058*
X00428123Y00452975*
X00428244Y00452900*
X00428369Y00452833*
X00428498Y00452775*
X00428631Y00452727*
X00428768Y00452688*
X00428906Y00452658*
X00429047Y00452638*
X00429188Y00452629*
X00429330*
X00429472Y00452638*
X00429612Y00452658*
X00429751Y00452688*
X00429887Y00452727*
X00430020Y00452775*
X00430150Y00452833*
X00430276Y00452900*
X00430396Y00452975*
X00430510Y00453058*
X00430619Y00453149*
X00430721Y00453248*
X00430816Y00453353*
X00430903Y00453465*
X00430983Y00453583*
X00431054Y00453705*
X00431116Y00453833*
X00431169Y00453964*
X00431213Y00454099*
X00431247Y00454237*
X00431272Y00454377*
X00431286Y00454518*
X00431292Y00454660*
X00456692D02*
D01*
X00456686Y00454801*
X00456672Y00454942*
X00456647Y00455082*
X00456613Y00455220*
X00456569Y00455354*
X00456516Y00455486*
X00456454Y00455613*
X00456383Y00455736*
X00456303Y00455854*
X00456216Y00455966*
X00456121Y00456071*
X00456019Y00456170*
X00455910Y00456261*
X00455796Y00456344*
X00455676Y00456419*
X00455550Y00456486*
X00455420Y00456543*
X00455287Y00456592*
X00455151Y00456631*
X00455012Y00456661*
X00454872Y00456680*
X00454730Y00456690*
X00454588*
X00454447Y00456680*
X00454306Y00456661*
X00454168Y00456631*
X00454031Y00456592*
X00453898Y00456543*
X00453769Y00456486*
X00453644Y00456419*
X00453523Y00456344*
X00453408Y00456261*
X00453300Y00456170*
X00453198Y00456071*
X00453103Y00455966*
X00453015Y00455854*
X00452936Y00455736*
X00452865Y00455613*
X00452803Y00455486*
X00452750Y00455354*
X00452706Y00455220*
X00452672Y00455082*
X00452647Y00454942*
X00452632Y00454801*
X00452628Y00454660*
X00452632Y00454518*
X00452647Y00454377*
X00452672Y00454237*
X00452706Y00454099*
X00452750Y00453964*
X00452803Y00453833*
X00452865Y00453705*
X00452936Y00453583*
X00453015Y00453465*
X00453103Y00453353*
X00453198Y00453248*
X00453300Y00453149*
X00453408Y00453058*
X00453523Y00452975*
X00453644Y00452900*
X00453769Y00452833*
X00453898Y00452775*
X00454031Y00452727*
X00454168Y00452688*
X00454306Y00452658*
X00454447Y00452638*
X00454588Y00452629*
X00454730*
X00454872Y00452638*
X00455012Y00452658*
X00455151Y00452688*
X00455287Y00452727*
X00455420Y00452775*
X00455550Y00452833*
X00455676Y00452900*
X00455796Y00452975*
X00455910Y00453058*
X00456019Y00453149*
X00456121Y00453248*
X00456216Y00453353*
X00456303Y00453465*
X00456383Y00453583*
X00456454Y00453705*
X00456516Y00453833*
X00456569Y00453964*
X00456613Y00454099*
X00456647Y00454237*
X00456672Y00454377*
X00456686Y00454518*
X00456692Y00454660*
X00482092D02*
D01*
X00482086Y00454801*
X00482072Y00454942*
X00482047Y00455082*
X00482013Y00455220*
X00481969Y00455354*
X00481916Y00455486*
X00481854Y00455613*
X00481783Y00455736*
X00481703Y00455854*
X00481616Y00455966*
X00481521Y00456071*
X00481419Y00456170*
X00481310Y00456261*
X00481196Y00456344*
X00481076Y00456419*
X00480950Y00456486*
X00480820Y00456543*
X00480687Y00456592*
X00480551Y00456631*
X00480412Y00456661*
X00480272Y00456680*
X00480130Y00456690*
X00479988*
X00479847Y00456680*
X00479706Y00456661*
X00479568Y00456631*
X00479431Y00456592*
X00479298Y00456543*
X00479169Y00456486*
X00479044Y00456419*
X00478923Y00456344*
X00478808Y00456261*
X00478700Y00456170*
X00478598Y00456071*
X00478503Y00455966*
X00478415Y00455854*
X00478336Y00455736*
X00478265Y00455613*
X00478203Y00455486*
X00478150Y00455354*
X00478106Y00455220*
X00478072Y00455082*
X00478047Y00454942*
X00478032Y00454801*
X00478028Y00454660*
X00478032Y00454518*
X00478047Y00454377*
X00478072Y00454237*
X00478106Y00454099*
X00478150Y00453964*
X00478203Y00453833*
X00478265Y00453705*
X00478336Y00453583*
X00478415Y00453465*
X00478503Y00453353*
X00478598Y00453248*
X00478700Y00453149*
X00478808Y00453058*
X00478923Y00452975*
X00479044Y00452900*
X00479169Y00452833*
X00479298Y00452775*
X00479431Y00452727*
X00479568Y00452688*
X00479706Y00452658*
X00479847Y00452638*
X00479988Y00452629*
X00480130*
X00480272Y00452638*
X00480412Y00452658*
X00480551Y00452688*
X00480687Y00452727*
X00480820Y00452775*
X00480950Y00452833*
X00481076Y00452900*
X00481196Y00452975*
X00481310Y00453058*
X00481419Y00453149*
X00481521Y00453248*
X00481616Y00453353*
X00481703Y00453465*
X00481783Y00453583*
X00481854Y00453705*
X00481916Y00453833*
X00481969Y00453964*
X00482013Y00454099*
X00482047Y00454237*
X00482072Y00454377*
X00482086Y00454518*
X00482092Y00454660*
X00380492D02*
D01*
X00380486Y00454801*
X00380472Y00454942*
X00380447Y00455082*
X00380413Y00455220*
X00380369Y00455354*
X00380316Y00455486*
X00380254Y00455613*
X00380183Y00455736*
X00380103Y00455854*
X00380016Y00455966*
X00379921Y00456071*
X00379819Y00456170*
X00379710Y00456261*
X00379596Y00456344*
X00379476Y00456419*
X00379350Y00456486*
X00379220Y00456543*
X00379087Y00456592*
X00378951Y00456631*
X00378812Y00456661*
X00378672Y00456680*
X00378530Y00456690*
X00378388*
X00378247Y00456680*
X00378106Y00456661*
X00377968Y00456631*
X00377831Y00456592*
X00377698Y00456543*
X00377569Y00456486*
X00377444Y00456419*
X00377323Y00456344*
X00377208Y00456261*
X00377100Y00456170*
X00376998Y00456071*
X00376903Y00455966*
X00376815Y00455854*
X00376736Y00455736*
X00376665Y00455613*
X00376603Y00455486*
X00376550Y00455354*
X00376506Y00455220*
X00376472Y00455082*
X00376447Y00454942*
X00376432Y00454801*
X00376428Y00454660*
X00376432Y00454518*
X00376447Y00454377*
X00376472Y00454237*
X00376506Y00454099*
X00376550Y00453964*
X00376603Y00453833*
X00376665Y00453705*
X00376736Y00453583*
X00376815Y00453465*
X00376903Y00453353*
X00376998Y00453248*
X00377100Y00453149*
X00377208Y00453058*
X00377323Y00452975*
X00377444Y00452900*
X00377569Y00452833*
X00377698Y00452775*
X00377831Y00452727*
X00377968Y00452688*
X00378106Y00452658*
X00378247Y00452638*
X00378388Y00452629*
X00378530*
X00378672Y00452638*
X00378812Y00452658*
X00378951Y00452688*
X00379087Y00452727*
X00379220Y00452775*
X00379350Y00452833*
X00379476Y00452900*
X00379596Y00452975*
X00379710Y00453058*
X00379819Y00453149*
X00379921Y00453248*
X00380016Y00453353*
X00380103Y00453465*
X00380183Y00453583*
X00380254Y00453705*
X00380316Y00453833*
X00380369Y00453964*
X00380413Y00454099*
X00380447Y00454237*
X00380472Y00454377*
X00380486Y00454518*
X00380492Y00454660*
X00355092D02*
D01*
X00355086Y00454801*
X00355072Y00454942*
X00355047Y00455082*
X00355013Y00455220*
X00354969Y00455354*
X00354916Y00455486*
X00354854Y00455613*
X00354783Y00455736*
X00354703Y00455854*
X00354616Y00455966*
X00354521Y00456071*
X00354419Y00456170*
X00354310Y00456261*
X00354196Y00456344*
X00354076Y00456419*
X00353950Y00456486*
X00353820Y00456543*
X00353687Y00456592*
X00353551Y00456631*
X00353412Y00456661*
X00353272Y00456680*
X00353130Y00456690*
X00352988*
X00352847Y00456680*
X00352706Y00456661*
X00352568Y00456631*
X00352431Y00456592*
X00352298Y00456543*
X00352169Y00456486*
X00352044Y00456419*
X00351923Y00456344*
X00351808Y00456261*
X00351700Y00456170*
X00351598Y00456071*
X00351503Y00455966*
X00351415Y00455854*
X00351336Y00455736*
X00351265Y00455613*
X00351203Y00455486*
X00351150Y00455354*
X00351106Y00455220*
X00351072Y00455082*
X00351047Y00454942*
X00351032Y00454801*
X00351028Y00454660*
X00351032Y00454518*
X00351047Y00454377*
X00351072Y00454237*
X00351106Y00454099*
X00351150Y00453964*
X00351203Y00453833*
X00351265Y00453705*
X00351336Y00453583*
X00351415Y00453465*
X00351503Y00453353*
X00351598Y00453248*
X00351700Y00453149*
X00351808Y00453058*
X00351923Y00452975*
X00352044Y00452900*
X00352169Y00452833*
X00352298Y00452775*
X00352431Y00452727*
X00352568Y00452688*
X00352706Y00452658*
X00352847Y00452638*
X00352988Y00452629*
X00353130*
X00353272Y00452638*
X00353412Y00452658*
X00353551Y00452688*
X00353687Y00452727*
X00353820Y00452775*
X00353950Y00452833*
X00354076Y00452900*
X00354196Y00452975*
X00354310Y00453058*
X00354419Y00453149*
X00354521Y00453248*
X00354616Y00453353*
X00354703Y00453465*
X00354783Y00453583*
X00354854Y00453705*
X00354916Y00453833*
X00354969Y00453964*
X00355013Y00454099*
X00355047Y00454237*
X00355072Y00454377*
X00355086Y00454518*
X00355092Y00454660*
X00329692D02*
D01*
X00329686Y00454801*
X00329672Y00454942*
X00329647Y00455082*
X00329613Y00455220*
X00329569Y00455354*
X00329516Y00455486*
X00329454Y00455613*
X00329383Y00455736*
X00329303Y00455854*
X00329216Y00455966*
X00329121Y00456071*
X00329019Y00456170*
X00328910Y00456261*
X00328796Y00456344*
X00328676Y00456419*
X00328550Y00456486*
X00328420Y00456543*
X00328287Y00456592*
X00328151Y00456631*
X00328012Y00456661*
X00327872Y00456680*
X00327730Y00456690*
X00327588*
X00327447Y00456680*
X00327306Y00456661*
X00327168Y00456631*
X00327031Y00456592*
X00326898Y00456543*
X00326769Y00456486*
X00326644Y00456419*
X00326523Y00456344*
X00326408Y00456261*
X00326300Y00456170*
X00326198Y00456071*
X00326103Y00455966*
X00326015Y00455854*
X00325936Y00455736*
X00325865Y00455613*
X00325803Y00455486*
X00325750Y00455354*
X00325706Y00455220*
X00325672Y00455082*
X00325647Y00454942*
X00325632Y00454801*
X00325628Y00454660*
X00325632Y00454518*
X00325647Y00454377*
X00325672Y00454237*
X00325706Y00454099*
X00325750Y00453964*
X00325803Y00453833*
X00325865Y00453705*
X00325936Y00453583*
X00326015Y00453465*
X00326103Y00453353*
X00326198Y00453248*
X00326300Y00453149*
X00326408Y00453058*
X00326523Y00452975*
X00326644Y00452900*
X00326769Y00452833*
X00326898Y00452775*
X00327031Y00452727*
X00327168Y00452688*
X00327306Y00452658*
X00327447Y00452638*
X00327588Y00452629*
X00327730*
X00327872Y00452638*
X00328012Y00452658*
X00328151Y00452688*
X00328287Y00452727*
X00328420Y00452775*
X00328550Y00452833*
X00328676Y00452900*
X00328796Y00452975*
X00328910Y00453058*
X00329019Y00453149*
X00329121Y00453248*
X00329216Y00453353*
X00329303Y00453465*
X00329383Y00453583*
X00329454Y00453705*
X00329516Y00453833*
X00329569Y00453964*
X00329613Y00454099*
X00329647Y00454237*
X00329672Y00454377*
X00329686Y00454518*
X00329692Y00454660*
X00304292D02*
D01*
X00304286Y00454801*
X00304272Y00454942*
X00304247Y00455082*
X00304213Y00455220*
X00304169Y00455354*
X00304116Y00455486*
X00304054Y00455613*
X00303983Y00455736*
X00303903Y00455854*
X00303816Y00455966*
X00303721Y00456071*
X00303619Y00456170*
X00303510Y00456261*
X00303396Y00456344*
X00303276Y00456419*
X00303150Y00456486*
X00303020Y00456543*
X00302887Y00456592*
X00302751Y00456631*
X00302612Y00456661*
X00302472Y00456680*
X00302330Y00456690*
X00302188*
X00302047Y00456680*
X00301906Y00456661*
X00301768Y00456631*
X00301631Y00456592*
X00301498Y00456543*
X00301369Y00456486*
X00301244Y00456419*
X00301123Y00456344*
X00301008Y00456261*
X00300900Y00456170*
X00300798Y00456071*
X00300703Y00455966*
X00300615Y00455854*
X00300536Y00455736*
X00300465Y00455613*
X00300403Y00455486*
X00300350Y00455354*
X00300306Y00455220*
X00300272Y00455082*
X00300247Y00454942*
X00300232Y00454801*
X00300228Y00454660*
X00300232Y00454518*
X00300247Y00454377*
X00300272Y00454237*
X00300306Y00454099*
X00300350Y00453964*
X00300403Y00453833*
X00300465Y00453705*
X00300536Y00453583*
X00300615Y00453465*
X00300703Y00453353*
X00300798Y00453248*
X00300900Y00453149*
X00301008Y00453058*
X00301123Y00452975*
X00301244Y00452900*
X00301369Y00452833*
X00301498Y00452775*
X00301631Y00452727*
X00301768Y00452688*
X00301906Y00452658*
X00302047Y00452638*
X00302188Y00452629*
X00302330*
X00302472Y00452638*
X00302612Y00452658*
X00302751Y00452688*
X00302887Y00452727*
X00303020Y00452775*
X00303150Y00452833*
X00303276Y00452900*
X00303396Y00452975*
X00303510Y00453058*
X00303619Y00453149*
X00303721Y00453248*
X00303816Y00453353*
X00303903Y00453465*
X00303983Y00453583*
X00304054Y00453705*
X00304116Y00453833*
X00304169Y00453964*
X00304213Y00454099*
X00304247Y00454237*
X00304272Y00454377*
X00304286Y00454518*
X00304292Y00454660*
X00507091Y00200389D02*
D01*
X00507086Y00200531*
X00507072Y00200672*
X00507047Y00200812*
X00507013Y00200950*
X00506969Y00201084*
X00506916Y00201216*
X00506853Y00201343*
X00506783Y00201466*
X00506703Y00201584*
X00506616Y00201696*
X00506521Y00201801*
X00506419Y00201900*
X00506310Y00201991*
X00506196Y00202074*
X00506075Y00202149*
X00505950Y00202216*
X00505821Y00202273*
X00505687Y00202322*
X00505551Y00202361*
X00505412Y00202391*
X00505272Y00202410*
X00505130Y00202420*
X00504989*
X00504847Y00202410*
X00504707Y00202391*
X00504568Y00202361*
X00504432Y00202322*
X00504298Y00202273*
X00504169Y00202216*
X00504043Y00202149*
X00503923Y00202074*
X00503808Y00201991*
X00503700Y00201900*
X00503598Y00201801*
X00503503Y00201696*
X00503416Y00201584*
X00503336Y00201466*
X00503265Y00201343*
X00503203Y00201216*
X00503150Y00201084*
X00503106Y00200950*
X00503072Y00200812*
X00503047Y00200672*
X00503032Y00200531*
X00503027Y00200389*
X00503032Y00200248*
X00503047Y00200107*
X00503072Y00199967*
X00503106Y00199829*
X00503150Y00199694*
X00503203Y00199563*
X00503265Y00199435*
X00503336Y00199313*
X00503416Y00199195*
X00503503Y00199083*
X00503598Y00198978*
X00503700Y00198879*
X00503808Y00198788*
X00503923Y00198705*
X00504043Y00198630*
X00504169Y00198563*
X00504298Y00198505*
X00504432Y00198457*
X00504568Y00198418*
X00504707Y00198388*
X00504847Y00198368*
X00504989Y00198359*
X00505130*
X00505272Y00198368*
X00505412Y00198388*
X00505551Y00198418*
X00505687Y00198457*
X00505821Y00198505*
X00505950Y00198563*
X00506075Y00198630*
X00506196Y00198705*
X00506310Y00198788*
X00506419Y00198879*
X00506521Y00198978*
X00506616Y00199083*
X00506703Y00199195*
X00506783Y00199313*
X00506853Y00199435*
X00506916Y00199563*
X00506969Y00199694*
X00507013Y00199829*
X00507047Y00199967*
X00507072Y00200107*
X00507086Y00200248*
X00507091Y00200389*
X00278892D02*
D01*
X00278886Y00200531*
X00278872Y00200672*
X00278847Y00200812*
X00278813Y00200950*
X00278769Y00201084*
X00278716Y00201216*
X00278654Y00201343*
X00278583Y00201466*
X00278503Y00201584*
X00278416Y00201696*
X00278321Y00201801*
X00278219Y00201900*
X00278110Y00201991*
X00277996Y00202074*
X00277876Y00202149*
X00277750Y00202216*
X00277620Y00202273*
X00277487Y00202322*
X00277351Y00202361*
X00277212Y00202391*
X00277072Y00202410*
X00276930Y00202420*
X00276788*
X00276647Y00202410*
X00276506Y00202391*
X00276368Y00202361*
X00276231Y00202322*
X00276098Y00202273*
X00275969Y00202216*
X00275844Y00202149*
X00275723Y00202074*
X00275608Y00201991*
X00275500Y00201900*
X00275398Y00201801*
X00275303Y00201696*
X00275215Y00201584*
X00275136Y00201466*
X00275065Y00201343*
X00275003Y00201216*
X00274950Y00201084*
X00274906Y00200950*
X00274872Y00200812*
X00274847Y00200672*
X00274832Y00200531*
X00274828Y00200389*
X00274832Y00200248*
X00274847Y00200107*
X00274872Y00199967*
X00274906Y00199829*
X00274950Y00199694*
X00275003Y00199563*
X00275065Y00199435*
X00275136Y00199313*
X00275215Y00199195*
X00275303Y00199083*
X00275398Y00198978*
X00275500Y00198879*
X00275608Y00198788*
X00275723Y00198705*
X00275844Y00198630*
X00275969Y00198563*
X00276098Y00198505*
X00276231Y00198457*
X00276368Y00198418*
X00276506Y00198388*
X00276647Y00198368*
X00276788Y00198359*
X00276930*
X00277072Y00198368*
X00277212Y00198388*
X00277351Y00198418*
X00277487Y00198457*
X00277620Y00198505*
X00277750Y00198563*
X00277876Y00198630*
X00277996Y00198705*
X00278110Y00198788*
X00278219Y00198879*
X00278321Y00198978*
X00278416Y00199083*
X00278503Y00199195*
X00278583Y00199313*
X00278654Y00199435*
X00278716Y00199563*
X00278769Y00199694*
X00278813Y00199829*
X00278847Y00199967*
X00278872Y00200107*
X00278886Y00200248*
X00278892Y00200389*
X00253492D02*
D01*
X00253486Y00200531*
X00253472Y00200672*
X00253447Y00200812*
X00253413Y00200950*
X00253369Y00201084*
X00253316Y00201216*
X00253254Y00201343*
X00253183Y00201466*
X00253103Y00201584*
X00253016Y00201696*
X00252921Y00201801*
X00252819Y00201900*
X00252710Y00201991*
X00252596Y00202074*
X00252476Y00202149*
X00252350Y00202216*
X00252220Y00202273*
X00252087Y00202322*
X00251951Y00202361*
X00251812Y00202391*
X00251672Y00202410*
X00251530Y00202420*
X00251388*
X00251247Y00202410*
X00251106Y00202391*
X00250968Y00202361*
X00250831Y00202322*
X00250698Y00202273*
X00250569Y00202216*
X00250444Y00202149*
X00250323Y00202074*
X00250208Y00201991*
X00250100Y00201900*
X00249998Y00201801*
X00249903Y00201696*
X00249815Y00201584*
X00249736Y00201466*
X00249665Y00201343*
X00249603Y00201216*
X00249550Y00201084*
X00249506Y00200950*
X00249472Y00200812*
X00249447Y00200672*
X00249432Y00200531*
X00249428Y00200389*
X00249432Y00200248*
X00249447Y00200107*
X00249472Y00199967*
X00249506Y00199829*
X00249550Y00199694*
X00249603Y00199563*
X00249665Y00199435*
X00249736Y00199313*
X00249815Y00199195*
X00249903Y00199083*
X00249998Y00198978*
X00250100Y00198879*
X00250208Y00198788*
X00250323Y00198705*
X00250444Y00198630*
X00250569Y00198563*
X00250698Y00198505*
X00250831Y00198457*
X00250968Y00198418*
X00251106Y00198388*
X00251247Y00198368*
X00251388Y00198359*
X00251530*
X00251672Y00198368*
X00251812Y00198388*
X00251951Y00198418*
X00252087Y00198457*
X00252220Y00198505*
X00252350Y00198563*
X00252476Y00198630*
X00252596Y00198705*
X00252710Y00198788*
X00252819Y00198879*
X00252921Y00198978*
X00253016Y00199083*
X00253103Y00199195*
X00253183Y00199313*
X00253254Y00199435*
X00253316Y00199563*
X00253369Y00199694*
X00253413Y00199829*
X00253447Y00199967*
X00253472Y00200107*
X00253486Y00200248*
X00253492Y00200389*
X00228092D02*
D01*
X00228086Y00200531*
X00228072Y00200672*
X00228047Y00200812*
X00228013Y00200950*
X00227969Y00201084*
X00227916Y00201216*
X00227854Y00201343*
X00227783Y00201466*
X00227703Y00201584*
X00227616Y00201696*
X00227521Y00201801*
X00227419Y00201900*
X00227310Y00201991*
X00227196Y00202074*
X00227076Y00202149*
X00226950Y00202216*
X00226820Y00202273*
X00226687Y00202322*
X00226551Y00202361*
X00226412Y00202391*
X00226272Y00202410*
X00226130Y00202420*
X00225988*
X00225847Y00202410*
X00225706Y00202391*
X00225568Y00202361*
X00225431Y00202322*
X00225298Y00202273*
X00225169Y00202216*
X00225044Y00202149*
X00224923Y00202074*
X00224808Y00201991*
X00224700Y00201900*
X00224598Y00201801*
X00224503Y00201696*
X00224415Y00201584*
X00224336Y00201466*
X00224265Y00201343*
X00224203Y00201216*
X00224150Y00201084*
X00224106Y00200950*
X00224072Y00200812*
X00224047Y00200672*
X00224032Y00200531*
X00224028Y00200389*
X00224032Y00200248*
X00224047Y00200107*
X00224072Y00199967*
X00224106Y00199829*
X00224150Y00199694*
X00224203Y00199563*
X00224265Y00199435*
X00224336Y00199313*
X00224415Y00199195*
X00224503Y00199083*
X00224598Y00198978*
X00224700Y00198879*
X00224808Y00198788*
X00224923Y00198705*
X00225044Y00198630*
X00225169Y00198563*
X00225298Y00198505*
X00225431Y00198457*
X00225568Y00198418*
X00225706Y00198388*
X00225847Y00198368*
X00225988Y00198359*
X00226130*
X00226272Y00198368*
X00226412Y00198388*
X00226551Y00198418*
X00226687Y00198457*
X00226820Y00198505*
X00226950Y00198563*
X00227076Y00198630*
X00227196Y00198705*
X00227310Y00198788*
X00227419Y00198879*
X00227521Y00198978*
X00227616Y00199083*
X00227703Y00199195*
X00227783Y00199313*
X00227854Y00199435*
X00227916Y00199563*
X00227969Y00199694*
X00228013Y00199829*
X00228047Y00199967*
X00228072Y00200107*
X00228086Y00200248*
X00228092Y00200389*
X00202692D02*
D01*
X00202686Y00200531*
X00202672Y00200672*
X00202647Y00200812*
X00202613Y00200950*
X00202569Y00201084*
X00202516Y00201216*
X00202454Y00201343*
X00202383Y00201466*
X00202303Y00201584*
X00202216Y00201696*
X00202121Y00201801*
X00202019Y00201900*
X00201910Y00201991*
X00201796Y00202074*
X00201676Y00202149*
X00201550Y00202216*
X00201420Y00202273*
X00201287Y00202322*
X00201151Y00202361*
X00201012Y00202391*
X00200872Y00202410*
X00200730Y00202420*
X00200588*
X00200447Y00202410*
X00200306Y00202391*
X00200168Y00202361*
X00200031Y00202322*
X00199898Y00202273*
X00199769Y00202216*
X00199644Y00202149*
X00199523Y00202074*
X00199408Y00201991*
X00199300Y00201900*
X00199198Y00201801*
X00199103Y00201696*
X00199015Y00201584*
X00198936Y00201466*
X00198865Y00201343*
X00198803Y00201216*
X00198750Y00201084*
X00198706Y00200950*
X00198672Y00200812*
X00198647Y00200672*
X00198632Y00200531*
X00198628Y00200389*
X00198632Y00200248*
X00198647Y00200107*
X00198672Y00199967*
X00198706Y00199829*
X00198750Y00199694*
X00198803Y00199563*
X00198865Y00199435*
X00198936Y00199313*
X00199015Y00199195*
X00199103Y00199083*
X00199198Y00198978*
X00199300Y00198879*
X00199408Y00198788*
X00199523Y00198705*
X00199644Y00198630*
X00199769Y00198563*
X00199898Y00198505*
X00200031Y00198457*
X00200168Y00198418*
X00200306Y00198388*
X00200447Y00198368*
X00200588Y00198359*
X00200730*
X00200872Y00198368*
X00201012Y00198388*
X00201151Y00198418*
X00201287Y00198457*
X00201420Y00198505*
X00201550Y00198563*
X00201676Y00198630*
X00201796Y00198705*
X00201910Y00198788*
X00202019Y00198879*
X00202121Y00198978*
X00202216Y00199083*
X00202303Y00199195*
X00202383Y00199313*
X00202454Y00199435*
X00202516Y00199563*
X00202569Y00199694*
X00202613Y00199829*
X00202647Y00199967*
X00202672Y00200107*
X00202686Y00200248*
X00202692Y00200389*
X00177292D02*
D01*
X00177286Y00200531*
X00177272Y00200672*
X00177247Y00200812*
X00177213Y00200950*
X00177169Y00201084*
X00177116Y00201216*
X00177054Y00201343*
X00176983Y00201466*
X00176903Y00201584*
X00176816Y00201696*
X00176721Y00201801*
X00176619Y00201900*
X00176510Y00201991*
X00176396Y00202074*
X00176276Y00202149*
X00176150Y00202216*
X00176020Y00202273*
X00175887Y00202322*
X00175751Y00202361*
X00175612Y00202391*
X00175472Y00202410*
X00175330Y00202420*
X00175188*
X00175047Y00202410*
X00174906Y00202391*
X00174768Y00202361*
X00174631Y00202322*
X00174498Y00202273*
X00174369Y00202216*
X00174244Y00202149*
X00174123Y00202074*
X00174008Y00201991*
X00173900Y00201900*
X00173798Y00201801*
X00173703Y00201696*
X00173615Y00201584*
X00173536Y00201466*
X00173465Y00201343*
X00173403Y00201216*
X00173350Y00201084*
X00173306Y00200950*
X00173272Y00200812*
X00173247Y00200672*
X00173232Y00200531*
X00173228Y00200389*
X00173232Y00200248*
X00173247Y00200107*
X00173272Y00199967*
X00173306Y00199829*
X00173350Y00199694*
X00173403Y00199563*
X00173465Y00199435*
X00173536Y00199313*
X00173615Y00199195*
X00173703Y00199083*
X00173798Y00198978*
X00173900Y00198879*
X00174008Y00198788*
X00174123Y00198705*
X00174244Y00198630*
X00174369Y00198563*
X00174498Y00198505*
X00174631Y00198457*
X00174768Y00198418*
X00174906Y00198388*
X00175047Y00198368*
X00175188Y00198359*
X00175330*
X00175472Y00198368*
X00175612Y00198388*
X00175751Y00198418*
X00175887Y00198457*
X00176020Y00198505*
X00176150Y00198563*
X00176276Y00198630*
X00176396Y00198705*
X00176510Y00198788*
X00176619Y00198879*
X00176721Y00198978*
X00176816Y00199083*
X00176903Y00199195*
X00176983Y00199313*
X00177054Y00199435*
X00177116Y00199563*
X00177169Y00199694*
X00177213Y00199829*
X00177247Y00199967*
X00177272Y00200107*
X00177286Y00200248*
X00177292Y00200389*
X00151892D02*
D01*
X00151886Y00200531*
X00151872Y00200672*
X00151847Y00200812*
X00151813Y00200950*
X00151769Y00201084*
X00151716Y00201216*
X00151654Y00201343*
X00151583Y00201466*
X00151503Y00201584*
X00151416Y00201696*
X00151321Y00201801*
X00151219Y00201900*
X00151110Y00201991*
X00150996Y00202074*
X00150876Y00202149*
X00150750Y00202216*
X00150620Y00202273*
X00150487Y00202322*
X00150351Y00202361*
X00150212Y00202391*
X00150072Y00202410*
X00149930Y00202420*
X00149788*
X00149647Y00202410*
X00149506Y00202391*
X00149368Y00202361*
X00149231Y00202322*
X00149098Y00202273*
X00148969Y00202216*
X00148844Y00202149*
X00148723Y00202074*
X00148608Y00201991*
X00148500Y00201900*
X00148398Y00201801*
X00148303Y00201696*
X00148215Y00201584*
X00148136Y00201466*
X00148065Y00201343*
X00148003Y00201216*
X00147950Y00201084*
X00147906Y00200950*
X00147872Y00200812*
X00147847Y00200672*
X00147832Y00200531*
X00147828Y00200389*
X00147832Y00200248*
X00147847Y00200107*
X00147872Y00199967*
X00147906Y00199829*
X00147950Y00199694*
X00148003Y00199563*
X00148065Y00199435*
X00148136Y00199313*
X00148215Y00199195*
X00148303Y00199083*
X00148398Y00198978*
X00148500Y00198879*
X00148608Y00198788*
X00148723Y00198705*
X00148844Y00198630*
X00148969Y00198563*
X00149098Y00198505*
X00149231Y00198457*
X00149368Y00198418*
X00149506Y00198388*
X00149647Y00198368*
X00149788Y00198359*
X00149930*
X00150072Y00198368*
X00150212Y00198388*
X00150351Y00198418*
X00150487Y00198457*
X00150620Y00198505*
X00150750Y00198563*
X00150876Y00198630*
X00150996Y00198705*
X00151110Y00198788*
X00151219Y00198879*
X00151321Y00198978*
X00151416Y00199083*
X00151503Y00199195*
X00151583Y00199313*
X00151654Y00199435*
X00151716Y00199563*
X00151769Y00199694*
X00151813Y00199829*
X00151847Y00199967*
X00151872Y00200107*
X00151886Y00200248*
X00151892Y00200389*
X00405892D02*
D01*
X00405886Y00200531*
X00405872Y00200672*
X00405847Y00200812*
X00405813Y00200950*
X00405769Y00201084*
X00405716Y00201216*
X00405654Y00201343*
X00405583Y00201466*
X00405503Y00201584*
X00405416Y00201696*
X00405321Y00201801*
X00405219Y00201900*
X00405110Y00201991*
X00404996Y00202074*
X00404876Y00202149*
X00404750Y00202216*
X00404620Y00202273*
X00404487Y00202322*
X00404351Y00202361*
X00404212Y00202391*
X00404072Y00202410*
X00403930Y00202420*
X00403788*
X00403647Y00202410*
X00403506Y00202391*
X00403368Y00202361*
X00403231Y00202322*
X00403098Y00202273*
X00402969Y00202216*
X00402844Y00202149*
X00402723Y00202074*
X00402608Y00201991*
X00402500Y00201900*
X00402398Y00201801*
X00402303Y00201696*
X00402215Y00201584*
X00402136Y00201466*
X00402065Y00201343*
X00402003Y00201216*
X00401950Y00201084*
X00401906Y00200950*
X00401872Y00200812*
X00401847Y00200672*
X00401832Y00200531*
X00401828Y00200389*
X00401832Y00200248*
X00401847Y00200107*
X00401872Y00199967*
X00401906Y00199829*
X00401950Y00199694*
X00402003Y00199563*
X00402065Y00199435*
X00402136Y00199313*
X00402215Y00199195*
X00402303Y00199083*
X00402398Y00198978*
X00402500Y00198879*
X00402608Y00198788*
X00402723Y00198705*
X00402844Y00198630*
X00402969Y00198563*
X00403098Y00198505*
X00403231Y00198457*
X00403368Y00198418*
X00403506Y00198388*
X00403647Y00198368*
X00403788Y00198359*
X00403930*
X00404072Y00198368*
X00404212Y00198388*
X00404351Y00198418*
X00404487Y00198457*
X00404620Y00198505*
X00404750Y00198563*
X00404876Y00198630*
X00404996Y00198705*
X00405110Y00198788*
X00405219Y00198879*
X00405321Y00198978*
X00405416Y00199083*
X00405503Y00199195*
X00405583Y00199313*
X00405654Y00199435*
X00405716Y00199563*
X00405769Y00199694*
X00405813Y00199829*
X00405847Y00199967*
X00405872Y00200107*
X00405886Y00200248*
X00405892Y00200389*
X00431292D02*
D01*
X00431286Y00200531*
X00431272Y00200672*
X00431247Y00200812*
X00431213Y00200950*
X00431169Y00201084*
X00431116Y00201216*
X00431054Y00201343*
X00430983Y00201466*
X00430903Y00201584*
X00430816Y00201696*
X00430721Y00201801*
X00430619Y00201900*
X00430510Y00201991*
X00430396Y00202074*
X00430276Y00202149*
X00430150Y00202216*
X00430020Y00202273*
X00429887Y00202322*
X00429751Y00202361*
X00429612Y00202391*
X00429472Y00202410*
X00429330Y00202420*
X00429188*
X00429047Y00202410*
X00428906Y00202391*
X00428768Y00202361*
X00428631Y00202322*
X00428498Y00202273*
X00428369Y00202216*
X00428244Y00202149*
X00428123Y00202074*
X00428008Y00201991*
X00427900Y00201900*
X00427798Y00201801*
X00427703Y00201696*
X00427615Y00201584*
X00427536Y00201466*
X00427465Y00201343*
X00427403Y00201216*
X00427350Y00201084*
X00427306Y00200950*
X00427272Y00200812*
X00427247Y00200672*
X00427232Y00200531*
X00427228Y00200389*
X00427232Y00200248*
X00427247Y00200107*
X00427272Y00199967*
X00427306Y00199829*
X00427350Y00199694*
X00427403Y00199563*
X00427465Y00199435*
X00427536Y00199313*
X00427615Y00199195*
X00427703Y00199083*
X00427798Y00198978*
X00427900Y00198879*
X00428008Y00198788*
X00428123Y00198705*
X00428244Y00198630*
X00428369Y00198563*
X00428498Y00198505*
X00428631Y00198457*
X00428768Y00198418*
X00428906Y00198388*
X00429047Y00198368*
X00429188Y00198359*
X00429330*
X00429472Y00198368*
X00429612Y00198388*
X00429751Y00198418*
X00429887Y00198457*
X00430020Y00198505*
X00430150Y00198563*
X00430276Y00198630*
X00430396Y00198705*
X00430510Y00198788*
X00430619Y00198879*
X00430721Y00198978*
X00430816Y00199083*
X00430903Y00199195*
X00430983Y00199313*
X00431054Y00199435*
X00431116Y00199563*
X00431169Y00199694*
X00431213Y00199829*
X00431247Y00199967*
X00431272Y00200107*
X00431286Y00200248*
X00431292Y00200389*
X00456692D02*
D01*
X00456686Y00200531*
X00456672Y00200672*
X00456647Y00200812*
X00456613Y00200950*
X00456569Y00201084*
X00456516Y00201216*
X00456454Y00201343*
X00456383Y00201466*
X00456303Y00201584*
X00456216Y00201696*
X00456121Y00201801*
X00456019Y00201900*
X00455910Y00201991*
X00455796Y00202074*
X00455676Y00202149*
X00455550Y00202216*
X00455420Y00202273*
X00455287Y00202322*
X00455151Y00202361*
X00455012Y00202391*
X00454872Y00202410*
X00454730Y00202420*
X00454588*
X00454447Y00202410*
X00454306Y00202391*
X00454168Y00202361*
X00454031Y00202322*
X00453898Y00202273*
X00453769Y00202216*
X00453644Y00202149*
X00453523Y00202074*
X00453408Y00201991*
X00453300Y00201900*
X00453198Y00201801*
X00453103Y00201696*
X00453015Y00201584*
X00452936Y00201466*
X00452865Y00201343*
X00452803Y00201216*
X00452750Y00201084*
X00452706Y00200950*
X00452672Y00200812*
X00452647Y00200672*
X00452632Y00200531*
X00452628Y00200389*
X00452632Y00200248*
X00452647Y00200107*
X00452672Y00199967*
X00452706Y00199829*
X00452750Y00199694*
X00452803Y00199563*
X00452865Y00199435*
X00452936Y00199313*
X00453015Y00199195*
X00453103Y00199083*
X00453198Y00198978*
X00453300Y00198879*
X00453408Y00198788*
X00453523Y00198705*
X00453644Y00198630*
X00453769Y00198563*
X00453898Y00198505*
X00454031Y00198457*
X00454168Y00198418*
X00454306Y00198388*
X00454447Y00198368*
X00454588Y00198359*
X00454730*
X00454872Y00198368*
X00455012Y00198388*
X00455151Y00198418*
X00455287Y00198457*
X00455420Y00198505*
X00455550Y00198563*
X00455676Y00198630*
X00455796Y00198705*
X00455910Y00198788*
X00456019Y00198879*
X00456121Y00198978*
X00456216Y00199083*
X00456303Y00199195*
X00456383Y00199313*
X00456454Y00199435*
X00456516Y00199563*
X00456569Y00199694*
X00456613Y00199829*
X00456647Y00199967*
X00456672Y00200107*
X00456686Y00200248*
X00456692Y00200389*
X00482092D02*
D01*
X00482086Y00200531*
X00482072Y00200672*
X00482047Y00200812*
X00482013Y00200950*
X00481969Y00201084*
X00481916Y00201216*
X00481854Y00201343*
X00481783Y00201466*
X00481703Y00201584*
X00481616Y00201696*
X00481521Y00201801*
X00481419Y00201900*
X00481310Y00201991*
X00481196Y00202074*
X00481076Y00202149*
X00480950Y00202216*
X00480820Y00202273*
X00480687Y00202322*
X00480551Y00202361*
X00480412Y00202391*
X00480272Y00202410*
X00480130Y00202420*
X00479988*
X00479847Y00202410*
X00479706Y00202391*
X00479568Y00202361*
X00479431Y00202322*
X00479298Y00202273*
X00479169Y00202216*
X00479044Y00202149*
X00478923Y00202074*
X00478808Y00201991*
X00478700Y00201900*
X00478598Y00201801*
X00478503Y00201696*
X00478415Y00201584*
X00478336Y00201466*
X00478265Y00201343*
X00478203Y00201216*
X00478150Y00201084*
X00478106Y00200950*
X00478072Y00200812*
X00478047Y00200672*
X00478032Y00200531*
X00478028Y00200389*
X00478032Y00200248*
X00478047Y00200107*
X00478072Y00199967*
X00478106Y00199829*
X00478150Y00199694*
X00478203Y00199563*
X00478265Y00199435*
X00478336Y00199313*
X00478415Y00199195*
X00478503Y00199083*
X00478598Y00198978*
X00478700Y00198879*
X00478808Y00198788*
X00478923Y00198705*
X00479044Y00198630*
X00479169Y00198563*
X00479298Y00198505*
X00479431Y00198457*
X00479568Y00198418*
X00479706Y00198388*
X00479847Y00198368*
X00479988Y00198359*
X00480130*
X00480272Y00198368*
X00480412Y00198388*
X00480551Y00198418*
X00480687Y00198457*
X00480820Y00198505*
X00480950Y00198563*
X00481076Y00198630*
X00481196Y00198705*
X00481310Y00198788*
X00481419Y00198879*
X00481521Y00198978*
X00481616Y00199083*
X00481703Y00199195*
X00481783Y00199313*
X00481854Y00199435*
X00481916Y00199563*
X00481969Y00199694*
X00482013Y00199829*
X00482047Y00199967*
X00482072Y00200107*
X00482086Y00200248*
X00482092Y00200389*
X00380492D02*
D01*
X00380486Y00200531*
X00380472Y00200672*
X00380447Y00200812*
X00380413Y00200950*
X00380369Y00201084*
X00380316Y00201216*
X00380254Y00201343*
X00380183Y00201466*
X00380103Y00201584*
X00380016Y00201696*
X00379921Y00201801*
X00379819Y00201900*
X00379710Y00201991*
X00379596Y00202074*
X00379476Y00202149*
X00379350Y00202216*
X00379220Y00202273*
X00379087Y00202322*
X00378951Y00202361*
X00378812Y00202391*
X00378672Y00202410*
X00378530Y00202420*
X00378388*
X00378247Y00202410*
X00378106Y00202391*
X00377968Y00202361*
X00377831Y00202322*
X00377698Y00202273*
X00377569Y00202216*
X00377444Y00202149*
X00377323Y00202074*
X00377208Y00201991*
X00377100Y00201900*
X00376998Y00201801*
X00376903Y00201696*
X00376815Y00201584*
X00376736Y00201466*
X00376665Y00201343*
X00376603Y00201216*
X00376550Y00201084*
X00376506Y00200950*
X00376472Y00200812*
X00376447Y00200672*
X00376432Y00200531*
X00376428Y00200389*
X00376432Y00200248*
X00376447Y00200107*
X00376472Y00199967*
X00376506Y00199829*
X00376550Y00199694*
X00376603Y00199563*
X00376665Y00199435*
X00376736Y00199313*
X00376815Y00199195*
X00376903Y00199083*
X00376998Y00198978*
X00377100Y00198879*
X00377208Y00198788*
X00377323Y00198705*
X00377444Y00198630*
X00377569Y00198563*
X00377698Y00198505*
X00377831Y00198457*
X00377968Y00198418*
X00378106Y00198388*
X00378247Y00198368*
X00378388Y00198359*
X00378530*
X00378672Y00198368*
X00378812Y00198388*
X00378951Y00198418*
X00379087Y00198457*
X00379220Y00198505*
X00379350Y00198563*
X00379476Y00198630*
X00379596Y00198705*
X00379710Y00198788*
X00379819Y00198879*
X00379921Y00198978*
X00380016Y00199083*
X00380103Y00199195*
X00380183Y00199313*
X00380254Y00199435*
X00380316Y00199563*
X00380369Y00199694*
X00380413Y00199829*
X00380447Y00199967*
X00380472Y00200107*
X00380486Y00200248*
X00380492Y00200389*
X00355092D02*
D01*
X00355086Y00200531*
X00355072Y00200672*
X00355047Y00200812*
X00355013Y00200950*
X00354969Y00201084*
X00354916Y00201216*
X00354854Y00201343*
X00354783Y00201466*
X00354703Y00201584*
X00354616Y00201696*
X00354521Y00201801*
X00354419Y00201900*
X00354310Y00201991*
X00354196Y00202074*
X00354076Y00202149*
X00353950Y00202216*
X00353820Y00202273*
X00353687Y00202322*
X00353551Y00202361*
X00353412Y00202391*
X00353272Y00202410*
X00353130Y00202420*
X00352988*
X00352847Y00202410*
X00352706Y00202391*
X00352568Y00202361*
X00352431Y00202322*
X00352298Y00202273*
X00352169Y00202216*
X00352044Y00202149*
X00351923Y00202074*
X00351808Y00201991*
X00351700Y00201900*
X00351598Y00201801*
X00351503Y00201696*
X00351415Y00201584*
X00351336Y00201466*
X00351265Y00201343*
X00351203Y00201216*
X00351150Y00201084*
X00351106Y00200950*
X00351072Y00200812*
X00351047Y00200672*
X00351032Y00200531*
X00351028Y00200389*
X00351032Y00200248*
X00351047Y00200107*
X00351072Y00199967*
X00351106Y00199829*
X00351150Y00199694*
X00351203Y00199563*
X00351265Y00199435*
X00351336Y00199313*
X00351415Y00199195*
X00351503Y00199083*
X00351598Y00198978*
X00351700Y00198879*
X00351808Y00198788*
X00351923Y00198705*
X00352044Y00198630*
X00352169Y00198563*
X00352298Y00198505*
X00352431Y00198457*
X00352568Y00198418*
X00352706Y00198388*
X00352847Y00198368*
X00352988Y00198359*
X00353130*
X00353272Y00198368*
X00353412Y00198388*
X00353551Y00198418*
X00353687Y00198457*
X00353820Y00198505*
X00353950Y00198563*
X00354076Y00198630*
X00354196Y00198705*
X00354310Y00198788*
X00354419Y00198879*
X00354521Y00198978*
X00354616Y00199083*
X00354703Y00199195*
X00354783Y00199313*
X00354854Y00199435*
X00354916Y00199563*
X00354969Y00199694*
X00355013Y00199829*
X00355047Y00199967*
X00355072Y00200107*
X00355086Y00200248*
X00355092Y00200389*
X00329692D02*
D01*
X00329686Y00200531*
X00329672Y00200672*
X00329647Y00200812*
X00329613Y00200950*
X00329569Y00201084*
X00329516Y00201216*
X00329454Y00201343*
X00329383Y00201466*
X00329303Y00201584*
X00329216Y00201696*
X00329121Y00201801*
X00329019Y00201900*
X00328910Y00201991*
X00328796Y00202074*
X00328676Y00202149*
X00328550Y00202216*
X00328420Y00202273*
X00328287Y00202322*
X00328151Y00202361*
X00328012Y00202391*
X00327872Y00202410*
X00327730Y00202420*
X00327588*
X00327447Y00202410*
X00327306Y00202391*
X00327168Y00202361*
X00327031Y00202322*
X00326898Y00202273*
X00326769Y00202216*
X00326644Y00202149*
X00326523Y00202074*
X00326408Y00201991*
X00326300Y00201900*
X00326198Y00201801*
X00326103Y00201696*
X00326015Y00201584*
X00325936Y00201466*
X00325865Y00201343*
X00325803Y00201216*
X00325750Y00201084*
X00325706Y00200950*
X00325672Y00200812*
X00325647Y00200672*
X00325632Y00200531*
X00325628Y00200389*
X00325632Y00200248*
X00325647Y00200107*
X00325672Y00199967*
X00325706Y00199829*
X00325750Y00199694*
X00325803Y00199563*
X00325865Y00199435*
X00325936Y00199313*
X00326015Y00199195*
X00326103Y00199083*
X00326198Y00198978*
X00326300Y00198879*
X00326408Y00198788*
X00326523Y00198705*
X00326644Y00198630*
X00326769Y00198563*
X00326898Y00198505*
X00327031Y00198457*
X00327168Y00198418*
X00327306Y00198388*
X00327447Y00198368*
X00327588Y00198359*
X00327730*
X00327872Y00198368*
X00328012Y00198388*
X00328151Y00198418*
X00328287Y00198457*
X00328420Y00198505*
X00328550Y00198563*
X00328676Y00198630*
X00328796Y00198705*
X00328910Y00198788*
X00329019Y00198879*
X00329121Y00198978*
X00329216Y00199083*
X00329303Y00199195*
X00329383Y00199313*
X00329454Y00199435*
X00329516Y00199563*
X00329569Y00199694*
X00329613Y00199829*
X00329647Y00199967*
X00329672Y00200107*
X00329686Y00200248*
X00329692Y00200389*
X00304292D02*
D01*
X00304286Y00200531*
X00304272Y00200672*
X00304247Y00200812*
X00304213Y00200950*
X00304169Y00201084*
X00304116Y00201216*
X00304054Y00201343*
X00303983Y00201466*
X00303903Y00201584*
X00303816Y00201696*
X00303721Y00201801*
X00303619Y00201900*
X00303510Y00201991*
X00303396Y00202074*
X00303276Y00202149*
X00303150Y00202216*
X00303020Y00202273*
X00302887Y00202322*
X00302751Y00202361*
X00302612Y00202391*
X00302472Y00202410*
X00302330Y00202420*
X00302188*
X00302047Y00202410*
X00301906Y00202391*
X00301768Y00202361*
X00301631Y00202322*
X00301498Y00202273*
X00301369Y00202216*
X00301244Y00202149*
X00301123Y00202074*
X00301008Y00201991*
X00300900Y00201900*
X00300798Y00201801*
X00300703Y00201696*
X00300615Y00201584*
X00300536Y00201466*
X00300465Y00201343*
X00300403Y00201216*
X00300350Y00201084*
X00300306Y00200950*
X00300272Y00200812*
X00300247Y00200672*
X00300232Y00200531*
X00300228Y00200389*
X00300232Y00200248*
X00300247Y00200107*
X00300272Y00199967*
X00300306Y00199829*
X00300350Y00199694*
X00300403Y00199563*
X00300465Y00199435*
X00300536Y00199313*
X00300615Y00199195*
X00300703Y00199083*
X00300798Y00198978*
X00300900Y00198879*
X00301008Y00198788*
X00301123Y00198705*
X00301244Y00198630*
X00301369Y00198563*
X00301498Y00198505*
X00301631Y00198457*
X00301768Y00198418*
X00301906Y00198388*
X00302047Y00198368*
X00302188Y00198359*
X00302330*
X00302472Y00198368*
X00302612Y00198388*
X00302751Y00198418*
X00302887Y00198457*
X00303020Y00198505*
X00303150Y00198563*
X00303276Y00198630*
X00303396Y00198705*
X00303510Y00198788*
X00303619Y00198879*
X00303721Y00198978*
X00303816Y00199083*
X00303903Y00199195*
X00303983Y00199313*
X00304054Y00199435*
X00304116Y00199563*
X00304169Y00199694*
X00304213Y00199829*
X00304247Y00199967*
X00304272Y00200107*
X00304286Y00200248*
X00304292Y00200389*
X00085852Y00619760D02*
D01*
X00085846Y00619901*
X00085832Y00620042*
X00085807Y00620182*
X00085773Y00620320*
X00085729Y00620454*
X00085676Y00620586*
X00085614Y00620713*
X00085543Y00620836*
X00085463Y00620954*
X00085376Y00621066*
X00085281Y00621171*
X00085179Y00621270*
X00085070Y00621361*
X00084956Y00621444*
X00084836Y00621519*
X00084710Y00621586*
X00084580Y00621643*
X00084447Y00621692*
X00084311Y00621731*
X00084172Y00621761*
X00084032Y00621780*
X00083890Y00621790*
X00083748*
X00083607Y00621780*
X00083466Y00621761*
X00083328Y00621731*
X00083191Y00621692*
X00083058Y00621643*
X00082929Y00621586*
X00082804Y00621519*
X00082683Y00621444*
X00082568Y00621361*
X00082460Y00621270*
X00082358Y00621171*
X00082263Y00621066*
X00082175Y00620954*
X00082096Y00620836*
X00082025Y00620713*
X00081963Y00620586*
X00081910Y00620454*
X00081866Y00620320*
X00081832Y00620182*
X00081807Y00620042*
X00081792Y00619901*
X00081788Y00619760*
X00081792Y00619618*
X00081807Y00619477*
X00081832Y00619337*
X00081866Y00619199*
X00081910Y00619064*
X00081963Y00618933*
X00082025Y00618805*
X00082096Y00618683*
X00082175Y00618565*
X00082263Y00618453*
X00082358Y00618348*
X00082460Y00618249*
X00082568Y00618158*
X00082683Y00618075*
X00082804Y00618000*
X00082929Y00617933*
X00083058Y00617875*
X00083191Y00617827*
X00083328Y00617788*
X00083466Y00617758*
X00083607Y00617738*
X00083748Y00617729*
X00083890*
X00084032Y00617738*
X00084172Y00617758*
X00084311Y00617788*
X00084447Y00617827*
X00084580Y00617875*
X00084710Y00617933*
X00084836Y00618000*
X00084956Y00618075*
X00085070Y00618158*
X00085179Y00618249*
X00085281Y00618348*
X00085376Y00618453*
X00085463Y00618565*
X00085543Y00618683*
X00085614Y00618805*
X00085676Y00618933*
X00085729Y00619064*
X00085773Y00619199*
X00085807Y00619337*
X00085832Y00619477*
X00085846Y00619618*
X00085852Y00619760*
Y00594360D02*
D01*
X00085846Y00594501*
X00085832Y00594642*
X00085807Y00594782*
X00085773Y00594920*
X00085729Y00595054*
X00085676Y00595186*
X00085614Y00595313*
X00085543Y00595436*
X00085463Y00595554*
X00085376Y00595666*
X00085281Y00595771*
X00085179Y00595870*
X00085070Y00595961*
X00084956Y00596044*
X00084836Y00596119*
X00084710Y00596186*
X00084580Y00596243*
X00084447Y00596292*
X00084311Y00596331*
X00084172Y00596361*
X00084032Y00596380*
X00083890Y00596390*
X00083748*
X00083607Y00596380*
X00083466Y00596361*
X00083328Y00596331*
X00083191Y00596292*
X00083058Y00596243*
X00082929Y00596186*
X00082804Y00596119*
X00082683Y00596044*
X00082568Y00595961*
X00082460Y00595870*
X00082358Y00595771*
X00082263Y00595666*
X00082175Y00595554*
X00082096Y00595436*
X00082025Y00595313*
X00081963Y00595186*
X00081910Y00595054*
X00081866Y00594920*
X00081832Y00594782*
X00081807Y00594642*
X00081792Y00594501*
X00081788Y00594360*
X00081792Y00594218*
X00081807Y00594077*
X00081832Y00593937*
X00081866Y00593799*
X00081910Y00593664*
X00081963Y00593533*
X00082025Y00593405*
X00082096Y00593283*
X00082175Y00593165*
X00082263Y00593053*
X00082358Y00592948*
X00082460Y00592849*
X00082568Y00592758*
X00082683Y00592675*
X00082804Y00592600*
X00082929Y00592533*
X00083058Y00592475*
X00083191Y00592427*
X00083328Y00592388*
X00083466Y00592358*
X00083607Y00592338*
X00083748Y00592329*
X00083890*
X00084032Y00592338*
X00084172Y00592358*
X00084311Y00592388*
X00084447Y00592427*
X00084580Y00592475*
X00084710Y00592533*
X00084836Y00592600*
X00084956Y00592675*
X00085070Y00592758*
X00085179Y00592849*
X00085281Y00592948*
X00085376Y00593053*
X00085463Y00593165*
X00085543Y00593283*
X00085614Y00593405*
X00085676Y00593533*
X00085729Y00593664*
X00085773Y00593799*
X00085807Y00593937*
X00085832Y00594077*
X00085846Y00594218*
X00085852Y00594360*
Y00568960D02*
D01*
X00085846Y00569101*
X00085832Y00569242*
X00085807Y00569382*
X00085773Y00569520*
X00085729Y00569654*
X00085676Y00569786*
X00085614Y00569913*
X00085543Y00570036*
X00085463Y00570154*
X00085376Y00570266*
X00085281Y00570371*
X00085179Y00570470*
X00085070Y00570561*
X00084956Y00570644*
X00084836Y00570719*
X00084710Y00570786*
X00084580Y00570843*
X00084447Y00570892*
X00084311Y00570931*
X00084172Y00570961*
X00084032Y00570980*
X00083890Y00570990*
X00083748*
X00083607Y00570980*
X00083466Y00570961*
X00083328Y00570931*
X00083191Y00570892*
X00083058Y00570843*
X00082929Y00570786*
X00082804Y00570719*
X00082683Y00570644*
X00082568Y00570561*
X00082460Y00570470*
X00082358Y00570371*
X00082263Y00570266*
X00082175Y00570154*
X00082096Y00570036*
X00082025Y00569913*
X00081963Y00569786*
X00081910Y00569654*
X00081866Y00569520*
X00081832Y00569382*
X00081807Y00569242*
X00081792Y00569101*
X00081788Y00568960*
X00081792Y00568818*
X00081807Y00568677*
X00081832Y00568537*
X00081866Y00568399*
X00081910Y00568264*
X00081963Y00568133*
X00082025Y00568005*
X00082096Y00567883*
X00082175Y00567765*
X00082263Y00567653*
X00082358Y00567548*
X00082460Y00567449*
X00082568Y00567358*
X00082683Y00567275*
X00082804Y00567200*
X00082929Y00567133*
X00083058Y00567075*
X00083191Y00567027*
X00083328Y00566988*
X00083466Y00566958*
X00083607Y00566938*
X00083748Y00566929*
X00083890*
X00084032Y00566938*
X00084172Y00566958*
X00084311Y00566988*
X00084447Y00567027*
X00084580Y00567075*
X00084710Y00567133*
X00084836Y00567200*
X00084956Y00567275*
X00085070Y00567358*
X00085179Y00567449*
X00085281Y00567548*
X00085376Y00567653*
X00085463Y00567765*
X00085543Y00567883*
X00085614Y00568005*
X00085676Y00568133*
X00085729Y00568264*
X00085773Y00568399*
X00085807Y00568537*
X00085832Y00568677*
X00085846Y00568818*
X00085852Y00568960*
Y00543560D02*
D01*
X00085846Y00543701*
X00085832Y00543842*
X00085807Y00543982*
X00085773Y00544120*
X00085729Y00544254*
X00085676Y00544386*
X00085614Y00544513*
X00085543Y00544636*
X00085463Y00544754*
X00085376Y00544866*
X00085281Y00544971*
X00085179Y00545070*
X00085070Y00545161*
X00084956Y00545244*
X00084836Y00545319*
X00084710Y00545386*
X00084580Y00545443*
X00084447Y00545492*
X00084311Y00545531*
X00084172Y00545561*
X00084032Y00545580*
X00083890Y00545590*
X00083748*
X00083607Y00545580*
X00083466Y00545561*
X00083328Y00545531*
X00083191Y00545492*
X00083058Y00545443*
X00082929Y00545386*
X00082804Y00545319*
X00082683Y00545244*
X00082568Y00545161*
X00082460Y00545070*
X00082358Y00544971*
X00082263Y00544866*
X00082175Y00544754*
X00082096Y00544636*
X00082025Y00544513*
X00081963Y00544386*
X00081910Y00544254*
X00081866Y00544120*
X00081832Y00543982*
X00081807Y00543842*
X00081792Y00543701*
X00081788Y00543560*
X00081792Y00543418*
X00081807Y00543277*
X00081832Y00543137*
X00081866Y00542999*
X00081910Y00542864*
X00081963Y00542733*
X00082025Y00542605*
X00082096Y00542483*
X00082175Y00542365*
X00082263Y00542253*
X00082358Y00542148*
X00082460Y00542049*
X00082568Y00541958*
X00082683Y00541875*
X00082804Y00541800*
X00082929Y00541733*
X00083058Y00541675*
X00083191Y00541627*
X00083328Y00541588*
X00083466Y00541558*
X00083607Y00541538*
X00083748Y00541529*
X00083890*
X00084032Y00541538*
X00084172Y00541558*
X00084311Y00541588*
X00084447Y00541627*
X00084580Y00541675*
X00084710Y00541733*
X00084836Y00541800*
X00084956Y00541875*
X00085070Y00541958*
X00085179Y00542049*
X00085281Y00542148*
X00085376Y00542253*
X00085463Y00542365*
X00085543Y00542483*
X00085614Y00542605*
X00085676Y00542733*
X00085729Y00542864*
X00085773Y00542999*
X00085807Y00543137*
X00085832Y00543277*
X00085846Y00543418*
X00085852Y00543560*
Y00518160D02*
D01*
X00085846Y00518301*
X00085832Y00518442*
X00085807Y00518582*
X00085773Y00518720*
X00085729Y00518854*
X00085676Y00518986*
X00085614Y00519113*
X00085543Y00519236*
X00085463Y00519354*
X00085376Y00519466*
X00085281Y00519571*
X00085179Y00519670*
X00085070Y00519761*
X00084956Y00519844*
X00084836Y00519919*
X00084710Y00519986*
X00084580Y00520043*
X00084447Y00520092*
X00084311Y00520131*
X00084172Y00520161*
X00084032Y00520180*
X00083890Y00520190*
X00083748*
X00083607Y00520180*
X00083466Y00520161*
X00083328Y00520131*
X00083191Y00520092*
X00083058Y00520043*
X00082929Y00519986*
X00082804Y00519919*
X00082683Y00519844*
X00082568Y00519761*
X00082460Y00519670*
X00082358Y00519571*
X00082263Y00519466*
X00082175Y00519354*
X00082096Y00519236*
X00082025Y00519113*
X00081963Y00518986*
X00081910Y00518854*
X00081866Y00518720*
X00081832Y00518582*
X00081807Y00518442*
X00081792Y00518301*
X00081788Y00518160*
X00081792Y00518018*
X00081807Y00517877*
X00081832Y00517737*
X00081866Y00517599*
X00081910Y00517464*
X00081963Y00517333*
X00082025Y00517205*
X00082096Y00517083*
X00082175Y00516965*
X00082263Y00516853*
X00082358Y00516748*
X00082460Y00516649*
X00082568Y00516558*
X00082683Y00516475*
X00082804Y00516400*
X00082929Y00516333*
X00083058Y00516275*
X00083191Y00516227*
X00083328Y00516188*
X00083466Y00516158*
X00083607Y00516138*
X00083748Y00516129*
X00083890*
X00084032Y00516138*
X00084172Y00516158*
X00084311Y00516188*
X00084447Y00516227*
X00084580Y00516275*
X00084710Y00516333*
X00084836Y00516400*
X00084956Y00516475*
X00085070Y00516558*
X00085179Y00516649*
X00085281Y00516748*
X00085376Y00516853*
X00085463Y00516965*
X00085543Y00517083*
X00085614Y00517205*
X00085676Y00517333*
X00085729Y00517464*
X00085773Y00517599*
X00085807Y00517737*
X00085832Y00517877*
X00085846Y00518018*
X00085852Y00518160*
Y00492760D02*
D01*
X00085846Y00492901*
X00085832Y00493042*
X00085807Y00493182*
X00085773Y00493320*
X00085729Y00493454*
X00085676Y00493586*
X00085614Y00493713*
X00085543Y00493836*
X00085463Y00493954*
X00085376Y00494066*
X00085281Y00494171*
X00085179Y00494270*
X00085070Y00494361*
X00084956Y00494444*
X00084836Y00494519*
X00084710Y00494586*
X00084580Y00494643*
X00084447Y00494692*
X00084311Y00494731*
X00084172Y00494761*
X00084032Y00494780*
X00083890Y00494790*
X00083748*
X00083607Y00494780*
X00083466Y00494761*
X00083328Y00494731*
X00083191Y00494692*
X00083058Y00494643*
X00082929Y00494586*
X00082804Y00494519*
X00082683Y00494444*
X00082568Y00494361*
X00082460Y00494270*
X00082358Y00494171*
X00082263Y00494066*
X00082175Y00493954*
X00082096Y00493836*
X00082025Y00493713*
X00081963Y00493586*
X00081910Y00493454*
X00081866Y00493320*
X00081832Y00493182*
X00081807Y00493042*
X00081792Y00492901*
X00081788Y00492760*
X00081792Y00492618*
X00081807Y00492477*
X00081832Y00492337*
X00081866Y00492199*
X00081910Y00492064*
X00081963Y00491933*
X00082025Y00491805*
X00082096Y00491683*
X00082175Y00491565*
X00082263Y00491453*
X00082358Y00491348*
X00082460Y00491249*
X00082568Y00491158*
X00082683Y00491075*
X00082804Y00491000*
X00082929Y00490933*
X00083058Y00490875*
X00083191Y00490827*
X00083328Y00490788*
X00083466Y00490758*
X00083607Y00490738*
X00083748Y00490729*
X00083890*
X00084032Y00490738*
X00084172Y00490758*
X00084311Y00490788*
X00084447Y00490827*
X00084580Y00490875*
X00084710Y00490933*
X00084836Y00491000*
X00084956Y00491075*
X00085070Y00491158*
X00085179Y00491249*
X00085281Y00491348*
X00085376Y00491453*
X00085463Y00491565*
X00085543Y00491683*
X00085614Y00491805*
X00085676Y00491933*
X00085729Y00492064*
X00085773Y00492199*
X00085807Y00492337*
X00085832Y00492477*
X00085846Y00492618*
X00085852Y00492760*
X00381762Y00618490D02*
D01*
X00381756Y00618631*
X00381742Y00618772*
X00381717Y00618912*
X00381683Y00619050*
X00381639Y00619184*
X00381586Y00619316*
X00381524Y00619443*
X00381453Y00619566*
X00381373Y00619684*
X00381286Y00619796*
X00381191Y00619901*
X00381089Y00620000*
X00380980Y00620091*
X00380866Y00620174*
X00380746Y00620249*
X00380620Y00620316*
X00380490Y00620373*
X00380357Y00620422*
X00380221Y00620461*
X00380082Y00620491*
X00379942Y00620510*
X00379800Y00620520*
X00379658*
X00379517Y00620510*
X00379376Y00620491*
X00379238Y00620461*
X00379101Y00620422*
X00378968Y00620373*
X00378839Y00620316*
X00378714Y00620249*
X00378593Y00620174*
X00378478Y00620091*
X00378370Y00620000*
X00378268Y00619901*
X00378173Y00619796*
X00378085Y00619684*
X00378006Y00619566*
X00377935Y00619443*
X00377873Y00619316*
X00377820Y00619184*
X00377776Y00619050*
X00377742Y00618912*
X00377717Y00618772*
X00377702Y00618631*
X00377698Y00618490*
X00377702Y00618348*
X00377717Y00618207*
X00377742Y00618067*
X00377776Y00617929*
X00377820Y00617794*
X00377873Y00617663*
X00377935Y00617535*
X00378006Y00617413*
X00378085Y00617295*
X00378173Y00617183*
X00378268Y00617078*
X00378370Y00616979*
X00378478Y00616888*
X00378593Y00616805*
X00378714Y00616730*
X00378839Y00616663*
X00378968Y00616605*
X00379101Y00616557*
X00379238Y00616518*
X00379376Y00616488*
X00379517Y00616468*
X00379658Y00616459*
X00379800*
X00379942Y00616468*
X00380082Y00616488*
X00380221Y00616518*
X00380357Y00616557*
X00380490Y00616605*
X00380620Y00616663*
X00380746Y00616730*
X00380866Y00616805*
X00380980Y00616888*
X00381089Y00616979*
X00381191Y00617078*
X00381286Y00617183*
X00381373Y00617295*
X00381453Y00617413*
X00381524Y00617535*
X00381586Y00617663*
X00381639Y00617794*
X00381683Y00617929*
X00381717Y00618067*
X00381742Y00618207*
X00381756Y00618348*
X00381762Y00618490*
X00356362D02*
D01*
X00356356Y00618631*
X00356342Y00618772*
X00356317Y00618912*
X00356283Y00619050*
X00356239Y00619184*
X00356186Y00619316*
X00356124Y00619443*
X00356053Y00619566*
X00355973Y00619684*
X00355886Y00619796*
X00355791Y00619901*
X00355689Y00620000*
X00355580Y00620091*
X00355466Y00620174*
X00355346Y00620249*
X00355220Y00620316*
X00355090Y00620373*
X00354957Y00620422*
X00354821Y00620461*
X00354682Y00620491*
X00354542Y00620510*
X00354400Y00620520*
X00354258*
X00354117Y00620510*
X00353976Y00620491*
X00353838Y00620461*
X00353701Y00620422*
X00353568Y00620373*
X00353439Y00620316*
X00353314Y00620249*
X00353193Y00620174*
X00353078Y00620091*
X00352970Y00620000*
X00352868Y00619901*
X00352773Y00619796*
X00352685Y00619684*
X00352606Y00619566*
X00352535Y00619443*
X00352473Y00619316*
X00352420Y00619184*
X00352376Y00619050*
X00352342Y00618912*
X00352317Y00618772*
X00352302Y00618631*
X00352298Y00618490*
X00352302Y00618348*
X00352317Y00618207*
X00352342Y00618067*
X00352376Y00617929*
X00352420Y00617794*
X00352473Y00617663*
X00352535Y00617535*
X00352606Y00617413*
X00352685Y00617295*
X00352773Y00617183*
X00352868Y00617078*
X00352970Y00616979*
X00353078Y00616888*
X00353193Y00616805*
X00353314Y00616730*
X00353439Y00616663*
X00353568Y00616605*
X00353701Y00616557*
X00353838Y00616518*
X00353976Y00616488*
X00354117Y00616468*
X00354258Y00616459*
X00354400*
X00354542Y00616468*
X00354682Y00616488*
X00354821Y00616518*
X00354957Y00616557*
X00355090Y00616605*
X00355220Y00616663*
X00355346Y00616730*
X00355466Y00616805*
X00355580Y00616888*
X00355689Y00616979*
X00355791Y00617078*
X00355886Y00617183*
X00355973Y00617295*
X00356053Y00617413*
X00356124Y00617535*
X00356186Y00617663*
X00356239Y00617794*
X00356283Y00617929*
X00356317Y00618067*
X00356342Y00618207*
X00356356Y00618348*
X00356362Y00618490*
X00508762D02*
D01*
X00508756Y00618631*
X00508742Y00618772*
X00508717Y00618912*
X00508683Y00619050*
X00508639Y00619184*
X00508586Y00619316*
X00508524Y00619443*
X00508453Y00619566*
X00508373Y00619684*
X00508286Y00619796*
X00508191Y00619901*
X00508089Y00620000*
X00507980Y00620091*
X00507866Y00620174*
X00507746Y00620249*
X00507620Y00620316*
X00507490Y00620373*
X00507357Y00620422*
X00507221Y00620461*
X00507082Y00620491*
X00506942Y00620510*
X00506800Y00620520*
X00506658*
X00506517Y00620510*
X00506376Y00620491*
X00506238Y00620461*
X00506101Y00620422*
X00505968Y00620373*
X00505839Y00620316*
X00505714Y00620249*
X00505593Y00620174*
X00505478Y00620091*
X00505370Y00620000*
X00505268Y00619901*
X00505173Y00619796*
X00505085Y00619684*
X00505006Y00619566*
X00504935Y00619443*
X00504873Y00619316*
X00504820Y00619184*
X00504776Y00619050*
X00504742Y00618912*
X00504717Y00618772*
X00504702Y00618631*
X00504698Y00618490*
X00504702Y00618348*
X00504717Y00618207*
X00504742Y00618067*
X00504776Y00617929*
X00504820Y00617794*
X00504873Y00617663*
X00504935Y00617535*
X00505006Y00617413*
X00505085Y00617295*
X00505173Y00617183*
X00505268Y00617078*
X00505370Y00616979*
X00505478Y00616888*
X00505593Y00616805*
X00505714Y00616730*
X00505839Y00616663*
X00505968Y00616605*
X00506101Y00616557*
X00506238Y00616518*
X00506376Y00616488*
X00506517Y00616468*
X00506658Y00616459*
X00506800*
X00506942Y00616468*
X00507082Y00616488*
X00507221Y00616518*
X00507357Y00616557*
X00507490Y00616605*
X00507620Y00616663*
X00507746Y00616730*
X00507866Y00616805*
X00507980Y00616888*
X00508089Y00616979*
X00508191Y00617078*
X00508286Y00617183*
X00508373Y00617295*
X00508453Y00617413*
X00508524Y00617535*
X00508586Y00617663*
X00508639Y00617794*
X00508683Y00617929*
X00508717Y00618067*
X00508742Y00618207*
X00508756Y00618348*
X00508762Y00618490*
X00483362D02*
D01*
X00483356Y00618631*
X00483342Y00618772*
X00483317Y00618912*
X00483283Y00619050*
X00483239Y00619184*
X00483186Y00619316*
X00483124Y00619443*
X00483053Y00619566*
X00482973Y00619684*
X00482886Y00619796*
X00482791Y00619901*
X00482689Y00620000*
X00482580Y00620091*
X00482466Y00620174*
X00482346Y00620249*
X00482220Y00620316*
X00482090Y00620373*
X00481957Y00620422*
X00481821Y00620461*
X00481682Y00620491*
X00481542Y00620510*
X00481400Y00620520*
X00481258*
X00481117Y00620510*
X00480976Y00620491*
X00480838Y00620461*
X00480701Y00620422*
X00480568Y00620373*
X00480439Y00620316*
X00480314Y00620249*
X00480193Y00620174*
X00480078Y00620091*
X00479970Y00620000*
X00479868Y00619901*
X00479773Y00619796*
X00479685Y00619684*
X00479606Y00619566*
X00479535Y00619443*
X00479473Y00619316*
X00479420Y00619184*
X00479376Y00619050*
X00479342Y00618912*
X00479317Y00618772*
X00479302Y00618631*
X00479298Y00618490*
X00479302Y00618348*
X00479317Y00618207*
X00479342Y00618067*
X00479376Y00617929*
X00479420Y00617794*
X00479473Y00617663*
X00479535Y00617535*
X00479606Y00617413*
X00479685Y00617295*
X00479773Y00617183*
X00479868Y00617078*
X00479970Y00616979*
X00480078Y00616888*
X00480193Y00616805*
X00480314Y00616730*
X00480439Y00616663*
X00480568Y00616605*
X00480701Y00616557*
X00480838Y00616518*
X00480976Y00616488*
X00481117Y00616468*
X00481258Y00616459*
X00481400*
X00481542Y00616468*
X00481682Y00616488*
X00481821Y00616518*
X00481957Y00616557*
X00482090Y00616605*
X00482220Y00616663*
X00482346Y00616730*
X00482466Y00616805*
X00482580Y00616888*
X00482689Y00616979*
X00482791Y00617078*
X00482886Y00617183*
X00482973Y00617295*
X00483053Y00617413*
X00483124Y00617535*
X00483186Y00617663*
X00483239Y00617794*
X00483283Y00617929*
X00483317Y00618067*
X00483342Y00618207*
X00483356Y00618348*
X00483362Y00618490*
X00457962D02*
D01*
X00457956Y00618631*
X00457942Y00618772*
X00457917Y00618912*
X00457883Y00619050*
X00457839Y00619184*
X00457786Y00619316*
X00457724Y00619443*
X00457653Y00619566*
X00457573Y00619684*
X00457486Y00619796*
X00457391Y00619901*
X00457289Y00620000*
X00457180Y00620091*
X00457066Y00620174*
X00456946Y00620249*
X00456820Y00620316*
X00456690Y00620373*
X00456557Y00620422*
X00456421Y00620461*
X00456282Y00620491*
X00456142Y00620510*
X00456000Y00620520*
X00455858*
X00455717Y00620510*
X00455576Y00620491*
X00455438Y00620461*
X00455301Y00620422*
X00455168Y00620373*
X00455039Y00620316*
X00454914Y00620249*
X00454793Y00620174*
X00454678Y00620091*
X00454570Y00620000*
X00454468Y00619901*
X00454373Y00619796*
X00454285Y00619684*
X00454206Y00619566*
X00454135Y00619443*
X00454073Y00619316*
X00454020Y00619184*
X00453976Y00619050*
X00453942Y00618912*
X00453917Y00618772*
X00453902Y00618631*
X00453898Y00618490*
X00453902Y00618348*
X00453917Y00618207*
X00453942Y00618067*
X00453976Y00617929*
X00454020Y00617794*
X00454073Y00617663*
X00454135Y00617535*
X00454206Y00617413*
X00454285Y00617295*
X00454373Y00617183*
X00454468Y00617078*
X00454570Y00616979*
X00454678Y00616888*
X00454793Y00616805*
X00454914Y00616730*
X00455039Y00616663*
X00455168Y00616605*
X00455301Y00616557*
X00455438Y00616518*
X00455576Y00616488*
X00455717Y00616468*
X00455858Y00616459*
X00456000*
X00456142Y00616468*
X00456282Y00616488*
X00456421Y00616518*
X00456557Y00616557*
X00456690Y00616605*
X00456820Y00616663*
X00456946Y00616730*
X00457066Y00616805*
X00457180Y00616888*
X00457289Y00616979*
X00457391Y00617078*
X00457486Y00617183*
X00457573Y00617295*
X00457653Y00617413*
X00457724Y00617535*
X00457786Y00617663*
X00457839Y00617794*
X00457883Y00617929*
X00457917Y00618067*
X00457942Y00618207*
X00457956Y00618348*
X00457962Y00618490*
X00432562D02*
D01*
X00432556Y00618631*
X00432542Y00618772*
X00432517Y00618912*
X00432483Y00619050*
X00432439Y00619184*
X00432386Y00619316*
X00432324Y00619443*
X00432253Y00619566*
X00432173Y00619684*
X00432086Y00619796*
X00431991Y00619901*
X00431889Y00620000*
X00431780Y00620091*
X00431666Y00620174*
X00431546Y00620249*
X00431420Y00620316*
X00431290Y00620373*
X00431157Y00620422*
X00431021Y00620461*
X00430882Y00620491*
X00430742Y00620510*
X00430600Y00620520*
X00430458*
X00430317Y00620510*
X00430176Y00620491*
X00430038Y00620461*
X00429901Y00620422*
X00429768Y00620373*
X00429639Y00620316*
X00429514Y00620249*
X00429393Y00620174*
X00429278Y00620091*
X00429170Y00620000*
X00429068Y00619901*
X00428973Y00619796*
X00428885Y00619684*
X00428806Y00619566*
X00428735Y00619443*
X00428673Y00619316*
X00428620Y00619184*
X00428576Y00619050*
X00428542Y00618912*
X00428517Y00618772*
X00428502Y00618631*
X00428498Y00618490*
X00428502Y00618348*
X00428517Y00618207*
X00428542Y00618067*
X00428576Y00617929*
X00428620Y00617794*
X00428673Y00617663*
X00428735Y00617535*
X00428806Y00617413*
X00428885Y00617295*
X00428973Y00617183*
X00429068Y00617078*
X00429170Y00616979*
X00429278Y00616888*
X00429393Y00616805*
X00429514Y00616730*
X00429639Y00616663*
X00429768Y00616605*
X00429901Y00616557*
X00430038Y00616518*
X00430176Y00616488*
X00430317Y00616468*
X00430458Y00616459*
X00430600*
X00430742Y00616468*
X00430882Y00616488*
X00431021Y00616518*
X00431157Y00616557*
X00431290Y00616605*
X00431420Y00616663*
X00431546Y00616730*
X00431666Y00616805*
X00431780Y00616888*
X00431889Y00616979*
X00431991Y00617078*
X00432086Y00617183*
X00432173Y00617295*
X00432253Y00617413*
X00432324Y00617535*
X00432386Y00617663*
X00432439Y00617794*
X00432483Y00617929*
X00432517Y00618067*
X00432542Y00618207*
X00432556Y00618348*
X00432562Y00618490*
X00407162D02*
D01*
X00407156Y00618631*
X00407142Y00618772*
X00407117Y00618912*
X00407083Y00619050*
X00407039Y00619184*
X00406986Y00619316*
X00406924Y00619443*
X00406853Y00619566*
X00406773Y00619684*
X00406686Y00619796*
X00406591Y00619901*
X00406489Y00620000*
X00406380Y00620091*
X00406266Y00620174*
X00406146Y00620249*
X00406020Y00620316*
X00405890Y00620373*
X00405757Y00620422*
X00405621Y00620461*
X00405482Y00620491*
X00405342Y00620510*
X00405200Y00620520*
X00405058*
X00404917Y00620510*
X00404776Y00620491*
X00404638Y00620461*
X00404501Y00620422*
X00404368Y00620373*
X00404239Y00620316*
X00404114Y00620249*
X00403993Y00620174*
X00403878Y00620091*
X00403770Y00620000*
X00403668Y00619901*
X00403573Y00619796*
X00403485Y00619684*
X00403406Y00619566*
X00403335Y00619443*
X00403273Y00619316*
X00403220Y00619184*
X00403176Y00619050*
X00403142Y00618912*
X00403117Y00618772*
X00403102Y00618631*
X00403098Y00618490*
X00403102Y00618348*
X00403117Y00618207*
X00403142Y00618067*
X00403176Y00617929*
X00403220Y00617794*
X00403273Y00617663*
X00403335Y00617535*
X00403406Y00617413*
X00403485Y00617295*
X00403573Y00617183*
X00403668Y00617078*
X00403770Y00616979*
X00403878Y00616888*
X00403993Y00616805*
X00404114Y00616730*
X00404239Y00616663*
X00404368Y00616605*
X00404501Y00616557*
X00404638Y00616518*
X00404776Y00616488*
X00404917Y00616468*
X00405058Y00616459*
X00405200*
X00405342Y00616468*
X00405482Y00616488*
X00405621Y00616518*
X00405757Y00616557*
X00405890Y00616605*
X00406020Y00616663*
X00406146Y00616730*
X00406266Y00616805*
X00406380Y00616888*
X00406489Y00616979*
X00406591Y00617078*
X00406686Y00617183*
X00406773Y00617295*
X00406853Y00617413*
X00406924Y00617535*
X00406986Y00617663*
X00407039Y00617794*
X00407083Y00617929*
X00407117Y00618067*
X00407142Y00618207*
X00407156Y00618348*
X00407162Y00618490*
X00151892D02*
D01*
X00151886Y00618631*
X00151872Y00618772*
X00151847Y00618912*
X00151813Y00619050*
X00151769Y00619184*
X00151716Y00619316*
X00151654Y00619443*
X00151583Y00619566*
X00151503Y00619684*
X00151416Y00619796*
X00151321Y00619901*
X00151219Y00620000*
X00151110Y00620091*
X00150996Y00620174*
X00150876Y00620249*
X00150750Y00620316*
X00150620Y00620373*
X00150487Y00620422*
X00150351Y00620461*
X00150212Y00620491*
X00150072Y00620510*
X00149930Y00620520*
X00149788*
X00149647Y00620510*
X00149506Y00620491*
X00149368Y00620461*
X00149231Y00620422*
X00149098Y00620373*
X00148969Y00620316*
X00148844Y00620249*
X00148723Y00620174*
X00148608Y00620091*
X00148500Y00620000*
X00148398Y00619901*
X00148303Y00619796*
X00148215Y00619684*
X00148136Y00619566*
X00148065Y00619443*
X00148003Y00619316*
X00147950Y00619184*
X00147906Y00619050*
X00147872Y00618912*
X00147847Y00618772*
X00147832Y00618631*
X00147828Y00618490*
X00147832Y00618348*
X00147847Y00618207*
X00147872Y00618067*
X00147906Y00617929*
X00147950Y00617794*
X00148003Y00617663*
X00148065Y00617535*
X00148136Y00617413*
X00148215Y00617295*
X00148303Y00617183*
X00148398Y00617078*
X00148500Y00616979*
X00148608Y00616888*
X00148723Y00616805*
X00148844Y00616730*
X00148969Y00616663*
X00149098Y00616605*
X00149231Y00616557*
X00149368Y00616518*
X00149506Y00616488*
X00149647Y00616468*
X00149788Y00616459*
X00149930*
X00150072Y00616468*
X00150212Y00616488*
X00150351Y00616518*
X00150487Y00616557*
X00150620Y00616605*
X00150750Y00616663*
X00150876Y00616730*
X00150996Y00616805*
X00151110Y00616888*
X00151219Y00616979*
X00151321Y00617078*
X00151416Y00617183*
X00151503Y00617295*
X00151583Y00617413*
X00151654Y00617535*
X00151716Y00617663*
X00151769Y00617794*
X00151813Y00617929*
X00151847Y00618067*
X00151872Y00618207*
X00151886Y00618348*
X00151892Y00618490*
X00177292D02*
D01*
X00177286Y00618631*
X00177272Y00618772*
X00177247Y00618912*
X00177213Y00619050*
X00177169Y00619184*
X00177116Y00619316*
X00177054Y00619443*
X00176983Y00619566*
X00176903Y00619684*
X00176816Y00619796*
X00176721Y00619901*
X00176619Y00620000*
X00176510Y00620091*
X00176396Y00620174*
X00176276Y00620249*
X00176150Y00620316*
X00176020Y00620373*
X00175887Y00620422*
X00175751Y00620461*
X00175612Y00620491*
X00175472Y00620510*
X00175330Y00620520*
X00175188*
X00175047Y00620510*
X00174906Y00620491*
X00174768Y00620461*
X00174631Y00620422*
X00174498Y00620373*
X00174369Y00620316*
X00174244Y00620249*
X00174123Y00620174*
X00174008Y00620091*
X00173900Y00620000*
X00173798Y00619901*
X00173703Y00619796*
X00173615Y00619684*
X00173536Y00619566*
X00173465Y00619443*
X00173403Y00619316*
X00173350Y00619184*
X00173306Y00619050*
X00173272Y00618912*
X00173247Y00618772*
X00173232Y00618631*
X00173228Y00618490*
X00173232Y00618348*
X00173247Y00618207*
X00173272Y00618067*
X00173306Y00617929*
X00173350Y00617794*
X00173403Y00617663*
X00173465Y00617535*
X00173536Y00617413*
X00173615Y00617295*
X00173703Y00617183*
X00173798Y00617078*
X00173900Y00616979*
X00174008Y00616888*
X00174123Y00616805*
X00174244Y00616730*
X00174369Y00616663*
X00174498Y00616605*
X00174631Y00616557*
X00174768Y00616518*
X00174906Y00616488*
X00175047Y00616468*
X00175188Y00616459*
X00175330*
X00175472Y00616468*
X00175612Y00616488*
X00175751Y00616518*
X00175887Y00616557*
X00176020Y00616605*
X00176150Y00616663*
X00176276Y00616730*
X00176396Y00616805*
X00176510Y00616888*
X00176619Y00616979*
X00176721Y00617078*
X00176816Y00617183*
X00176903Y00617295*
X00176983Y00617413*
X00177054Y00617535*
X00177116Y00617663*
X00177169Y00617794*
X00177213Y00617929*
X00177247Y00618067*
X00177272Y00618207*
X00177286Y00618348*
X00177292Y00618490*
X00202692D02*
D01*
X00202686Y00618631*
X00202672Y00618772*
X00202647Y00618912*
X00202613Y00619050*
X00202569Y00619184*
X00202516Y00619316*
X00202454Y00619443*
X00202383Y00619566*
X00202303Y00619684*
X00202216Y00619796*
X00202121Y00619901*
X00202019Y00620000*
X00201910Y00620091*
X00201796Y00620174*
X00201676Y00620249*
X00201550Y00620316*
X00201420Y00620373*
X00201287Y00620422*
X00201151Y00620461*
X00201012Y00620491*
X00200872Y00620510*
X00200730Y00620520*
X00200588*
X00200447Y00620510*
X00200306Y00620491*
X00200168Y00620461*
X00200031Y00620422*
X00199898Y00620373*
X00199769Y00620316*
X00199644Y00620249*
X00199523Y00620174*
X00199408Y00620091*
X00199300Y00620000*
X00199198Y00619901*
X00199103Y00619796*
X00199015Y00619684*
X00198936Y00619566*
X00198865Y00619443*
X00198803Y00619316*
X00198750Y00619184*
X00198706Y00619050*
X00198672Y00618912*
X00198647Y00618772*
X00198632Y00618631*
X00198628Y00618490*
X00198632Y00618348*
X00198647Y00618207*
X00198672Y00618067*
X00198706Y00617929*
X00198750Y00617794*
X00198803Y00617663*
X00198865Y00617535*
X00198936Y00617413*
X00199015Y00617295*
X00199103Y00617183*
X00199198Y00617078*
X00199300Y00616979*
X00199408Y00616888*
X00199523Y00616805*
X00199644Y00616730*
X00199769Y00616663*
X00199898Y00616605*
X00200031Y00616557*
X00200168Y00616518*
X00200306Y00616488*
X00200447Y00616468*
X00200588Y00616459*
X00200730*
X00200872Y00616468*
X00201012Y00616488*
X00201151Y00616518*
X00201287Y00616557*
X00201420Y00616605*
X00201550Y00616663*
X00201676Y00616730*
X00201796Y00616805*
X00201910Y00616888*
X00202019Y00616979*
X00202121Y00617078*
X00202216Y00617183*
X00202303Y00617295*
X00202383Y00617413*
X00202454Y00617535*
X00202516Y00617663*
X00202569Y00617794*
X00202613Y00617929*
X00202647Y00618067*
X00202672Y00618207*
X00202686Y00618348*
X00202692Y00618490*
X00228092D02*
D01*
X00228086Y00618631*
X00228072Y00618772*
X00228047Y00618912*
X00228013Y00619050*
X00227969Y00619184*
X00227916Y00619316*
X00227854Y00619443*
X00227783Y00619566*
X00227703Y00619684*
X00227616Y00619796*
X00227521Y00619901*
X00227419Y00620000*
X00227310Y00620091*
X00227196Y00620174*
X00227076Y00620249*
X00226950Y00620316*
X00226820Y00620373*
X00226687Y00620422*
X00226551Y00620461*
X00226412Y00620491*
X00226272Y00620510*
X00226130Y00620520*
X00225988*
X00225847Y00620510*
X00225706Y00620491*
X00225568Y00620461*
X00225431Y00620422*
X00225298Y00620373*
X00225169Y00620316*
X00225044Y00620249*
X00224923Y00620174*
X00224808Y00620091*
X00224700Y00620000*
X00224598Y00619901*
X00224503Y00619796*
X00224415Y00619684*
X00224336Y00619566*
X00224265Y00619443*
X00224203Y00619316*
X00224150Y00619184*
X00224106Y00619050*
X00224072Y00618912*
X00224047Y00618772*
X00224032Y00618631*
X00224028Y00618490*
X00224032Y00618348*
X00224047Y00618207*
X00224072Y00618067*
X00224106Y00617929*
X00224150Y00617794*
X00224203Y00617663*
X00224265Y00617535*
X00224336Y00617413*
X00224415Y00617295*
X00224503Y00617183*
X00224598Y00617078*
X00224700Y00616979*
X00224808Y00616888*
X00224923Y00616805*
X00225044Y00616730*
X00225169Y00616663*
X00225298Y00616605*
X00225431Y00616557*
X00225568Y00616518*
X00225706Y00616488*
X00225847Y00616468*
X00225988Y00616459*
X00226130*
X00226272Y00616468*
X00226412Y00616488*
X00226551Y00616518*
X00226687Y00616557*
X00226820Y00616605*
X00226950Y00616663*
X00227076Y00616730*
X00227196Y00616805*
X00227310Y00616888*
X00227419Y00616979*
X00227521Y00617078*
X00227616Y00617183*
X00227703Y00617295*
X00227783Y00617413*
X00227854Y00617535*
X00227916Y00617663*
X00227969Y00617794*
X00228013Y00617929*
X00228047Y00618067*
X00228072Y00618207*
X00228086Y00618348*
X00228092Y00618490*
X00253492D02*
D01*
X00253486Y00618631*
X00253472Y00618772*
X00253447Y00618912*
X00253413Y00619050*
X00253369Y00619184*
X00253316Y00619316*
X00253254Y00619443*
X00253183Y00619566*
X00253103Y00619684*
X00253016Y00619796*
X00252921Y00619901*
X00252819Y00620000*
X00252710Y00620091*
X00252596Y00620174*
X00252476Y00620249*
X00252350Y00620316*
X00252220Y00620373*
X00252087Y00620422*
X00251951Y00620461*
X00251812Y00620491*
X00251672Y00620510*
X00251530Y00620520*
X00251388*
X00251247Y00620510*
X00251106Y00620491*
X00250968Y00620461*
X00250831Y00620422*
X00250698Y00620373*
X00250569Y00620316*
X00250444Y00620249*
X00250323Y00620174*
X00250208Y00620091*
X00250100Y00620000*
X00249998Y00619901*
X00249903Y00619796*
X00249815Y00619684*
X00249736Y00619566*
X00249665Y00619443*
X00249603Y00619316*
X00249550Y00619184*
X00249506Y00619050*
X00249472Y00618912*
X00249447Y00618772*
X00249432Y00618631*
X00249428Y00618490*
X00249432Y00618348*
X00249447Y00618207*
X00249472Y00618067*
X00249506Y00617929*
X00249550Y00617794*
X00249603Y00617663*
X00249665Y00617535*
X00249736Y00617413*
X00249815Y00617295*
X00249903Y00617183*
X00249998Y00617078*
X00250100Y00616979*
X00250208Y00616888*
X00250323Y00616805*
X00250444Y00616730*
X00250569Y00616663*
X00250698Y00616605*
X00250831Y00616557*
X00250968Y00616518*
X00251106Y00616488*
X00251247Y00616468*
X00251388Y00616459*
X00251530*
X00251672Y00616468*
X00251812Y00616488*
X00251951Y00616518*
X00252087Y00616557*
X00252220Y00616605*
X00252350Y00616663*
X00252476Y00616730*
X00252596Y00616805*
X00252710Y00616888*
X00252819Y00616979*
X00252921Y00617078*
X00253016Y00617183*
X00253103Y00617295*
X00253183Y00617413*
X00253254Y00617535*
X00253316Y00617663*
X00253369Y00617794*
X00253413Y00617929*
X00253447Y00618067*
X00253472Y00618207*
X00253486Y00618348*
X00253492Y00618490*
X00313701Y00065679D02*
D01*
X00313696Y00065821*
X00313682Y00065962*
X00313657Y00066102*
X00313623Y00066239*
X00313579Y00066374*
X00313526Y00066506*
X00313463Y00066633*
X00313393Y00066756*
X00313313Y00066874*
X00313226Y00066985*
X00313131Y00067091*
X00313029Y00067189*
X00312920Y00067281*
X00312806Y00067364*
X00312685Y00067439*
X00312560Y00067506*
X00312431Y00067564*
X00312297Y00067612*
X00312161Y00067651*
X00312022Y00067681*
X00311882Y00067700*
X00311740Y00067710*
X00311599*
X00311457Y00067700*
X00311317Y00067681*
X00311178Y00067651*
X00311042Y00067612*
X00310908Y00067564*
X00310779Y00067506*
X00310653Y00067439*
X00310533Y00067364*
X00310418Y00067281*
X00310310Y00067189*
X00310208Y00067091*
X00310113Y00066985*
X00310026Y00066874*
X00309946Y00066756*
X00309875Y00066633*
X00309813Y00066506*
X00309760Y00066374*
X00309716Y00066239*
X00309682Y00066102*
X00309657Y00065962*
X00309642Y00065821*
X00309637Y00065679*
X00309642Y00065538*
X00309657Y00065397*
X00309682Y00065257*
X00309716Y00065119*
X00309760Y00064984*
X00309813Y00064853*
X00309875Y00064725*
X00309946Y00064603*
X00310026Y00064485*
X00310113Y00064373*
X00310208Y00064268*
X00310310Y00064169*
X00310418Y00064078*
X00310533Y00063995*
X00310653Y00063920*
X00310779Y00063853*
X00310908Y00063795*
X00311042Y00063747*
X00311178Y00063708*
X00311317Y00063678*
X00311457Y00063659*
X00311599Y00063649*
X00311740*
X00311882Y00063659*
X00312022Y00063678*
X00312161Y00063708*
X00312297Y00063747*
X00312431Y00063795*
X00312560Y00063853*
X00312685Y00063920*
X00312806Y00063995*
X00312920Y00064078*
X00313029Y00064169*
X00313131Y00064268*
X00313226Y00064373*
X00313313Y00064485*
X00313393Y00064603*
X00313463Y00064725*
X00313526Y00064853*
X00313579Y00064984*
X00313623Y00065119*
X00313657Y00065257*
X00313682Y00065397*
X00313696Y00065538*
X00313701Y00065679*
Y00020679D02*
D01*
X00313696Y00020821*
X00313682Y00020962*
X00313657Y00021102*
X00313623Y00021239*
X00313579Y00021374*
X00313526Y00021506*
X00313463Y00021633*
X00313393Y00021756*
X00313313Y00021874*
X00313226Y00021985*
X00313131Y00022091*
X00313029Y00022189*
X00312920Y00022281*
X00312806Y00022364*
X00312685Y00022439*
X00312560Y00022506*
X00312431Y00022563*
X00312297Y00022612*
X00312161Y00022651*
X00312022Y00022680*
X00311882Y00022700*
X00311740Y00022710*
X00311599*
X00311457Y00022700*
X00311317Y00022680*
X00311178Y00022651*
X00311042Y00022612*
X00310908Y00022563*
X00310779Y00022506*
X00310653Y00022439*
X00310533Y00022364*
X00310418Y00022281*
X00310310Y00022189*
X00310208Y00022091*
X00310113Y00021985*
X00310026Y00021874*
X00309946Y00021756*
X00309875Y00021633*
X00309813Y00021506*
X00309760Y00021374*
X00309716Y00021239*
X00309682Y00021102*
X00309657Y00020962*
X00309642Y00020821*
X00309637Y00020679*
X00309642Y00020538*
X00309657Y00020396*
X00309682Y00020257*
X00309716Y00020119*
X00309760Y00019984*
X00309813Y00019853*
X00309875Y00019725*
X00309946Y00019602*
X00310026Y00019485*
X00310113Y00019373*
X00310208Y00019268*
X00310310Y00019169*
X00310418Y00019078*
X00310533Y00018995*
X00310653Y00018920*
X00310779Y00018853*
X00310908Y00018795*
X00311042Y00018747*
X00311178Y00018708*
X00311317Y00018678*
X00311457Y00018659*
X00311599Y00018649*
X00311740*
X00311882Y00018659*
X00312022Y00018678*
X00312161Y00018708*
X00312297Y00018747*
X00312431Y00018795*
X00312560Y00018853*
X00312685Y00018920*
X00312806Y00018995*
X00312920Y00019078*
X00313029Y00019169*
X00313131Y00019268*
X00313226Y00019373*
X00313313Y00019485*
X00313393Y00019602*
X00313463Y00019725*
X00313526Y00019853*
X00313579Y00019984*
X00313623Y00020119*
X00313657Y00020257*
X00313682Y00020396*
X00313696Y00020538*
X00313701Y00020679*
X00378701D02*
D01*
X00378696Y00020821*
X00378681Y00020962*
X00378657Y00021102*
X00378623Y00021239*
X00378579Y00021374*
X00378526Y00021506*
X00378464Y00021633*
X00378393Y00021756*
X00378313Y00021874*
X00378226Y00021985*
X00378131Y00022091*
X00378029Y00022189*
X00377921Y00022281*
X00377806Y00022364*
X00377685Y00022439*
X00377560Y00022506*
X00377431Y00022563*
X00377297Y00022612*
X00377161Y00022651*
X00377022Y00022680*
X00376882Y00022700*
X00376740Y00022710*
X00376598*
X00376457Y00022700*
X00376317Y00022680*
X00376178Y00022651*
X00376041Y00022612*
X00375908Y00022563*
X00375779Y00022506*
X00375653Y00022439*
X00375533Y00022364*
X00375418Y00022281*
X00375310Y00022189*
X00375208Y00022091*
X00375113Y00021985*
X00375025Y00021874*
X00374946Y00021756*
X00374875Y00021633*
X00374813Y00021506*
X00374760Y00021374*
X00374716Y00021239*
X00374682Y00021102*
X00374657Y00020962*
X00374642Y00020821*
X00374637Y00020679*
X00374642Y00020538*
X00374657Y00020396*
X00374682Y00020257*
X00374716Y00020119*
X00374760Y00019984*
X00374813Y00019853*
X00374875Y00019725*
X00374946Y00019602*
X00375025Y00019485*
X00375113Y00019373*
X00375208Y00019268*
X00375310Y00019169*
X00375418Y00019078*
X00375533Y00018995*
X00375653Y00018920*
X00375779Y00018853*
X00375908Y00018795*
X00376041Y00018747*
X00376178Y00018708*
X00376317Y00018678*
X00376457Y00018659*
X00376598Y00018649*
X00376740*
X00376882Y00018659*
X00377022Y00018678*
X00377161Y00018708*
X00377297Y00018747*
X00377431Y00018795*
X00377560Y00018853*
X00377685Y00018920*
X00377806Y00018995*
X00377921Y00019078*
X00378029Y00019169*
X00378131Y00019268*
X00378226Y00019373*
X00378313Y00019485*
X00378393Y00019602*
X00378464Y00019725*
X00378526Y00019853*
X00378579Y00019984*
X00378623Y00020119*
X00378657Y00020257*
X00378681Y00020396*
X00378696Y00020538*
X00378701Y00020679*
Y00065679D02*
D01*
X00378696Y00065821*
X00378681Y00065962*
X00378657Y00066102*
X00378623Y00066239*
X00378579Y00066374*
X00378526Y00066506*
X00378464Y00066633*
X00378393Y00066756*
X00378313Y00066874*
X00378226Y00066985*
X00378131Y00067091*
X00378029Y00067189*
X00377921Y00067281*
X00377806Y00067364*
X00377685Y00067439*
X00377560Y00067506*
X00377431Y00067564*
X00377297Y00067612*
X00377161Y00067651*
X00377022Y00067681*
X00376882Y00067700*
X00376740Y00067710*
X00376598*
X00376457Y00067700*
X00376317Y00067681*
X00376178Y00067651*
X00376041Y00067612*
X00375908Y00067564*
X00375779Y00067506*
X00375653Y00067439*
X00375533Y00067364*
X00375418Y00067281*
X00375310Y00067189*
X00375208Y00067091*
X00375113Y00066985*
X00375025Y00066874*
X00374946Y00066756*
X00374875Y00066633*
X00374813Y00066506*
X00374760Y00066374*
X00374716Y00066239*
X00374682Y00066102*
X00374657Y00065962*
X00374642Y00065821*
X00374637Y00065679*
X00374642Y00065538*
X00374657Y00065397*
X00374682Y00065257*
X00374716Y00065119*
X00374760Y00064984*
X00374813Y00064853*
X00374875Y00064725*
X00374946Y00064603*
X00375025Y00064485*
X00375113Y00064373*
X00375208Y00064268*
X00375310Y00064169*
X00375418Y00064078*
X00375533Y00063995*
X00375653Y00063920*
X00375779Y00063853*
X00375908Y00063795*
X00376041Y00063747*
X00376178Y00063708*
X00376317Y00063678*
X00376457Y00063659*
X00376598Y00063649*
X00376740*
X00376882Y00063659*
X00377022Y00063678*
X00377161Y00063708*
X00377297Y00063747*
X00377431Y00063795*
X00377560Y00063853*
X00377685Y00063920*
X00377806Y00063995*
X00377921Y00064078*
X00378029Y00064169*
X00378131Y00064268*
X00378226Y00064373*
X00378313Y00064485*
X00378393Y00064603*
X00378464Y00064725*
X00378526Y00064853*
X00378579Y00064984*
X00378623Y00065119*
X00378657Y00065257*
X00378681Y00065397*
X00378696Y00065538*
X00378701Y00065679*
X00422921Y00082189D02*
D01*
X00422916Y00082331*
X00422902Y00082472*
X00422877Y00082612*
X00422843Y00082749*
X00422799Y00082884*
X00422746Y00083016*
X00422683Y00083143*
X00422613Y00083266*
X00422533Y00083384*
X00422446Y00083495*
X00422351Y00083601*
X00422249Y00083699*
X00422140Y00083791*
X00422026Y00083874*
X00421905Y00083949*
X00421780Y00084016*
X00421651Y00084074*
X00421517Y00084122*
X00421381Y00084161*
X00421242Y00084191*
X00421102Y00084210*
X00420960Y00084220*
X00420819*
X00420677Y00084210*
X00420537Y00084191*
X00420398Y00084161*
X00420262Y00084122*
X00420128Y00084074*
X00419999Y00084016*
X00419873Y00083949*
X00419753Y00083874*
X00419638Y00083791*
X00419530Y00083699*
X00419428Y00083601*
X00419333Y00083495*
X00419246Y00083384*
X00419166Y00083266*
X00419095Y00083143*
X00419033Y00083016*
X00418980Y00082884*
X00418936Y00082749*
X00418902Y00082612*
X00418877Y00082472*
X00418862Y00082331*
X00418857Y00082189*
X00418862Y00082048*
X00418877Y00081907*
X00418902Y00081767*
X00418936Y00081629*
X00418980Y00081494*
X00419033Y00081363*
X00419095Y00081235*
X00419166Y00081113*
X00419246Y00080995*
X00419333Y00080883*
X00419428Y00080778*
X00419530Y00080679*
X00419638Y00080588*
X00419753Y00080505*
X00419873Y00080430*
X00419999Y00080363*
X00420128Y00080305*
X00420262Y00080257*
X00420398Y00080218*
X00420537Y00080188*
X00420677Y00080169*
X00420819Y00080159*
X00420960*
X00421102Y00080169*
X00421242Y00080188*
X00421381Y00080218*
X00421517Y00080257*
X00421651Y00080305*
X00421780Y00080363*
X00421905Y00080430*
X00422026Y00080505*
X00422140Y00080588*
X00422249Y00080679*
X00422351Y00080778*
X00422446Y00080883*
X00422533Y00080995*
X00422613Y00081113*
X00422683Y00081235*
X00422746Y00081363*
X00422799Y00081494*
X00422843Y00081629*
X00422877Y00081767*
X00422902Y00081907*
X00422916Y00082048*
X00422921Y00082189*
Y00037189D02*
D01*
X00422916Y00037331*
X00422902Y00037472*
X00422877Y00037612*
X00422843Y00037749*
X00422799Y00037884*
X00422746Y00038016*
X00422683Y00038143*
X00422613Y00038266*
X00422533Y00038384*
X00422446Y00038495*
X00422351Y00038601*
X00422249Y00038699*
X00422140Y00038791*
X00422026Y00038874*
X00421905Y00038949*
X00421780Y00039016*
X00421651Y00039073*
X00421517Y00039122*
X00421381Y00039161*
X00421242Y00039190*
X00421102Y00039210*
X00420960Y00039220*
X00420819*
X00420677Y00039210*
X00420537Y00039190*
X00420398Y00039161*
X00420262Y00039122*
X00420128Y00039073*
X00419999Y00039016*
X00419873Y00038949*
X00419753Y00038874*
X00419638Y00038791*
X00419530Y00038699*
X00419428Y00038601*
X00419333Y00038495*
X00419246Y00038384*
X00419166Y00038266*
X00419095Y00038143*
X00419033Y00038016*
X00418980Y00037884*
X00418936Y00037749*
X00418902Y00037612*
X00418877Y00037472*
X00418862Y00037331*
X00418857Y00037189*
X00418862Y00037048*
X00418877Y00036906*
X00418902Y00036767*
X00418936Y00036629*
X00418980Y00036494*
X00419033Y00036363*
X00419095Y00036235*
X00419166Y00036112*
X00419246Y00035995*
X00419333Y00035883*
X00419428Y00035778*
X00419530Y00035679*
X00419638Y00035588*
X00419753Y00035505*
X00419873Y00035430*
X00419999Y00035363*
X00420128Y00035305*
X00420262Y00035257*
X00420398Y00035218*
X00420537Y00035188*
X00420677Y00035169*
X00420819Y00035159*
X00420960*
X00421102Y00035169*
X00421242Y00035188*
X00421381Y00035218*
X00421517Y00035257*
X00421651Y00035305*
X00421780Y00035363*
X00421905Y00035430*
X00422026Y00035505*
X00422140Y00035588*
X00422249Y00035679*
X00422351Y00035778*
X00422446Y00035883*
X00422533Y00035995*
X00422613Y00036112*
X00422683Y00036235*
X00422746Y00036363*
X00422799Y00036494*
X00422843Y00036629*
X00422877Y00036767*
X00422902Y00036906*
X00422916Y00037048*
X00422921Y00037189*
X00487921D02*
D01*
X00487916Y00037331*
X00487901Y00037472*
X00487877Y00037612*
X00487843Y00037749*
X00487799Y00037884*
X00487746Y00038016*
X00487684Y00038143*
X00487613Y00038266*
X00487533Y00038384*
X00487446Y00038495*
X00487351Y00038601*
X00487249Y00038699*
X00487141Y00038791*
X00487026Y00038874*
X00486905Y00038949*
X00486780Y00039016*
X00486651Y00039073*
X00486517Y00039122*
X00486381Y00039161*
X00486242Y00039190*
X00486102Y00039210*
X00485960Y00039220*
X00485818*
X00485677Y00039210*
X00485537Y00039190*
X00485398Y00039161*
X00485261Y00039122*
X00485128Y00039073*
X00484999Y00039016*
X00484873Y00038949*
X00484753Y00038874*
X00484638Y00038791*
X00484530Y00038699*
X00484428Y00038601*
X00484333Y00038495*
X00484245Y00038384*
X00484166Y00038266*
X00484095Y00038143*
X00484033Y00038016*
X00483980Y00037884*
X00483936Y00037749*
X00483902Y00037612*
X00483877Y00037472*
X00483862Y00037331*
X00483857Y00037189*
X00483862Y00037048*
X00483877Y00036906*
X00483902Y00036767*
X00483936Y00036629*
X00483980Y00036494*
X00484033Y00036363*
X00484095Y00036235*
X00484166Y00036112*
X00484245Y00035995*
X00484333Y00035883*
X00484428Y00035778*
X00484530Y00035679*
X00484638Y00035588*
X00484753Y00035505*
X00484873Y00035430*
X00484999Y00035363*
X00485128Y00035305*
X00485261Y00035257*
X00485398Y00035218*
X00485537Y00035188*
X00485677Y00035169*
X00485818Y00035159*
X00485960*
X00486102Y00035169*
X00486242Y00035188*
X00486381Y00035218*
X00486517Y00035257*
X00486651Y00035305*
X00486780Y00035363*
X00486905Y00035430*
X00487026Y00035505*
X00487141Y00035588*
X00487249Y00035679*
X00487351Y00035778*
X00487446Y00035883*
X00487533Y00035995*
X00487613Y00036112*
X00487684Y00036235*
X00487746Y00036363*
X00487799Y00036494*
X00487843Y00036629*
X00487877Y00036767*
X00487901Y00036906*
X00487916Y00037048*
X00487921Y00037189*
Y00082189D02*
D01*
X00487916Y00082331*
X00487901Y00082472*
X00487877Y00082612*
X00487843Y00082749*
X00487799Y00082884*
X00487746Y00083016*
X00487684Y00083143*
X00487613Y00083266*
X00487533Y00083384*
X00487446Y00083495*
X00487351Y00083601*
X00487249Y00083699*
X00487141Y00083791*
X00487026Y00083874*
X00486905Y00083949*
X00486780Y00084016*
X00486651Y00084074*
X00486517Y00084122*
X00486381Y00084161*
X00486242Y00084191*
X00486102Y00084210*
X00485960Y00084220*
X00485818*
X00485677Y00084210*
X00485537Y00084191*
X00485398Y00084161*
X00485261Y00084122*
X00485128Y00084074*
X00484999Y00084016*
X00484873Y00083949*
X00484753Y00083874*
X00484638Y00083791*
X00484530Y00083699*
X00484428Y00083601*
X00484333Y00083495*
X00484245Y00083384*
X00484166Y00083266*
X00484095Y00083143*
X00484033Y00083016*
X00483980Y00082884*
X00483936Y00082749*
X00483902Y00082612*
X00483877Y00082472*
X00483862Y00082331*
X00483857Y00082189*
X00483862Y00082048*
X00483877Y00081907*
X00483902Y00081767*
X00483936Y00081629*
X00483980Y00081494*
X00484033Y00081363*
X00484095Y00081235*
X00484166Y00081113*
X00484245Y00080995*
X00484333Y00080883*
X00484428Y00080778*
X00484530Y00080679*
X00484638Y00080588*
X00484753Y00080505*
X00484873Y00080430*
X00484999Y00080363*
X00485128Y00080305*
X00485261Y00080257*
X00485398Y00080218*
X00485537Y00080188*
X00485677Y00080169*
X00485818Y00080159*
X00485960*
X00486102Y00080169*
X00486242Y00080188*
X00486381Y00080218*
X00486517Y00080257*
X00486651Y00080305*
X00486780Y00080363*
X00486905Y00080430*
X00487026Y00080505*
X00487141Y00080588*
X00487249Y00080679*
X00487351Y00080778*
X00487446Y00080883*
X00487533Y00080995*
X00487613Y00081113*
X00487684Y00081235*
X00487746Y00081363*
X00487799Y00081494*
X00487843Y00081629*
X00487877Y00081767*
X00487901Y00081907*
X00487916Y00082048*
X00487921Y00082189*
M02*