%FSDAX44Y44*%
%MOMM*%
%SFA1B1*%

%IPPOS*%
%ADD15C,0.050800*%
%LNcoenv_pcb-1*%
%LPD*%
G54D15*
X00283789Y00062779D02*
X00292789D01*
X00288290Y00058279D02*
Y00067279D01*
X00283789Y00112479D02*
X00292789D01*
X00288290Y00107979D02*
Y00116979D01*
X00417139Y00111760D02*
X00426139D01*
X00421640Y00107259D02*
Y00116259D01*
X00315539Y00111760D02*
X00324539D01*
X00320040Y00107259D02*
Y00116259D01*
X00450159Y00036830D02*
X00459159D01*
X00454660Y00032329D02*
Y00041329D01*
X00450159Y00062230D02*
X00459159D01*
X00454660Y00057729D02*
Y00066729D01*
X00339669Y00021590D02*
X00348669D01*
X00344170Y00017089D02*
Y00026089D01*
X00339669Y00046990D02*
X00348669D01*
X00344170Y00042489D02*
Y00051489D01*
X00227909Y00036830D02*
X00236909D01*
X00232410Y00032329D02*
Y00041329D01*
X00227909Y00062230D02*
X00236909D01*
X00232410Y00057729D02*
Y00066729D01*
X00161869Y00109220D02*
X00170869D01*
X00166370Y00104719D02*
Y00113719D01*
X00161869Y00083820D02*
X00170869D01*
X00166370Y00079319D02*
Y00088319D01*
X00544139Y00532130D02*
X00553139D01*
X00548640Y00527629D02*
Y00536629D01*
X00544139Y00557530D02*
X00553139D01*
X00548640Y00553029D02*
Y00562029D01*
X00544139Y00582930D02*
X00553139D01*
X00548640Y00578429D02*
Y00587429D01*
X00544139Y00608330D02*
X00553139D01*
X00548640Y00603829D02*
Y00612829D01*
X00029289Y00157480D02*
X00039289D01*
X00034290Y00152479D02*
Y00162479D01*
X00054689Y00157480D02*
X00064689D01*
X00059690Y00152479D02*
Y00162479D01*
X00080089Y00157480D02*
X00090089D01*
X00085090Y00152479D02*
Y00162479D01*
X00105489Y00157480D02*
X00115489D01*
X00110490Y00152479D02*
Y00162479D01*
X00194909Y00082189D02*
X00204909D01*
X00199909Y00077189D02*
Y00087189D01*
X00194909Y00037189D02*
X00204909D01*
X00199909Y00032189D02*
Y00042189D01*
X00259909Y00037189D02*
X00269909D01*
X00264909Y00032189D02*
Y00042189D01*
X00259909Y00082189D02*
X00269909D01*
X00264909Y00077189D02*
Y00087189D01*
X00144859Y00515620D02*
X00154859D01*
X00149860Y00510619D02*
Y00520619D01*
X00373059Y00515620D02*
X00383059D01*
X00378059Y00510619D02*
Y00520619D01*
X00398459Y00515620D02*
X00408459D01*
X00403459Y00510619D02*
Y00520619D01*
X00423859Y00515620D02*
X00433859D01*
X00428859Y00510619D02*
Y00520619D01*
X00449259Y00515620D02*
X00459259D01*
X00454259Y00510619D02*
Y00520619D01*
X00474659Y00515620D02*
X00484659D01*
X00479659Y00510619D02*
Y00520619D01*
X00500059Y00515620D02*
X00510059D01*
X00505059Y00510619D02*
Y00520619D01*
X00246059Y00515620D02*
X00256059D01*
X00251059Y00510619D02*
Y00520619D01*
X00220659Y00515620D02*
X00230659D01*
X00225659Y00510619D02*
Y00520619D01*
X00195259Y00515620D02*
X00205259D01*
X00200259Y00510619D02*
Y00520619D01*
X00169859Y00515620D02*
X00179859D01*
X00174859Y00510619D02*
Y00520619D01*
X00271459Y00515620D02*
X00281459D01*
X00276459Y00510619D02*
Y00520619D01*
X00296859Y00515620D02*
X00306859D01*
X00301859Y00510619D02*
Y00520619D01*
X00322259Y00515620D02*
X00332259D01*
X00327259Y00510619D02*
Y00520619D01*
X00347659Y00515620D02*
X00357659D01*
X00352659Y00510619D02*
Y00520619D01*
X00144859Y00139700D02*
X00154859D01*
X00149860Y00134699D02*
Y00144699D01*
X00373059Y00139700D02*
X00383059D01*
X00378059Y00134699D02*
Y00144699D01*
X00398459Y00139700D02*
X00408459D01*
X00403459Y00134699D02*
Y00144699D01*
X00423859Y00139700D02*
X00433859D01*
X00428859Y00134699D02*
Y00144699D01*
X00449259Y00139700D02*
X00459259D01*
X00454259Y00134699D02*
Y00144699D01*
X00474659Y00139700D02*
X00484659D01*
X00479659Y00134699D02*
Y00144699D01*
X00500059Y00139700D02*
X00510059D01*
X00505059Y00134699D02*
Y00144699D01*
X00246059Y00139700D02*
X00256059D01*
X00251059Y00134699D02*
Y00144699D01*
X00220659Y00139700D02*
X00230659D01*
X00225659Y00134699D02*
Y00144699D01*
X00195259Y00139700D02*
X00205259D01*
X00200259Y00134699D02*
Y00144699D01*
X00169859Y00139700D02*
X00179859D01*
X00174859Y00134699D02*
Y00144699D01*
X00271459Y00139700D02*
X00281459D01*
X00276459Y00134699D02*
Y00144699D01*
X00296859Y00139700D02*
X00306859D01*
X00301859Y00134699D02*
Y00144699D01*
X00322259Y00139700D02*
X00332259D01*
X00327259Y00134699D02*
Y00144699D01*
X00347659Y00139700D02*
X00357659D01*
X00352659Y00134699D02*
Y00144699D01*
X00500059Y00454660D02*
X00510059D01*
X00505059Y00449659D02*
Y00459659D01*
X00271859Y00454660D02*
X00281859D01*
X00276860Y00449659D02*
Y00459659D01*
X00246459Y00454660D02*
X00256459D01*
X00251460Y00449659D02*
Y00459659D01*
X00221059Y00454660D02*
X00231059D01*
X00226060Y00449659D02*
Y00459659D01*
X00195659Y00454660D02*
X00205659D01*
X00200660Y00449659D02*
Y00459659D01*
X00170259Y00454660D02*
X00180259D01*
X00175260Y00449659D02*
Y00459659D01*
X00144859Y00454660D02*
X00154859D01*
X00149860Y00449659D02*
Y00459659D01*
X00398859Y00454660D02*
X00408859D01*
X00403860Y00449659D02*
Y00459659D01*
X00424259Y00454660D02*
X00434259D01*
X00429260Y00449659D02*
Y00459659D01*
X00449659Y00454660D02*
X00459659D01*
X00454660Y00449659D02*
Y00459659D01*
X00475059Y00454660D02*
X00485059D01*
X00480060Y00449659D02*
Y00459659D01*
X00373459Y00454660D02*
X00383459D01*
X00378460Y00449659D02*
Y00459659D01*
X00348059Y00454660D02*
X00358059D01*
X00353060Y00449659D02*
Y00459659D01*
X00322659Y00454660D02*
X00332659D01*
X00327660Y00449659D02*
Y00459659D01*
X00297259Y00454660D02*
X00307259D01*
X00302260Y00449659D02*
Y00459659D01*
X00500059Y00200389D02*
X00510059D01*
X00505059Y00195389D02*
Y00205389D01*
X00271859Y00200389D02*
X00281859D01*
X00276860Y00195389D02*
Y00205389D01*
X00246459Y00200389D02*
X00256459D01*
X00251460Y00195389D02*
Y00205389D01*
X00221059Y00200389D02*
X00231059D01*
X00226060Y00195389D02*
Y00205389D01*
X00195659Y00200389D02*
X00205659D01*
X00200660Y00195389D02*
Y00205389D01*
X00170259Y00200389D02*
X00180259D01*
X00175260Y00195389D02*
Y00205389D01*
X00144859Y00200389D02*
X00154859D01*
X00149860Y00195389D02*
Y00205389D01*
X00398859Y00200389D02*
X00408859D01*
X00403860Y00195389D02*
Y00205389D01*
X00424259Y00200389D02*
X00434259D01*
X00429260Y00195389D02*
Y00205389D01*
X00449659Y00200389D02*
X00459659D01*
X00454660Y00195389D02*
Y00205389D01*
X00475059Y00200389D02*
X00485059D01*
X00480060Y00195389D02*
Y00205389D01*
X00373459Y00200389D02*
X00383459D01*
X00378460Y00195389D02*
Y00205389D01*
X00348059Y00200389D02*
X00358059D01*
X00353060Y00195389D02*
Y00205389D01*
X00322659Y00200389D02*
X00332659D01*
X00327660Y00195389D02*
Y00205389D01*
X00297259Y00200389D02*
X00307259D01*
X00302260Y00195389D02*
Y00205389D01*
X00078819Y00619760D02*
X00088819D01*
X00083820Y00614759D02*
Y00624759D01*
X00078819Y00594360D02*
X00088819D01*
X00083820Y00589359D02*
Y00599359D01*
X00078819Y00568960D02*
X00088819D01*
X00083820Y00563959D02*
Y00573959D01*
X00078819Y00543560D02*
X00088819D01*
X00083820Y00538559D02*
Y00548559D01*
X00078819Y00518160D02*
X00088819D01*
X00083820Y00513159D02*
Y00523159D01*
X00078819Y00492760D02*
X00088819D01*
X00083820Y00487759D02*
Y00497759D01*
X00374729Y00618490D02*
X00384729D01*
X00379730Y00613489D02*
Y00623489D01*
X00349329Y00618490D02*
X00359329D01*
X00354330Y00613489D02*
Y00623489D01*
X00501729Y00618490D02*
X00511729D01*
X00506730Y00613489D02*
Y00623489D01*
X00476329Y00618490D02*
X00486329D01*
X00481330Y00613489D02*
Y00623489D01*
X00450929Y00618490D02*
X00460929D01*
X00455930Y00613489D02*
Y00623489D01*
X00425529Y00618490D02*
X00435529D01*
X00430530Y00613489D02*
Y00623489D01*
X00400129Y00618490D02*
X00410129D01*
X00405130Y00613489D02*
Y00623489D01*
X00144859Y00618490D02*
X00154859D01*
X00149860Y00613489D02*
Y00623489D01*
X00170259Y00618490D02*
X00180259D01*
X00175260Y00613489D02*
Y00623489D01*
X00195659Y00618490D02*
X00205659D01*
X00200660Y00613489D02*
Y00623489D01*
X00221059Y00618490D02*
X00231059D01*
X00226060Y00613489D02*
Y00623489D01*
X00246459Y00618490D02*
X00256459D01*
X00251460Y00613489D02*
Y00623489D01*
X00306669Y00065679D02*
X00316669D01*
X00311669Y00060679D02*
Y00070679D01*
X00306669Y00020679D02*
X00316669D01*
X00311669Y00015679D02*
Y00025679D01*
X00371669Y00020679D02*
X00381669D01*
X00376669Y00015679D02*
Y00025679D01*
X00371669Y00065679D02*
X00381669D01*
X00376669Y00060679D02*
Y00070679D01*
X00415889Y00082189D02*
X00425889D01*
X00420889Y00077189D02*
Y00087189D01*
X00415889Y00037189D02*
X00425889D01*
X00420889Y00032189D02*
Y00042189D01*
X00480889Y00037189D02*
X00490889D01*
X00485889Y00032189D02*
Y00042189D01*
X00480889Y00082189D02*
X00490889D01*
X00485889Y00077189D02*
Y00087189D01*
M02*