M48
;Layer_Color=9474304
;FILE_FORMAT=4:4
METRIC
;TYPE=PLATED
T1F00S00C0.9000
T2F00S00C1.0000
%
T01
X00166370Y00083820
Y00109220
X00232410Y00062230
Y00036830
X00288290Y00062780
X00288290Y00112480
X00320040Y00111760
X00344170Y00046990
Y00021590
X00454660Y00036830
Y00062230
X00421640Y00111760
X00548640Y00532130
Y00557530
Y00582930
Y00608330
T02
X00034290Y00157480
X00059690
X00085090
X00110490
X00149860Y00139700
X00174860
X00200260
X00225660
X00251060
X00276460
X00301860
X00327260
X00352660
X00378060
X00403460
X00428860
X00454260
X00479660
X00505060
Y00200390
X00480060
X00454660
X00429260
X00403860
X00378460
X00353060
X00327660
X00302260
X00276860
X00251460
X00226060
X00200660
X00175260
X00149860
X00199910Y00082190
Y00037190
X00264910
Y00082190
X00311670Y00065680
Y00020680
X00376670
Y00065680
X00420890Y00082190
Y00037190
X00485890
Y00082190
X00480060Y00454660
X00505060
X00454660
X00429260
X00403860
X00378460
X00353060
X00327660
X00302260
X00276860
X00251460
X00226060
X00200660
X00175260
X00149860
Y00515620
X00174860
X00200260
X00225660
X00251060
X00276460
X00301860
X00327260
X00352660
X00378060
X00403460
X00428860
X00454260
X00479660
X00505060
X00506730Y00618490
X00481330
X00455930
X00430530
X00405130
X00379730
X00354330
X00251460
X00226060
X00200660
X00175260
X00149860
X00083820Y00619760
Y00594360
Y00568960
Y00543560
Y00518160
Y00492760
M30
