%FSDAX44Y44*%
%MOMM*%
%SFA1B1*%

%IPPOS*%
%AMD12*
4,1,8,-0.675640,-0.899160,0.675640,-0.899160,0.899160,-0.675640,0.899160,0.675640,0.675640,0.899160,-0.675640,0.899160,-0.899160,0.675640,-0.899160,-0.675640,-0.675640,-0.899160,0.0*
1,1,0.450000,-0.675640,-0.675640*
1,1,0.450000,0.675640,-0.675640*
1,1,0.450000,0.675640,0.675640*
1,1,0.450000,-0.675640,0.675640*
%
%AMD14*
4,1,8,-0.899160,0.675640,-0.899160,-0.675640,-0.675640,-0.899160,0.675640,-0.899160,0.899160,-0.675640,0.899160,0.675640,0.675640,0.899160,-0.675640,0.899160,-0.899160,0.675640,0.0*
1,1,0.450000,-0.675640,0.675640*
1,1,0.450000,-0.675640,-0.675640*
1,1,0.450000,0.675640,-0.675640*
1,1,0.450000,0.675640,0.675640*
%
%ADD10C,0.799998*%
%ADD11C,1.799996*%
G04~CAMADD=12~8~0.0~0.0~708.7~708.7~88.6~0.0~15~0.0~0.0~0.0~0.0~0~0.0~0.0~0.0~0.0~0~0.0~0.0~0.0~180.0~708.0~708.0*
%ADD12D12*%
%ADD13C,1.999996*%
G04~CAMADD=14~8~0.0~0.0~708.7~708.7~88.6~0.0~15~0.0~0.0~0.0~0.0~0~0.0~0.0~0.0~0.0~0~0.0~0.0~0.0~90.0~708.0~708.0*
%ADD14D14*%
%LNcoenv_pcb-1*%
%LPD*%
G36*
X00601980Y00000000D02*
X00000000D01*
Y00701040*
X00601980*
Y00000000*
G37*
%LNcoenv_pcb-2*%
%LPC*%
G36*
X00448310Y00691067D02*
X00053340D01*
X00050990Y00690757*
X00048800Y00689851*
X00046920Y00688408*
X00008820Y00650308*
X00007378Y00648428*
X00006471Y00646238*
X00006161Y00643890*
Y00509270*
X00006471Y00506920*
X00007378Y00504730*
X00008820Y00502850*
X00025330Y00486340*
X00027210Y00484897*
X00029399Y00483991*
X00031750Y00483681*
X00060244*
X00060730Y00482508*
X00007550Y00429328*
X00006107Y00427448*
X00005201Y00425258*
X00004891Y00422910*
Y00142240*
X00005201Y00139890*
X00006107Y00137700*
X00007550Y00135820*
X00029140Y00114230*
X00031020Y00112787*
X00033210Y00111881*
X00035560Y00111571*
X00101600*
X00103948Y00111881*
X00106138Y00112787*
X00108018Y00114230*
X00110490Y00116701*
X00124390Y00102800*
X00126270Y00101357*
X00128460Y00100451*
X00130810Y00100141*
X00155688*
X00156384Y00099234*
X00158943Y00097271*
X00159045Y00096928*
Y00096110*
X00158943Y00095767*
X00156384Y00093804*
X00154140Y00090879*
X00152729Y00087474*
X00152248Y00083820*
X00152729Y00080164*
X00154140Y00076759*
X00156384Y00073834*
X00159309Y00071590*
X00162714Y00070179*
X00166370Y00069698*
X00170024Y00070179*
X00173429Y00071590*
X00176354Y00073834*
X00177050Y00074741*
X00186881*
X00187377Y00073815*
X00189251Y00071531*
X00191535Y00069657*
X00194141Y00068264*
X00196969Y00067406*
X00199909Y00067116*
X00201944Y00067317*
X00212871Y00056390*
Y00056389*
X00214751Y00054947*
X00216940Y00054040*
X00219290Y00053731*
X00221284*
X00222424Y00052244*
X00225349Y00050000*
X00228041Y00048885*
Y00047510*
X00226589Y00046909*
X00225195Y00045839*
X00232410Y00038625*
X00239623Y00045839*
X00238229Y00046909*
X00236777Y00047510*
Y00048885*
X00239469Y00050000*
X00242394Y00052244*
X00244638Y00055169*
X00246049Y00058574*
X00246530Y00062230*
X00246049Y00065884*
X00244638Y00069289*
X00242680Y00071841*
X00243186Y00073111*
X00252954*
X00254251Y00071531*
X00256535Y00069657*
X00259141Y00068264*
X00261969Y00067406*
X00264909Y00067116*
X00267849Y00067406*
X00270677Y00068264*
X00273283Y00069657*
X00275567Y00071531*
X00276046Y00072114*
X00276192Y00072097*
X00276762Y00070754*
X00276060Y00069839*
X00274649Y00066434*
X00274168Y00062779*
X00274649Y00059124*
X00276060Y00055719*
X00278304Y00052794*
X00281229Y00050550*
X00284634Y00049139*
X00288290Y00048658*
X00291944Y00049139*
X00295349Y00050550*
X00298274Y00052794*
X00299624Y00054553*
X00301581*
X00303295Y00053147*
X00305901Y00051754*
X00308728Y00050896*
X00311669Y00050606*
X00313703Y00050807*
X00323940Y00040570*
X00325820Y00039127*
X00328009Y00038221*
X00330359Y00037911*
X00333488*
X00334184Y00037004*
X00337109Y00034760*
X00339801Y00033645*
Y00032270*
X00338349Y00031669*
X00336955Y00030599*
X00344170Y00023385*
X00351383Y00030599*
X00349989Y00031669*
X00348537Y00032270*
Y00033645*
X00351229Y00034760*
X00354154Y00037004*
X00356398Y00039929*
X00357809Y00043334*
X00358290Y00046990*
X00357809Y00050644*
X00356398Y00054049*
X00355314Y00055462*
X00355876Y00056601*
X00364714*
X00366011Y00055021*
X00368295Y00053147*
X00370901Y00051754*
X00373729Y00050896*
X00376669Y00050606*
X00379609Y00050896*
X00382437Y00051754*
X00385043Y00053147*
X00387327Y00055021*
X00389201Y00057305*
X00390594Y00059911*
X00391452Y00062739*
X00391742Y00065679*
X00391452Y00068620*
X00390594Y00071447*
X00389201Y00074053*
X00387327Y00076337*
X00387137Y00076493*
Y00129018*
X00388044Y00129714*
X00390007Y00132273*
X00390350Y00132375*
X00391168*
X00391511Y00132273*
X00393474Y00129714*
X00394381Y00129018*
Y00099619*
X00394691Y00097269*
X00395597Y00095080*
X00397040Y00093200*
X00406017Y00084224*
X00405816Y00082189*
X00406106Y00079249*
X00406964Y00076421*
X00408357Y00073815*
X00410231Y00071531*
X00412515Y00069657*
X00415121Y00068264*
X00417948Y00067406*
X00420889Y00067116*
X00423829Y00067406*
X00426657Y00068264*
X00429263Y00069657*
X00431547Y00071531*
X00432844Y00073111*
X00443882*
X00444388Y00071841*
X00442430Y00069289*
X00441019Y00065884*
X00440538Y00062230*
X00441019Y00058574*
X00442430Y00055169*
X00444674Y00052244*
X00447599Y00050000*
X00450291Y00048885*
Y00047510*
X00448839Y00046909*
X00447445Y00045839*
X00454660Y00038625*
X00461873Y00045839*
X00460479Y00046909*
X00459027Y00047510*
Y00048885*
X00461719Y00050000*
X00464644Y00052244*
X00466272Y00054366*
X00467143*
X00469493Y00054675*
X00471682Y00055582*
X00473562Y00057024*
X00483855Y00067317*
X00485889Y00067116*
X00488829Y00067406*
X00491657Y00068264*
X00494263Y00069657*
X00496547Y00071531*
X00498421Y00073815*
X00499814Y00076421*
X00500672Y00079249*
X00500962Y00082189*
X00500672Y00085130*
X00499814Y00087957*
X00498421Y00090563*
X00496547Y00092847*
X00494263Y00094721*
X00491657Y00096114*
X00488829Y00096972*
X00485889Y00097262*
X00482948Y00096972*
X00480121Y00096114*
X00477515Y00094721*
X00475231Y00092847*
X00473934Y00091267*
X00432844*
X00431547Y00092847*
X00430717Y00093528*
Y00101078*
X00431624Y00101774*
X00433868Y00104699*
X00435279Y00108104*
X00435760Y00111760*
X00435279Y00115414*
X00433868Y00118819*
X00431624Y00121744*
X00428699Y00123988*
X00427531Y00124472*
X00427863Y00125709*
X00428859Y00125578*
X00432514Y00126059*
X00435919Y00127470*
X00438844Y00129714*
X00440807Y00132273*
X00441150Y00132375*
X00441968*
X00442311Y00132273*
X00444274Y00129714*
X00447199Y00127470*
X00450604Y00126059*
X00454259Y00125578*
X00457914Y00126059*
X00461319Y00127470*
X00464244Y00129714*
X00466207Y00132273*
X00466550Y00132375*
X00467368*
X00467711Y00132273*
X00469674Y00129714*
X00472599Y00127470*
X00476004Y00126059*
X00479659Y00125578*
X00483314Y00126059*
X00486719Y00127470*
X00489644Y00129714*
X00490153Y00130377*
X00491606Y00130186*
X00491976Y00129293*
X00493138Y00127778*
X00494653Y00126616*
X00496416Y00125886*
X00498309Y00125637*
X00511810*
X00513702Y00125886*
X00515465Y00126616*
X00516980Y00127778*
X00518142Y00129293*
X00518872Y00131056*
X00519122Y00132949*
Y00146449*
X00518872Y00148342*
X00518142Y00150105*
X00516980Y00151620*
X00515465Y00152782*
X00514137Y00153332*
Y00189708*
X00515044Y00190404*
X00517288Y00193329*
X00518699Y00196734*
X00519180Y00200389*
X00518699Y00204044*
X00517288Y00207449*
X00515044Y00210374*
X00512119Y00212618*
X00508714Y00214029*
X00505059Y00214510*
X00501404Y00214029*
X00497999Y00212618*
X00495074Y00210374*
X00493329Y00208099*
X00491789*
X00490044Y00210374*
X00487119Y00212618*
X00483714Y00214029*
X00480060Y00214510*
X00476404Y00214029*
X00472999Y00212618*
X00470074Y00210374*
X00468111Y00207816*
X00467768Y00207713*
X00466950*
X00466607Y00207816*
X00464644Y00210374*
X00461719Y00212618*
X00458314Y00214029*
X00454660Y00214510*
X00451004Y00214029*
X00447599Y00212618*
X00444674Y00210374*
X00442711Y00207816*
X00442368Y00207713*
X00441550*
X00441207Y00207816*
X00439244Y00210374*
X00438337Y00211070*
Y00365809*
X00458419Y00385891*
X00520700*
X00523048Y00386201*
X00525238Y00387107*
X00527118Y00388550*
X00555058Y00416490*
X00556501Y00418370*
X00557407Y00420559*
X00557717Y00422910*
Y00521448*
X00558624Y00522144*
X00560868Y00525069*
X00562279Y00528474*
X00562760Y00532130*
X00562279Y00535784*
X00560868Y00539189*
X00558624Y00542114*
X00555699Y00544358*
X00553007Y00545473*
Y00546848*
X00554459Y00547449*
X00555853Y00548519*
X00548640Y00555733*
X00541425Y00548519*
X00542819Y00547449*
X00544271Y00546848*
Y00545473*
X00541579Y00544358*
X00538654Y00542114*
X00536410Y00539189*
X00534999Y00535784*
X00534518Y00532130*
X00534999Y00528474*
X00536410Y00525069*
X00538654Y00522144*
X00539561Y00521448*
Y00426669*
X00516939Y00404047*
X00454660*
X00452310Y00403737*
X00450120Y00402830*
X00448240Y00401388*
X00422840Y00375988*
X00421398Y00374108*
X00420491Y00371918*
X00420181Y00369570*
Y00211070*
X00419274Y00210374*
X00417311Y00207816*
X00416968Y00207713*
X00416150*
X00415807Y00207816*
X00413844Y00210374*
X00410919Y00212618*
X00407514Y00214029*
X00403860Y00214510*
X00400204Y00214029*
X00396799Y00212618*
X00393874Y00210374*
X00391911Y00207816*
X00391568Y00207713*
X00390750*
X00390407Y00207816*
X00388444Y00210374*
X00385519Y00212618*
X00382114Y00214029*
X00378460Y00214510*
X00374804Y00214029*
X00371399Y00212618*
X00368474Y00210374*
X00366511Y00207816*
X00366168Y00207713*
X00365350*
X00365007Y00207816*
X00363044Y00210374*
X00360119Y00212618*
X00356714Y00214029*
X00353060Y00214510*
X00349404Y00214029*
X00345999Y00212618*
X00343074Y00210374*
X00341111Y00207816*
X00340768Y00207713*
X00339950*
X00339607Y00207816*
X00337644Y00210374*
X00336737Y00211070*
Y00219710*
X00336427Y00222058*
X00335521Y00224248*
X00334078Y00226128*
X00299788Y00260418*
X00297908Y00261860*
X00295718Y00262767*
X00293370Y00263077*
X00097790*
X00095440Y00262767*
X00093250Y00261860*
X00091370Y00260418*
X00027870Y00196918*
X00026427Y00195038*
X00025521Y00192848*
X00025211Y00190500*
Y00168314*
X00024221Y00167485*
X00023831Y00167534*
X00023047Y00167801*
Y00419149*
X00082594Y00478697*
X00090569*
X00092462Y00478946*
X00094225Y00479676*
X00095740Y00480838*
X00096902Y00482353*
X00097452Y00483681*
X00127000*
X00129348Y00483991*
X00131538Y00484897*
X00133418Y00486340*
X00139608Y00492530*
X00140781Y00492044*
Y00468292*
X00139453Y00467742*
X00137938Y00466580*
X00136776Y00465065*
X00136046Y00463302*
X00135797Y00461409*
Y00447909*
X00136046Y00446016*
X00136776Y00444253*
X00137938Y00442738*
X00139453Y00441576*
X00141216Y00440846*
X00143109Y00440596*
X00156609*
X00158502Y00440846*
X00160265Y00441576*
X00161780Y00442738*
X00162942Y00444253*
X00163672Y00446016*
X00163922Y00447909*
Y00448556*
X00165138Y00448830*
X00165192Y00448823*
X00166249Y00447445*
X00173463Y00454660*
X00166249Y00461873*
X00165192Y00460495*
X00165138Y00460488*
X00163922Y00460762*
Y00461409*
X00163672Y00463302*
X00162942Y00465065*
X00161780Y00466580*
X00160265Y00467742*
X00158937Y00468292*
Y00504938*
X00159844Y00505634*
X00162088Y00508559*
X00163003Y00510768*
X00164378*
X00164779Y00509799*
X00165849Y00508405*
X00173063Y00515620*
X00165849Y00522833*
X00164779Y00521439*
X00164378Y00520470*
X00163003*
X00162088Y00522679*
X00159844Y00525604*
X00156919Y00527848*
X00153514Y00529259*
X00149860Y00529740*
X00146204Y00529259*
X00142799Y00527848*
X00139874Y00525604*
X00137630Y00522679*
X00136219Y00519274*
X00135738Y00515620*
X00135888Y00514485*
X00123239Y00501837*
X00097452*
X00096902Y00503165*
X00095740Y00504680*
X00094225Y00505842*
X00092462Y00506572*
X00090569Y00506822*
X00089922*
X00089648Y00508038*
X00089655Y00508091*
X00091033Y00509149*
X00083820Y00516363*
X00076605Y00509149*
X00077983Y00508091*
X00077990Y00508038*
X00077716Y00506822*
X00077069*
X00075176Y00506572*
X00073413Y00505842*
X00071898Y00504680*
X00070736Y00503165*
X00070186Y00501837*
X00035509*
X00024317Y00513029*
Y00640129*
X00057099Y00672911*
X00255824*
X00256310Y00671738*
X00245040Y00660468*
X00243597Y00658588*
X00242691Y00656398*
X00242381Y00654050*
Y00632122*
X00241053Y00631572*
X00239538Y00630410*
X00238376Y00628895*
X00238006Y00628003*
X00236552Y00627811*
X00236044Y00628474*
X00233119Y00630718*
X00229714Y00632129*
X00226060Y00632610*
X00222404Y00632129*
X00218999Y00630718*
X00216074Y00628474*
X00213830Y00625549*
X00212715Y00622857*
X00211340*
X00210739Y00624309*
X00209669Y00625703*
X00202455Y00618490*
X00209669Y00611275*
X00210739Y00612669*
X00211340Y00614121*
X00212715*
X00213830Y00611429*
X00216074Y00608504*
X00218999Y00606260*
X00222404Y00604849*
X00226060Y00604368*
X00229714Y00604849*
X00233119Y00606260*
X00236044Y00608504*
X00236552Y00609167*
X00238006Y00608976*
X00238376Y00608083*
X00239538Y00606568*
X00241053Y00605406*
X00242816Y00604676*
X00244709Y00604426*
X00258209*
X00260102Y00604676*
X00261865Y00605406*
X00263380Y00606568*
X00264542Y00608083*
X00265272Y00609846*
X00265521Y00611739*
Y00625239*
X00265272Y00627132*
X00264542Y00628895*
X00263380Y00630410*
X00261865Y00631572*
X00260537Y00632122*
Y00650289*
X00283159Y00672911*
X00444549*
X00472251Y00645209*
Y00629170*
X00471344Y00628474*
X00469100Y00625549*
X00467985Y00622857*
X00466610*
X00466009Y00624309*
X00464939Y00625703*
X00457725Y00618490*
X00464939Y00611275*
X00466009Y00612669*
X00466610Y00614121*
X00467985*
X00469100Y00611429*
X00471344Y00608504*
X00472251Y00607808*
Y00603250*
X00472561Y00600900*
X00473468Y00598710*
X00474910Y00596830*
X00495230Y00576510*
X00497110Y00575068*
X00499300Y00574161*
X00501650Y00573851*
X00537958*
X00538654Y00572944*
X00541579Y00570700*
X00544271Y00569585*
Y00568210*
X00542819Y00567609*
X00541425Y00566539*
X00548640Y00559325*
X00555853Y00566539*
X00554459Y00567609*
X00553007Y00568210*
Y00569585*
X00555699Y00570700*
X00558624Y00572944*
X00560868Y00575869*
X00562279Y00579274*
X00562760Y00582930*
X00562279Y00586584*
X00560868Y00589989*
X00558624Y00592914*
X00556066Y00594877*
X00555963Y00595220*
Y00596038*
X00556066Y00596381*
X00558624Y00598344*
X00560868Y00601269*
X00562279Y00604674*
X00562760Y00608330*
X00562279Y00611984*
X00560868Y00615389*
X00558624Y00618314*
X00555699Y00620558*
X00552294Y00621969*
X00548640Y00622450*
X00544984Y00621969*
X00541579Y00620558*
X00538654Y00618314*
X00536410Y00615389*
X00534999Y00611984*
X00534518Y00608330*
X00534999Y00604674*
X00536410Y00601269*
X00538654Y00598344*
X00541212Y00596381*
X00541315Y00596038*
Y00595220*
X00541212Y00594877*
X00538654Y00592914*
X00537958Y00592007*
X00505409*
X00490735Y00606681*
X00490805Y00608114*
X00491314Y00608504*
X00491823Y00609167*
X00493276Y00608976*
X00493646Y00608083*
X00494808Y00606568*
X00496323Y00605406*
X00498086Y00604676*
X00499979Y00604426*
X00513479*
X00515372Y00604676*
X00517135Y00605406*
X00518650Y00606568*
X00519812Y00608083*
X00520542Y00609846*
X00520792Y00611739*
Y00625239*
X00520542Y00627132*
X00519812Y00628895*
X00518650Y00630410*
X00517135Y00631572*
X00515372Y00632302*
X00513479Y00632551*
X00499979*
X00498086Y00632302*
X00496323Y00631572*
X00494808Y00630410*
X00493646Y00628895*
X00493276Y00628003*
X00491823Y00627811*
X00491314Y00628474*
X00490407Y00629170*
Y00648970*
X00490097Y00651319*
X00489191Y00653508*
X00487748Y00655388*
X00454728Y00688408*
X00452848Y00689851*
X00450659Y00690757*
X00448310Y00691067*
G37*
G36*
X00455930Y00630129D02*
X00452917Y00629732D01*
X00450109Y00628569*
X00448715Y00627499*
X00455930Y00620285*
X00463143Y00627499*
X00461749Y00628569*
X00458941Y00629732*
X00455930Y00630129*
G37*
G36*
X00200660D02*
X00197646Y00629732D01*
X00194839Y00628569*
X00193445Y00627499*
X00200660Y00620285*
X00207873Y00627499*
X00206479Y00628569*
X00203672Y00629732*
X00200660Y00630129*
G37*
G36*
X00072390Y00661857D02*
X00070040Y00661547D01*
X00067850Y00660640*
X00065970Y00659198*
X00040570Y00633798*
X00039127Y00631918*
X00038221Y00629728*
X00037911Y00627380*
Y00566420*
X00038221Y00564070*
X00039127Y00561880*
X00040570Y00560000*
X00061517Y00539054*
Y00539053*
X00063397Y00537611*
X00065586Y00536704*
X00067936Y00536395*
X00071670*
X00073834Y00533574*
X00076759Y00531330*
X00079451Y00530215*
Y00528840*
X00077999Y00528239*
X00076605Y00527169*
X00083820Y00519955*
X00091033Y00527169*
X00089639Y00528239*
X00088187Y00528840*
Y00530215*
X00090879Y00531330*
X00093804Y00533574*
X00096048Y00536499*
X00097459Y00539904*
X00097940Y00543560*
X00097459Y00547214*
X00096048Y00550619*
X00093804Y00553544*
X00091246Y00555507*
X00091143Y00555850*
Y00556668*
X00091246Y00557011*
X00093804Y00558974*
X00096048Y00561899*
X00097459Y00565304*
X00097940Y00568960*
X00097459Y00572614*
X00096048Y00576019*
X00093804Y00578944*
X00091246Y00580907*
X00091143Y00581250*
Y00582068*
X00091246Y00582411*
X00093804Y00584374*
X00094500Y00585281*
X00123904*
X00173315Y00535870*
X00175195Y00534427*
X00177385Y00533521*
X00179734Y00533211*
X00307389*
X00316285Y00524315*
X00315311Y00523045*
X00314968Y00522943*
X00314150*
X00313807Y00523045*
X00311844Y00525604*
X00308919Y00527848*
X00305514Y00529259*
X00301859Y00529740*
X00298204Y00529259*
X00294799Y00527848*
X00291874Y00525604*
X00289911Y00523045*
X00289568Y00522943*
X00288750*
X00288407Y00523045*
X00286444Y00525604*
X00283519Y00527848*
X00280114Y00529259*
X00276459Y00529740*
X00272804Y00529259*
X00269399Y00527848*
X00266474Y00525604*
X00264511Y00523045*
X00264168Y00522943*
X00263350*
X00263007Y00523045*
X00261044Y00525604*
X00258119Y00527848*
X00254714Y00529259*
X00251059Y00529740*
X00247404Y00529259*
X00243999Y00527848*
X00241074Y00525604*
X00239111Y00523045*
X00238768Y00522943*
X00237950*
X00237607Y00523045*
X00235644Y00525604*
X00232719Y00527848*
X00229314Y00529259*
X00225659Y00529740*
X00222004Y00529259*
X00218599Y00527848*
X00215674Y00525604*
X00213711Y00523045*
X00213368Y00522943*
X00212550*
X00212207Y00523045*
X00210244Y00525604*
X00207319Y00527848*
X00203914Y00529259*
X00200259Y00529740*
X00196604Y00529259*
X00193199Y00527848*
X00190274Y00525604*
X00188030Y00522679*
X00186915Y00519987*
X00185540*
X00184939Y00521439*
X00183869Y00522833*
X00176655Y00515620*
X00183869Y00508405*
X00184939Y00509799*
X00185540Y00511251*
X00186915*
X00188030Y00508559*
X00190274Y00505634*
X00191581Y00504631*
Y00465340*
X00190674Y00464644*
X00188430Y00461719*
X00187315Y00459027*
X00185940*
X00185339Y00460479*
X00184269Y00461873*
X00177055Y00454660*
X00184269Y00447445*
X00185339Y00448839*
X00185940Y00450291*
X00187315*
X00188430Y00447599*
X00190674Y00444674*
X00193599Y00442430*
X00197004Y00441019*
X00200660Y00440538*
X00204314Y00441019*
X00207719Y00442430*
X00210644Y00444674*
X00212607Y00447233*
X00212950Y00447335*
X00213768*
X00214111Y00447233*
X00216074Y00444674*
X00218999Y00442430*
X00222404Y00441019*
X00226060Y00440538*
X00229714Y00441019*
X00233119Y00442430*
X00236044Y00444674*
X00238007Y00447233*
X00238350Y00447335*
X00239168*
X00239511Y00447233*
X00241474Y00444674*
X00244399Y00442430*
X00247804Y00441019*
X00251460Y00440538*
X00255114Y00441019*
X00258519Y00442430*
X00261444Y00444674*
X00263407Y00447233*
X00263750Y00447335*
X00264568*
X00264911Y00447233*
X00266874Y00444674*
X00269799Y00442430*
X00273204Y00441019*
X00276860Y00440538*
X00280514Y00441019*
X00283919Y00442430*
X00286844Y00444674*
X00288807Y00447233*
X00289150Y00447335*
X00289968*
X00290311Y00447233*
X00292274Y00444674*
X00295199Y00442430*
X00298604Y00441019*
X00302260Y00440538*
X00305914Y00441019*
X00309319Y00442430*
X00312244Y00444674*
X00314207Y00447233*
X00314550Y00447335*
X00315368*
X00315711Y00447233*
X00317674Y00444674*
X00320599Y00442430*
X00324004Y00441019*
X00327660Y00440538*
X00331314Y00441019*
X00334719Y00442430*
X00337644Y00444674*
X00339607Y00447233*
X00339950Y00447335*
X00340768*
X00341111Y00447233*
X00343074Y00444674*
X00345999Y00442430*
X00349404Y00441019*
X00353060Y00440538*
X00356714Y00441019*
X00360119Y00442430*
X00363044Y00444674*
X00365007Y00447233*
X00365350Y00447335*
X00366168*
X00366511Y00447233*
X00368474Y00444674*
X00371399Y00442430*
X00374804Y00441019*
X00378460Y00440538*
X00382114Y00441019*
X00385519Y00442430*
X00388444Y00444674*
X00390407Y00447233*
X00390750Y00447335*
X00391568*
X00391911Y00447233*
X00393874Y00444674*
X00396799Y00442430*
X00400204Y00441019*
X00403860Y00440538*
X00407514Y00441019*
X00410919Y00442430*
X00413844Y00444674*
X00415807Y00447233*
X00416150Y00447335*
X00416968*
X00417311Y00447233*
X00419274Y00444674*
X00422199Y00442430*
X00425604Y00441019*
X00429260Y00440538*
X00432914Y00441019*
X00436319Y00442430*
X00439244Y00444674*
X00441207Y00447233*
X00441550Y00447335*
X00442368*
X00442711Y00447233*
X00444674Y00444674*
X00447599Y00442430*
X00451004Y00441019*
X00454660Y00440538*
X00458314Y00441019*
X00461719Y00442430*
X00464644Y00444674*
X00466607Y00447233*
X00466950Y00447335*
X00467768*
X00468111Y00447233*
X00470074Y00444674*
X00472999Y00442430*
X00476404Y00441019*
X00480060Y00440538*
X00483714Y00441019*
X00487119Y00442430*
X00490044Y00444674*
X00491789Y00446949*
X00493329*
X00495074Y00444674*
X00497999Y00442430*
X00501404Y00441019*
X00505059Y00440538*
X00508714Y00441019*
X00512119Y00442430*
X00515044Y00444674*
X00517288Y00447599*
X00518699Y00451004*
X00519180Y00454660*
X00518699Y00458314*
X00517288Y00461719*
X00515044Y00464644*
X00514137Y00465340*
Y00501986*
X00515465Y00502536*
X00516980Y00503698*
X00518142Y00505213*
X00518872Y00506976*
X00519122Y00508869*
Y00522369*
X00518872Y00524262*
X00518142Y00526025*
X00516980Y00527540*
X00515465Y00528702*
X00513702Y00529432*
X00511810Y00529682*
X00498309*
X00496416Y00529432*
X00494653Y00528702*
X00493138Y00527540*
X00491976Y00526025*
X00491606Y00525133*
X00490153Y00524941*
X00489644Y00525604*
X00486719Y00527848*
X00486498Y00527939*
X00485607Y00530091*
X00484164Y00531971*
X00439607Y00576529*
Y00607808*
X00440514Y00608504*
X00442758Y00611429*
X00443873Y00614121*
X00445248*
X00445849Y00612669*
X00446919Y00611275*
X00454133Y00618490*
X00446919Y00625703*
X00445849Y00624309*
X00445248Y00622857*
X00443873*
X00442758Y00625549*
X00440514Y00628474*
X00437589Y00630718*
X00434184Y00632129*
X00430530Y00632610*
X00429444Y00632467*
X00419004Y00642908*
X00417124Y00644350*
X00414934Y00645257*
X00412585Y00645567*
X00339309*
X00336959Y00645257*
X00334770Y00644351*
X00332890Y00642908*
X00284529Y00594547*
X00211983*
X00200926Y00605604*
X00201381Y00606944*
X00203672Y00607246*
X00206479Y00608409*
X00207873Y00609479*
X00199761Y00617591*
X00191649Y00625703*
X00190579Y00624309*
X00189978Y00622857*
X00188603*
X00187488Y00625549*
X00185244Y00628474*
X00182319Y00630718*
X00178914Y00632129*
X00175260Y00632610*
X00174174Y00632467*
X00163734Y00642908*
X00163494Y00643092*
X00147388Y00659198*
X00145508Y00660640*
X00143318Y00661547*
X00140970Y00661857*
X00072390*
G37*
G36*
X00455930Y00616693D02*
X00448715Y00609479D01*
X00450109Y00608409*
X00452917Y00607246*
X00455930Y00606849*
X00458941Y00607246*
X00461749Y00608409*
X00463143Y00609479*
X00455930Y00616693*
G37*
G36*
X00557649Y00564743D02*
X00550435Y00557530D01*
X00557649Y00550315*
X00558719Y00551709*
X00559882Y00554517*
X00560279Y00557530*
X00559882Y00560541*
X00558719Y00563349*
X00557649Y00564743*
G37*
G36*
X00539629D02*
X00538559Y00563349D01*
X00537396Y00560541*
X00536999Y00557530*
X00537396Y00554517*
X00538559Y00551709*
X00539629Y00550315*
X00546843Y00557530*
X00539629Y00564743*
G37*
G36*
X00174859Y00527258D02*
X00171846Y00526862D01*
X00169039Y00525699*
X00167645Y00524629*
X00174859Y00517415*
X00182073Y00524629*
X00180679Y00525699*
X00177872Y00526862*
X00174859Y00527258*
G37*
G36*
X00074809Y00525373D02*
X00073739Y00523979D01*
X00072576Y00521171*
X00072180Y00518160*
X00072576Y00515147*
X00073739Y00512339*
X00074809Y00510945*
X00082023Y00518160*
X00074809Y00525373*
G37*
G36*
X00092829D02*
X00085615Y00518160D01*
X00092829Y00510945*
X00093899Y00512339*
X00095062Y00515147*
X00095459Y00518160*
X00095062Y00521171*
X00093899Y00523979*
X00092829Y00525373*
G37*
G36*
X00174859Y00513823D02*
X00167645Y00506609D01*
X00169039Y00505539*
X00171846Y00504376*
X00174859Y00503979*
X00177872Y00504376*
X00180679Y00505539*
X00182073Y00506609*
X00174859Y00513823*
G37*
G36*
X00175260Y00466299D02*
X00172247Y00465902D01*
X00169439Y00464739*
X00168045Y00463669*
X00175260Y00456455*
X00182473Y00463669*
X00181079Y00464739*
X00178271Y00465902*
X00175260Y00466299*
G37*
G36*
Y00452863D02*
X00168045Y00445649D01*
X00169439Y00444579*
X00172247Y00443416*
X00175260Y00443019*
X00178271Y00443416*
X00181079Y00444579*
X00182473Y00445649*
X00175260Y00452863*
G37*
G36*
X00420889Y00049837D02*
X00417615Y00049406D01*
X00414565Y00048143*
X00412962Y00046912*
X00420889Y00038985*
X00428816Y00046912*
X00427213Y00048143*
X00424163Y00049406*
X00420889Y00049837*
G37*
G36*
X00264909D02*
X00261635Y00049406D01*
X00258585Y00048143*
X00256982Y00046912*
X00264909Y00038985*
X00272836Y00046912*
X00271233Y00048143*
X00268183Y00049406*
X00264909Y00049837*
G37*
G36*
X00199909D02*
X00196635Y00049406D01*
X00193585Y00048143*
X00191982Y00046912*
X00199909Y00038985*
X00207836Y00046912*
X00206233Y00048143*
X00203183Y00049406*
X00199909Y00049837*
G37*
G36*
X00485889D02*
X00482615Y00049406D01*
X00479565Y00048143*
X00477962Y00046912*
X00485889Y00038985*
X00493816Y00046912*
X00492213Y00048143*
X00489163Y00049406*
X00485889Y00049837*
G37*
G36*
X00445649Y00044043D02*
X00444579Y00042649D01*
X00443416Y00039842*
X00443019Y00036830*
X00443416Y00033817*
X00444579Y00031009*
X00445649Y00029615*
X00452863Y00036830*
X00445649Y00044043*
G37*
G36*
X00223399D02*
X00222329Y00042649D01*
X00221166Y00039842*
X00220769Y00036830*
X00221166Y00033817*
X00222329Y00031009*
X00223399Y00029615*
X00230613Y00036830*
X00223399Y00044043*
G37*
G36*
X00463669D02*
X00456455Y00036830D01*
X00463669Y00029615*
X00464739Y00031009*
X00465902Y00033817*
X00466299Y00036830*
X00465902Y00039842*
X00464739Y00042649*
X00463669Y00044043*
G37*
G36*
X00241419D02*
X00234205Y00036830D01*
X00241419Y00029615*
X00242489Y00031009*
X00243652Y00033817*
X00244048Y00036830*
X00243652Y00039842*
X00242489Y00042649*
X00241419Y00044043*
G37*
G36*
X00476166Y00045116D02*
X00474935Y00043513D01*
X00473672Y00040463*
X00473241Y00037189*
X00473672Y00033915*
X00474935Y00030865*
X00476166Y00029262*
X00484093Y00037189*
X00476166Y00045116*
G37*
G36*
X00411165D02*
X00409935Y00043513D01*
X00408672Y00040463*
X00408241Y00037189*
X00408672Y00033915*
X00409935Y00030865*
X00411166Y00029262*
X00419093Y00037189*
X00411165Y00045116*
G37*
G36*
X00255186D02*
X00253955Y00043513D01*
X00252692Y00040463*
X00252261Y00037189*
X00252692Y00033915*
X00253955Y00030865*
X00255186Y00029262*
X00263113Y00037189*
X00255186Y00045116*
G37*
G36*
X00190186D02*
X00188955Y00043513D01*
X00187692Y00040463*
X00187261Y00037189*
X00187692Y00033915*
X00188955Y00030865*
X00190186Y00029262*
X00198113Y00037189*
X00190186Y00045116*
G37*
G36*
X00430612D02*
X00422685Y00037189D01*
X00430612Y00029262*
X00431843Y00030865*
X00433106Y00033915*
X00433537Y00037189*
X00433106Y00040463*
X00431843Y00043513*
X00430612Y00045116*
G37*
G36*
X00495612D02*
X00487685Y00037189D01*
X00495612Y00029262*
X00496843Y00030865*
X00498106Y00033915*
X00498537Y00037189*
X00498106Y00040463*
X00496843Y00043513*
X00495612Y00045116*
G37*
G36*
X00274632D02*
X00266705Y00037189D01*
X00274632Y00029262*
X00275863Y00030865*
X00277126Y00033915*
X00277557Y00037189*
X00277126Y00040463*
X00275863Y00043513*
X00274632Y00045116*
G37*
G36*
X00209632D02*
X00201705Y00037189D01*
X00209632Y00029262*
X00210863Y00030865*
X00212126Y00033915*
X00212557Y00037189*
X00212126Y00040463*
X00210863Y00043513*
X00209632Y00045116*
G37*
G36*
X00454660Y00035033D02*
X00447445Y00027819D01*
X00448839Y00026749*
X00451646Y00025586*
X00454660Y00025189*
X00457672Y00025586*
X00460479Y00026749*
X00461873Y00027819*
X00454660Y00035033*
G37*
G36*
X00232410D02*
X00225195Y00027819D01*
X00226589Y00026749*
X00229397Y00025586*
X00232410Y00025189*
X00235421Y00025586*
X00238229Y00026749*
X00239623Y00027819*
X00232410Y00035033*
G37*
G36*
X00485889Y00035393D02*
X00477962Y00027466D01*
X00479565Y00026235*
X00482615Y00024972*
X00485889Y00024541*
X00489163Y00024972*
X00492213Y00026235*
X00493816Y00027465*
X00485889Y00035393*
G37*
G36*
X00420889D02*
X00412962Y00027466D01*
X00414565Y00026235*
X00417615Y00024972*
X00420889Y00024541*
X00424163Y00024972*
X00427213Y00026235*
X00428816Y00027465*
X00420889Y00035393*
G37*
G36*
X00264909D02*
X00256982Y00027466D01*
X00258585Y00026235*
X00261635Y00024972*
X00264909Y00024541*
X00268183Y00024972*
X00271233Y00026235*
X00272836Y00027465*
X00264909Y00035393*
G37*
G36*
X00199909D02*
X00191982Y00027466D01*
X00193585Y00026235*
X00196635Y00024972*
X00199909Y00024541*
X00203183Y00024972*
X00206233Y00026235*
X00207836Y00027465*
X00199909Y00035393*
G37*
G36*
X00376669Y00033327D02*
X00373395Y00032896D01*
X00370345Y00031633*
X00368742Y00030402*
X00376669Y00022475*
X00384596Y00030402*
X00382993Y00031633*
X00379943Y00032896*
X00376669Y00033327*
G37*
G36*
X00311669D02*
X00308395Y00032896D01*
X00305345Y00031633*
X00303742Y00030402*
X00311669Y00022475*
X00319596Y00030402*
X00317993Y00031633*
X00314943Y00032896*
X00311669Y00033327*
G37*
G36*
X00335159Y00028803D02*
X00334089Y00027409D01*
X00332926Y00024601*
X00332530Y00021590*
X00332926Y00018577*
X00334089Y00015769*
X00335159Y00014375*
X00342373Y00021590*
X00335159Y00028803*
G37*
G36*
X00353179D02*
X00345965Y00021590D01*
X00353179Y00014375*
X00354249Y00015769*
X00355412Y00018577*
X00355809Y00021590*
X00355412Y00024601*
X00354249Y00027409*
X00353179Y00028803*
G37*
G36*
X00366946Y00028606D02*
X00365715Y00027003D01*
X00364452Y00023953*
X00364021Y00020679*
X00364452Y00017405*
X00365715Y00014355*
X00366946Y00012752*
X00374873Y00020679*
X00366946Y00028606*
G37*
G36*
X00301946D02*
X00300715Y00027003D01*
X00299452Y00023953*
X00299021Y00020679*
X00299452Y00017405*
X00300715Y00014355*
X00301946Y00012752*
X00309873Y00020679*
X00301946Y00028606*
G37*
G36*
X00386392D02*
X00378465Y00020679D01*
X00386392Y00012752*
X00387623Y00014355*
X00388886Y00017405*
X00389317Y00020679*
X00388886Y00023953*
X00387623Y00027003*
X00386392Y00028606*
G37*
G36*
X00321392D02*
X00313465Y00020679D01*
X00321392Y00012752*
X00322623Y00014355*
X00323886Y00017405*
X00324317Y00020679*
X00323886Y00023953*
X00322623Y00027003*
X00321392Y00028606*
G37*
G36*
X00344170Y00019793D02*
X00336955Y00012579D01*
X00338349Y00011509*
X00341156Y00010346*
X00344170Y00009949*
X00347182Y00010346*
X00349989Y00011509*
X00351383Y00012579*
X00344170Y00019793*
G37*
G36*
X00376669Y00018883D02*
X00368742Y00010956D01*
X00370345Y00009725*
X00373395Y00008462*
X00376669Y00008031*
X00379943Y00008462*
X00382993Y00009725*
X00384596Y00010955*
X00376669Y00018883*
G37*
G36*
X00311669D02*
X00303742Y00010956D01*
X00305345Y00009725*
X00308395Y00008462*
X00311669Y00008031*
X00314943Y00008462*
X00317993Y00009725*
X00319596Y00010955*
X00311669Y00018883*
G37*
%LNcoenv_pcb-3*%
%LPD*%
G36*
X00318581Y00215949D02*
Y00211070D01*
X00317674Y00210374*
X00315711Y00207816*
X00315368Y00207713*
X00314550*
X00314207Y00207816*
X00312244Y00210374*
X00311337Y00211070*
Y00214630*
X00311027Y00216979*
X00310120Y00219168*
X00308678Y00221048*
X00285978Y00243748*
X00286464Y00244921*
X00289609*
X00318581Y00215949*
G37*
G36*
X00292387Y00211664D02*
X00292303Y00210396D01*
X00292274Y00210374*
X00290311Y00207816*
X00289968Y00207713*
X00289150*
X00288807Y00207816*
X00286844Y00210374*
X00283919Y00212618*
X00280514Y00214029*
X00276860Y00214510*
X00273204Y00214029*
X00269799Y00212618*
X00266874Y00210374*
X00264911Y00207816*
X00264568Y00207713*
X00263750*
X00263407Y00207816*
X00261444Y00210374*
X00258519Y00212618*
X00255114Y00214029*
X00251460Y00214510*
X00247804Y00214029*
X00244399Y00212618*
X00241474Y00210374*
X00239511Y00207816*
X00239168Y00207713*
X00238350*
X00238007Y00207816*
X00236044Y00210374*
X00233119Y00212618*
X00229714Y00214029*
X00226060Y00214510*
X00222404Y00214029*
X00218999Y00212618*
X00216074Y00210374*
X00214111Y00207816*
X00213768Y00207713*
X00212950*
X00212607Y00207816*
X00210644Y00210374*
X00207719Y00212618*
X00204314Y00214029*
X00200660Y00214510*
X00197004Y00214029*
X00193599Y00212618*
X00190674Y00210374*
X00188430Y00207449*
X00187315Y00204757*
X00185940*
X00185339Y00206209*
X00184269Y00207603*
X00177055Y00200389*
X00184269Y00193175*
X00185339Y00194569*
X00185940Y00196021*
X00187315*
X00188430Y00193329*
X00190674Y00190404*
X00191581Y00189708*
Y00150687*
X00190274Y00149684*
X00188030Y00146759*
X00186915Y00144067*
X00185540*
X00184939Y00145519*
X00183869Y00146913*
X00176655Y00139700*
X00183869Y00132485*
X00184939Y00133879*
X00185540Y00135331*
X00186915*
X00188030Y00132639*
X00190274Y00129714*
X00193199Y00127470*
X00196604Y00126059*
X00200259Y00125578*
X00203914Y00126059*
X00207319Y00127470*
X00210244Y00129714*
X00212207Y00132273*
X00212550Y00132375*
X00213368*
X00213711Y00132273*
X00215674Y00129714*
X00218599Y00127470*
X00222004Y00126059*
X00225659Y00125578*
X00229314Y00126059*
X00232719Y00127470*
X00235644Y00129714*
X00237607Y00132273*
X00237950Y00132375*
X00238768*
X00239111Y00132273*
X00241074Y00129714*
X00243999Y00127470*
X00247404Y00126059*
X00251059Y00125578*
X00254714Y00126059*
X00258119Y00127470*
X00261044Y00129714*
X00263007Y00132273*
X00263350Y00132375*
X00264168*
X00264511Y00132273*
X00266474Y00129714*
X00269399Y00127470*
X00272804Y00126059*
X00276459Y00125578*
X00280114Y00126059*
X00283519Y00127470*
X00286444Y00129714*
X00288407Y00132273*
X00288750Y00132375*
X00289568*
X00289911Y00132273*
X00291874Y00129714*
X00294799Y00127470*
X00298204Y00126059*
X00301859Y00125578*
X00305514Y00126059*
X00308919Y00127470*
X00311844Y00129714*
X00313807Y00132273*
X00314150Y00132375*
X00314968*
X00315311Y00132273*
X00317274Y00129714*
X00320199Y00127470*
X00321367Y00126986*
X00321036Y00125749*
X00320040Y00125880*
X00316384Y00125399*
X00312979Y00123988*
X00310527Y00122107*
X00298548*
X00298274Y00122464*
X00295349Y00124708*
X00291944Y00126119*
X00288290Y00126600*
X00284634Y00126119*
X00281229Y00124708*
X00278304Y00122464*
X00276060Y00119539*
X00275019Y00117027*
X00178025*
X00176354Y00119204*
X00173429Y00121448*
X00170024Y00122859*
X00166370Y00123340*
X00162714Y00122859*
X00159309Y00121448*
X00156384Y00119204*
X00155688Y00118297*
X00134569*
X00119567Y00133299*
Y00143846*
X00120895Y00144396*
X00122410Y00145558*
X00123572Y00147073*
X00124302Y00148836*
X00124551Y00150729*
Y00164229*
X00124302Y00166122*
X00123572Y00167885*
X00122410Y00169400*
X00120895Y00170562*
X00119132Y00171292*
X00117239Y00171541*
X00103739*
X00101846Y00171292*
X00100083Y00170562*
X00098568Y00169400*
X00097406Y00167885*
X00096676Y00166122*
X00096426Y00164229*
Y00163582*
X00095210Y00163308*
X00095156Y00163315*
X00094099Y00164693*
X00086885Y00157480*
X00094099Y00150265*
X00095156Y00151643*
X00095210Y00151650*
X00096426Y00151376*
Y00150729*
X00096676Y00148836*
X00097406Y00147073*
X00098568Y00145558*
X00100083Y00144396*
X00101411Y00143846*
Y00133299*
X00097839Y00129727*
X00039319*
X00023065Y00145980*
X00023183Y00147100*
X00024342Y00147465*
X00027229Y00145250*
X00030634Y00143839*
X00034290Y00143358*
X00037944Y00143839*
X00041349Y00145250*
X00044274Y00147494*
X00046237Y00150053*
X00046580Y00150155*
X00047398*
X00047741Y00150053*
X00049704Y00147494*
X00052629Y00145250*
X00056034Y00143839*
X00059690Y00143358*
X00063344Y00143839*
X00066749Y00145250*
X00069674Y00147494*
X00071918Y00150419*
X00073033Y00153111*
X00074408*
X00075009Y00151659*
X00076079Y00150265*
X00083293Y00157480*
X00076079Y00164693*
X00075009Y00163299*
X00074408Y00161847*
X00073033*
X00071918Y00164539*
X00069674Y00167464*
X00068767Y00168160*
Y00180389*
X00118059Y00229681*
X00274369*
X00292387Y00211664*
G37*
G36*
X00106450Y00243748D02*
X00053270Y00190568D01*
X00051827Y00188688*
X00050921Y00186498*
X00050611Y00184150*
Y00168160*
X00049704Y00167464*
X00047741Y00164906*
X00047398Y00164803*
X00046580*
X00046237Y00164906*
X00044274Y00167464*
X00043367Y00168160*
Y00186739*
X00101549Y00244921*
X00105964*
X00106450Y00243748*
G37*
G36*
X00495074Y00190404D02*
X00495981Y00189708D01*
Y00153332*
X00494653Y00152782*
X00493138Y00151620*
X00491976Y00150105*
X00491606Y00149212*
X00490153Y00149021*
X00489644Y00149684*
X00489137Y00150073*
Y00189708*
X00490044Y00190404*
X00491789Y00192679*
X00493329*
X00495074Y00190404*
G37*
G36*
X00468111Y00192963D02*
X00470074Y00190404D01*
X00470981Y00189708*
Y00150687*
X00469674Y00149684*
X00467711Y00147126*
X00467368Y00147023*
X00466550*
X00466207Y00147126*
X00464244Y00149684*
X00463337Y00150380*
Y00189401*
X00464644Y00190404*
X00466607Y00192963*
X00466950Y00193065*
X00467768*
X00468111Y00192963*
G37*
G36*
X00442711D02*
X00444674Y00190404D01*
X00445181Y00190015*
Y00150380*
X00444274Y00149684*
X00442311Y00147126*
X00441968Y00147023*
X00441150*
X00440807Y00147126*
X00438844Y00149684*
X00438337Y00150073*
Y00189708*
X00439244Y00190404*
X00441207Y00192963*
X00441550Y00193065*
X00442368*
X00442711Y00192963*
G37*
G36*
X00417311D02*
X00419274Y00190404D01*
X00420181Y00189708*
Y00150687*
X00418874Y00149684*
X00416911Y00147126*
X00416568Y00147023*
X00415750*
X00415407Y00147126*
X00413444Y00149684*
X00412537Y00150380*
Y00189401*
X00413844Y00190404*
X00415807Y00192963*
X00416150Y00193065*
X00416968*
X00417311Y00192963*
G37*
G36*
X00391911D02*
X00393874Y00190404D01*
X00394381Y00190015*
Y00150380*
X00393474Y00149684*
X00391511Y00147126*
X00391168Y00147023*
X00390350*
X00390007Y00147126*
X00388044Y00149684*
X00387137Y00150380*
Y00189401*
X00388444Y00190404*
X00390407Y00192963*
X00390750Y00193065*
X00391568*
X00391911Y00192963*
G37*
G36*
X00366511D02*
X00368474Y00190404D01*
X00368981Y00190015*
Y00150380*
X00368074Y00149684*
X00366111Y00147126*
X00365768Y00147023*
X00364950*
X00364607Y00147126*
X00362644Y00149684*
X00362137Y00150073*
Y00189708*
X00363044Y00190404*
X00365007Y00192963*
X00365350Y00193065*
X00366168*
X00366511Y00192963*
G37*
G36*
X00341111D02*
X00343074Y00190404D01*
X00343981Y00189708*
Y00150687*
X00342674Y00149684*
X00340711Y00147126*
X00340368Y00147023*
X00339550*
X00339207Y00147126*
X00337244Y00149684*
X00336737Y00150073*
Y00189708*
X00337644Y00190404*
X00339607Y00192963*
X00339950Y00193065*
X00340768*
X00341111Y00192963*
G37*
G36*
X00315711D02*
X00317674Y00190404D01*
X00318581Y00189708*
Y00150687*
X00317274Y00149684*
X00315311Y00147126*
X00314968Y00147023*
X00314150*
X00313807Y00147126*
X00311844Y00149684*
X00311337Y00150073*
Y00189708*
X00312244Y00190404*
X00314207Y00192963*
X00314550Y00193065*
X00315368*
X00315711Y00192963*
G37*
G36*
X00290311D02*
X00292274Y00190404D01*
X00293181Y00189708*
Y00150687*
X00291874Y00149684*
X00289911Y00147126*
X00289568Y00147023*
X00288750*
X00288407Y00147126*
X00286444Y00149684*
X00285937Y00150073*
Y00189708*
X00286844Y00190404*
X00288807Y00192963*
X00289150Y00193065*
X00289968*
X00290311Y00192963*
G37*
G36*
X00264911D02*
X00266874Y00190404D01*
X00267781Y00189708*
Y00150687*
X00266474Y00149684*
X00264511Y00147126*
X00264168Y00147023*
X00263350*
X00263007Y00147126*
X00261044Y00149684*
X00260537Y00150073*
Y00189708*
X00261444Y00190404*
X00263407Y00192963*
X00263750Y00193065*
X00264568*
X00264911Y00192963*
G37*
G36*
X00239511D02*
X00241474Y00190404D01*
X00242381Y00189708*
Y00150687*
X00241074Y00149684*
X00239111Y00147126*
X00238768Y00147023*
X00237950*
X00237607Y00147126*
X00235644Y00149684*
X00235137Y00150073*
Y00189708*
X00236044Y00190404*
X00238007Y00192963*
X00238350Y00193065*
X00239168*
X00239511Y00192963*
G37*
G36*
X00214111D02*
X00216074Y00190404D01*
X00216981Y00189708*
Y00150687*
X00215674Y00149684*
X00213711Y00147126*
X00213368Y00147023*
X00212550*
X00212207Y00147126*
X00210244Y00149684*
X00209737Y00150073*
Y00189708*
X00210644Y00190404*
X00212607Y00192963*
X00212950Y00193065*
X00213768*
X00214111Y00192963*
G37*
G36*
X00340711Y00132273D02*
X00342674Y00129714D01*
X00343581Y00129018*
Y00099247*
X00328816*
X00328385Y00100517*
X00330024Y00101774*
X00332268Y00104699*
X00333679Y00108104*
X00334160Y00111760*
X00333679Y00115414*
X00332268Y00118819*
X00330024Y00121744*
X00327099Y00123988*
X00325931Y00124472*
X00326263Y00125709*
X00327259Y00125578*
X00330914Y00126059*
X00334319Y00127470*
X00337244Y00129714*
X00339207Y00132273*
X00339550Y00132375*
X00340368*
X00340711Y00132273*
G37*
G36*
X00284634Y00098839D02*
X00285167Y00098769D01*
X00285523Y00097442*
X00284410Y00096588*
X00279089Y00091267*
X00276864*
X00275567Y00092847*
X00273283Y00094721*
X00270677Y00096114*
X00267849Y00096972*
X00264909Y00097262*
X00261969Y00096972*
X00259141Y00096114*
X00256535Y00094721*
X00254251Y00092847*
X00252954Y00091267*
X00211864*
X00210567Y00092847*
X00208283Y00094721*
X00205677Y00096114*
X00202849Y00096972*
X00199909Y00097262*
X00196969Y00096972*
X00194141Y00096114*
X00191535Y00094721*
X00189312Y00092897*
X00177050*
X00176354Y00093804*
X00173796Y00095767*
X00173693Y00096110*
Y00096928*
X00173796Y00097271*
X00175881Y00098871*
X00281940*
X00283926Y00099133*
X00284634Y00098839*
G37*
G36*
X00366111Y00132273D02*
X00368074Y00129714D01*
X00368981Y00129018*
Y00078578*
X00368295Y00078211*
X00366011Y00076337*
X00364714Y00074757*
X00323624*
X00322327Y00076337*
X00320043Y00078211*
X00317437Y00079604*
X00316721Y00079821*
X00316910Y00081091*
X00347973*
X00350322Y00081401*
X00352512Y00082308*
X00354392Y00083750*
X00359078Y00088436*
X00360521Y00090316*
X00361427Y00092506*
X00361737Y00094855*
Y00129018*
X00362644Y00129714*
X00364607Y00132273*
X00364950Y00132375*
X00365768*
X00366111Y00132273*
G37*
G36*
X00122960Y00604610D02*
X00122474Y00603437D01*
X00094500*
X00093804Y00604344*
X00091246Y00606307*
X00091143Y00606650*
Y00607468*
X00091246Y00607811*
X00093075Y00609215*
X00118356*
X00122960Y00604610*
G37*
G36*
X00341461Y00624008D02*
X00340689Y00622144D01*
X00340208Y00618490*
X00340689Y00614834*
X00342100Y00611429*
X00344344Y00608504*
X00347269Y00606260*
X00350674Y00604849*
X00354330Y00604368*
X00357984Y00604849*
X00361389Y00606260*
X00364314Y00608504*
X00366277Y00611062*
X00366620Y00611165*
X00367438*
X00367781Y00611062*
X00369744Y00608504*
X00372669Y00606260*
X00376074Y00604849*
X00379730Y00604368*
X00383384Y00604849*
X00386789Y00606260*
X00389714Y00608504*
X00391677Y00611062*
X00392020Y00611165*
X00392838*
X00393181Y00611062*
X00394381Y00609498*
Y00549754*
X00393208Y00549268*
X00364558Y00577918*
X00362678Y00579360*
X00360488Y00580267*
X00358140Y00580577*
X00297894*
X00297408Y00581750*
X00340385Y00624727*
X00341461Y00624008*
G37*
G36*
X00418581Y00611062D02*
X00420544Y00608504D01*
X00421451Y00607808*
Y00572770*
X00421761Y00570420*
X00422667Y00568230*
X00424110Y00566350*
X00461180Y00529280*
X00460461Y00528204*
X00457914Y00529259*
X00454259Y00529740*
X00450604Y00529259*
X00447199Y00527848*
X00444274Y00525604*
X00442311Y00523045*
X00441968Y00522943*
X00441150*
X00440807Y00523045*
X00438844Y00525604*
X00435919Y00527848*
X00432514Y00529259*
X00428859Y00529740*
X00425204Y00529259*
X00421799Y00527848*
X00418874Y00525604*
X00416911Y00523045*
X00416568Y00522943*
X00415750*
X00415407Y00523045*
X00413444Y00525604*
X00412537Y00526300*
Y00527748*
Y00606526*
X00415114Y00608504*
X00417077Y00611062*
X00417420Y00611165*
X00418238*
X00418581Y00611062*
G37*
G36*
X00392485Y00524315D02*
X00391511Y00523045D01*
X00391168Y00522943*
X00390350*
X00390007Y00523045*
X00388044Y00525604*
X00385119Y00527848*
X00381714Y00529259*
X00378059Y00529740*
X00374404Y00529259*
X00370999Y00527848*
X00368074Y00525604*
X00366111Y00523045*
X00365768Y00522943*
X00364950*
X00364607Y00523045*
X00362644Y00525604*
X00361737Y00526300*
Y00529989*
X00361427Y00532339*
X00360521Y00534528*
X00359078Y00536408*
X00334238Y00561248*
X00334724Y00562421*
X00354379*
X00392485Y00524315*
G37*
G36*
X00491606Y00506105D02*
X00491976Y00505213D01*
X00493138Y00503698*
X00494653Y00502536*
X00495981Y00501986*
Y00465340*
X00495074Y00464644*
X00493329Y00462369*
X00491789*
X00490044Y00464644*
X00488737Y00465647*
Y00504938*
X00489644Y00505634*
X00490153Y00506297*
X00491606Y00506105*
G37*
G36*
X00467711Y00508193D02*
X00469674Y00505634D01*
X00470581Y00504938*
Y00465033*
X00470074Y00464644*
X00468111Y00462085*
X00467768Y00461983*
X00466950*
X00466607Y00462085*
X00464644Y00464644*
X00463737Y00465340*
Y00505245*
X00464244Y00505634*
X00466207Y00508193*
X00466550Y00508295*
X00467368*
X00467711Y00508193*
G37*
G36*
X00442311D02*
X00444274Y00505634D01*
X00445581Y00504631*
Y00465340*
X00444674Y00464644*
X00442711Y00462085*
X00442368Y00461983*
X00441550*
X00441207Y00462085*
X00439244Y00464644*
X00437937Y00465647*
Y00504938*
X00438844Y00505634*
X00440807Y00508193*
X00441150Y00508295*
X00441968*
X00442311Y00508193*
G37*
G36*
X00416911D02*
X00418874Y00505634D01*
X00419781Y00504938*
Y00465033*
X00419274Y00464644*
X00417311Y00462085*
X00416968Y00461983*
X00416150*
X00415807Y00462085*
X00413844Y00464644*
X00412537Y00465647*
Y00504938*
X00413444Y00505634*
X00415407Y00508193*
X00415750Y00508295*
X00416568*
X00416911Y00508193*
G37*
G36*
X00391511D02*
X00393474Y00505634D01*
X00394381Y00504938*
Y00465033*
X00393874Y00464644*
X00391911Y00462085*
X00391568Y00461983*
X00390750*
X00390407Y00462085*
X00388444Y00464644*
X00387137Y00465647*
Y00504938*
X00388044Y00505634*
X00390007Y00508193*
X00390350Y00508295*
X00391168*
X00391511Y00508193*
G37*
G36*
X00366111D02*
X00368074Y00505634D01*
X00368981Y00504938*
Y00465033*
X00368474Y00464644*
X00366511Y00462085*
X00366168Y00461983*
X00365350*
X00365007Y00462085*
X00363044Y00464644*
X00361737Y00465647*
Y00504938*
X00362644Y00505634*
X00364607Y00508193*
X00364950Y00508295*
X00365768*
X00366111Y00508193*
G37*
G36*
X00340711D02*
X00342674Y00505634D01*
X00343581Y00504938*
Y00465033*
X00343074Y00464644*
X00341111Y00462085*
X00340768Y00461983*
X00339950*
X00339607Y00462085*
X00337644Y00464644*
X00336337Y00465647*
Y00504938*
X00337244Y00505634*
X00339207Y00508193*
X00339550Y00508295*
X00340368*
X00340711Y00508193*
G37*
G36*
X00315311D02*
X00317274Y00505634D01*
X00318181Y00504938*
Y00465033*
X00317674Y00464644*
X00315711Y00462085*
X00315368Y00461983*
X00314550*
X00314207Y00462085*
X00312244Y00464644*
X00310937Y00465647*
Y00504938*
X00311844Y00505634*
X00313807Y00508193*
X00314150Y00508295*
X00314968*
X00315311Y00508193*
G37*
G36*
X00289911D02*
X00291874Y00505634D01*
X00292781Y00504938*
Y00465033*
X00292274Y00464644*
X00290311Y00462085*
X00289968Y00461983*
X00289150*
X00288807Y00462085*
X00286844Y00464644*
X00285537Y00465647*
Y00504938*
X00286444Y00505634*
X00288407Y00508193*
X00288750Y00508295*
X00289568*
X00289911Y00508193*
G37*
G36*
X00264511D02*
X00266474Y00505634D01*
X00267381Y00504938*
Y00465033*
X00266874Y00464644*
X00264911Y00462085*
X00264568Y00461983*
X00263750*
X00263407Y00462085*
X00261444Y00464644*
X00260137Y00465647*
Y00504938*
X00261044Y00505634*
X00263007Y00508193*
X00263350Y00508295*
X00264168*
X00264511Y00508193*
G37*
G36*
X00239111D02*
X00241074Y00505634D01*
X00241981Y00504938*
Y00465033*
X00241474Y00464644*
X00239511Y00462085*
X00239168Y00461983*
X00238350*
X00238007Y00462085*
X00236044Y00464644*
X00234737Y00465647*
Y00504938*
X00235644Y00505634*
X00237607Y00508193*
X00237950Y00508295*
X00238768*
X00239111Y00508193*
G37*
G36*
X00213711D02*
X00215674Y00505634D01*
X00216581Y00504938*
Y00465033*
X00216074Y00464644*
X00214111Y00462085*
X00213768Y00461983*
X00212950*
X00212607Y00462085*
X00210644Y00464644*
X00209737Y00465340*
Y00505245*
X00210244Y00505634*
X00212207Y00508193*
X00212550Y00508295*
X00213368*
X00213711Y00508193*
G37*
%LNcoenv_pcb-4*%
%LPC*%
G36*
X00175260Y00212028D02*
X00172247Y00211632D01*
X00169439Y00210469*
X00168045Y00209399*
X00175260Y00202185*
X00182473Y00209399*
X00181079Y00210469*
X00178271Y00211632*
X00175260Y00212028*
G37*
G36*
X00156609Y00214451D02*
X00143109D01*
X00141216Y00214202*
X00139453Y00213472*
X00137938Y00212310*
X00136776Y00210795*
X00136046Y00209032*
X00135797Y00207139*
Y00193639*
X00136046Y00191746*
X00136776Y00189983*
X00137938Y00188468*
X00139453Y00187306*
X00140781Y00186756*
Y00150380*
X00139874Y00149684*
X00137630Y00146759*
X00136219Y00143354*
X00135738Y00139700*
X00136219Y00136044*
X00137630Y00132639*
X00139874Y00129714*
X00142799Y00127470*
X00146204Y00126059*
X00149860Y00125578*
X00153514Y00126059*
X00156919Y00127470*
X00159844Y00129714*
X00162088Y00132639*
X00163003Y00134848*
X00164378*
X00164779Y00133879*
X00165849Y00132485*
X00173063Y00139700*
X00165849Y00146913*
X00164779Y00145519*
X00164378Y00144550*
X00163003*
X00162088Y00146759*
X00159844Y00149684*
X00158937Y00150380*
Y00186756*
X00160265Y00187306*
X00161780Y00188468*
X00162942Y00189983*
X00163672Y00191746*
X00163922Y00193639*
Y00194286*
X00165138Y00194560*
X00165192Y00194553*
X00166249Y00193175*
X00173463Y00200389*
X00166249Y00207603*
X00165192Y00206225*
X00165138Y00206218*
X00163922Y00206492*
Y00207139*
X00163672Y00209032*
X00162942Y00210795*
X00161780Y00212310*
X00160265Y00213472*
X00158502Y00214202*
X00156609Y00214451*
G37*
G36*
X00175260Y00198593D02*
X00168045Y00191379D01*
X00169439Y00190309*
X00172247Y00189146*
X00175260Y00188749*
X00178271Y00189146*
X00181079Y00190309*
X00182473Y00191379*
X00175260Y00198593*
G37*
G36*
X00085090Y00169118D02*
X00082077Y00168722D01*
X00079269Y00167559*
X00077875Y00166489*
X00085090Y00159275*
X00092303Y00166489*
X00090909Y00167559*
X00088102Y00168722*
X00085090Y00169118*
G37*
G36*
Y00155683D02*
X00077875Y00148469D01*
X00079269Y00147399*
X00082077Y00146236*
X00085090Y00145839*
X00088102Y00146236*
X00090909Y00147399*
X00092303Y00148469*
X00085090Y00155683*
G37*
G36*
X00174859Y00151339D02*
X00171846Y00150942D01*
X00169039Y00149779*
X00167645Y00148709*
X00174859Y00141495*
X00182073Y00148709*
X00180679Y00149779*
X00177872Y00150942*
X00174859Y00151339*
G37*
G36*
Y00137903D02*
X00167645Y00130689D01*
X00169039Y00129619*
X00171846Y00128456*
X00174859Y00128059*
X00177872Y00128456*
X00180679Y00129619*
X00182073Y00130689*
X00174859Y00137903*
G37*
%LNcoenv_pcb-5*%
%LPD*%
G54D10*
X00199909Y00082189D02*
X00282849D01*
X00166370Y00083820D02*
X00198279D01*
X00199909Y00082189*
X00290830Y00090170D02*
X00347973D01*
X00282849Y00082189D02*
X00290830Y00090170D01*
X00167640Y00107950D02*
X00281940D01*
X00287020Y00113030D02*
X00318770D01*
X00281940Y00107950D02*
X00287020Y00113030D01*
X00199909Y00082189D02*
X00219290Y00062808D01*
X00347973Y00090170D02*
X00352659Y00094855D01*
Y00139700*
X00179734Y00542290D02*
X00311150D01*
X00127664Y00594360D02*
X00179734Y00542290D01*
X00311150D02*
X00325690Y00527748D01*
X00184150Y00556260D02*
X00326390D01*
X00122116Y00618292D02*
X00184150Y00556260D01*
X00147955Y00617855D02*
X00194310Y00571500D01*
X00358140*
X00083820Y00594360D02*
X00127664D01*
X00085286Y00618292D02*
X00122116D01*
X00046990Y00627380D02*
X00072390Y00652780D01*
X00046990Y00566420D02*
Y00627380D01*
X00072390Y00652780D02*
X00140970D01*
X00059989Y00577549D02*
Y00621994D01*
X00077774Y00639779D02*
X00127299D01*
X00059989Y00621994D02*
X00077774Y00639779D01*
X00031750Y00492760D02*
X00083820D01*
X00015240Y00509270D02*
Y00643890D01*
Y00509270D02*
X00031750Y00492760D01*
X00013970Y00142240D02*
Y00422910D01*
X00083820Y00492760*
X00015240Y00643890D02*
X00053340Y00681990D01*
X00278130*
X00288290Y00062779D02*
X00289141Y00063631D01*
X00309621*
X00311669Y00065679*
X00454660Y00062230D02*
X00455873Y00063443D01*
X00467143*
X00485889Y00082189*
X00420889D02*
X00485889D01*
X00421640Y00082939D02*
Y00111760D01*
X00420889Y00082189D02*
X00421640Y00082939D01*
X00318770Y00113030D02*
X00320040Y00111760D01*
X00330359Y00046990D02*
X00344170D01*
X00311669Y00065679D02*
X00330359Y00046990D01*
X00403459Y00099619D02*
X00420889Y00082189D01*
X00403459Y00099619D02*
Y00139700D01*
X00378059Y00067069D02*
Y00139700D01*
X00376669Y00065679D02*
X00378059Y00067069D01*
X00311669Y00065679D02*
X00376669D01*
X00166370Y00109220D02*
X00167640Y00107950D01*
X00231830Y00062808D02*
X00232410Y00062230D01*
X00219290Y00062808D02*
X00231830D01*
X00130810Y00109220D02*
X00166370D01*
X00110490Y00129540D02*
Y00157480D01*
Y00129540D02*
X00130810Y00109220D01*
X00140970Y00652780D02*
X00157259Y00636489D01*
X00127299Y00639779D02*
X00148590Y00618490D01*
X00278130Y00680720D02*
Y00681990D01*
X00251460Y00618490D02*
Y00654050D01*
X00278130Y00680720*
Y00681990D02*
X00448310D01*
X00481330Y00648970*
X00046990Y00566420D02*
X00067936Y00545472D01*
X00059989Y00577549D02*
X00068580Y00568960D01*
X00067936Y00545472D02*
X00079200D01*
X00403459Y00527748D02*
Y00616875D01*
Y00515620D02*
Y00527748D01*
X00175260Y00618433D02*
X00208223Y00585470D01*
X00288290D02*
X00339309Y00636489D01*
X00208223Y00585470D02*
X00288290D01*
X00339309Y00636489D02*
X00412585D01*
X00430530Y00618545*
X00454660Y00394970D02*
X00520700D01*
X00548640Y00422910D02*
Y00532872D01*
X00520700Y00394970D02*
X00548640Y00422910D01*
X00429260Y00369570D02*
X00454660Y00394970D01*
X00429260Y00200389D02*
Y00369570D01*
X00035560Y00120650D02*
X00101600D01*
X00110490Y00129540*
X00013970Y00142240D02*
X00035560Y00120650D01*
X00403459Y00139700D02*
X00405372Y00137786D01*
X00403459Y00139700D02*
Y00199989D01*
X00302260Y00140099D02*
Y00214630D01*
X00114300Y00238760D02*
X00278130D01*
X00302260Y00214630*
X00327660Y00140099D02*
Y00219710D01*
X00097790Y00254000D02*
X00293370D01*
X00327660Y00219710*
X00481330Y00618490D02*
Y00648970D01*
Y00603250D02*
Y00618490D01*
X00455930D02*
Y00620672D01*
Y00586740D02*
Y00618490D01*
Y00586740D02*
X00485140Y00557530D01*
X00548640*
X00481330Y00603250D02*
X00501650Y00582930D01*
X00548640*
X00430530Y00572770D02*
X00477746Y00525552D01*
Y00520238D02*
Y00525552D01*
Y00520238D02*
X00479659Y00518325D01*
X00430530Y00572770D02*
Y00618545D01*
X00479659Y00455059D02*
Y00518325D01*
X00403459Y00455059D02*
Y00515620D01*
X00358140Y00571500D02*
X00401890Y00527748D01*
X00157259Y00636489D02*
X00157315D01*
X00175260Y00618433D02*
Y00618545D01*
X00157315Y00636489D02*
X00175260Y00618545D01*
X00148590Y00618490D02*
X00149860D01*
X00083820Y00619760D02*
X00085286Y00618292D01*
X00352659Y00515620D02*
Y00529989D01*
Y00455059D02*
Y00515620D01*
X00068580Y00568960D02*
X00083820D01*
X00327259Y00455059D02*
Y00515620D01*
X00079200Y00545472D02*
X00083412Y00541260D01*
X00127000Y00492760D02*
X00149860Y00515620D01*
X00083820Y00492760D02*
X00127000D01*
X00325690Y00517188D02*
X00327259Y00515620D01*
X00325690Y00517188D02*
Y00527748D01*
X00326390Y00556260D02*
X00352659Y00529989D01*
X00085090Y00157480D02*
Y00182880D01*
X00125730Y00223520D02*
X00163830D01*
X00085090Y00182880D02*
X00125730Y00223520D01*
X00174260Y00201388D02*
X00175260Y00200389D01*
X00174260Y00201388D02*
Y00213088D01*
X00163830Y00223520D02*
X00174260Y00213088D01*
X00059690Y00157480D02*
Y00184150D01*
X00114300Y00238760*
X00034290Y00157480D02*
Y00190500D01*
X00097790Y00254000*
X00352659Y00139700D02*
X00353060Y00140099D01*
X00376669Y00138309D02*
X00378059Y00139700D01*
X00149860D02*
Y00200389D01*
X00175260Y00140099D02*
Y00200389D01*
X00174859Y00139700D02*
X00175260Y00140099D01*
X00200660D02*
Y00200389D01*
X00200259Y00139700D02*
X00200660Y00140099D01*
X00226060D02*
Y00200389D01*
X00225659Y00139700D02*
X00226060Y00140099D01*
X00251460D02*
Y00200389D01*
X00251059Y00139700D02*
X00251460Y00140099D01*
X00276860D02*
Y00200389D01*
X00276459Y00139700D02*
X00276860Y00140099D01*
X00301859Y00139700D02*
X00302260Y00140099D01*
X00327259Y00139700D02*
X00327660Y00140099D01*
X00353060D02*
Y00200389D01*
X00378059Y00199989D02*
X00378460Y00200389D01*
X00378059Y00139700D02*
Y00199989D01*
X00403459D02*
X00403860Y00200389D01*
X00429260Y00140099D02*
Y00200389D01*
X00428859Y00139700D02*
X00429260Y00140099D01*
X00454259Y00199989D02*
X00454660Y00200389D01*
X00454259Y00139700D02*
Y00199989D01*
X00480060Y00140099D02*
Y00200389D01*
X00479659Y00139700D02*
X00480060Y00140099D01*
X00505059Y00139700D02*
Y00200389D01*
X00149860Y00454660D02*
Y00515620D01*
X00174859D02*
X00175260Y00515219D01*
Y00454660D02*
Y00515219D01*
X00200259Y00515620D02*
X00200660Y00515219D01*
Y00454660D02*
Y00515219D01*
X00225659Y00455059D02*
Y00515620D01*
Y00455059D02*
X00226060Y00454660D01*
X00251059Y00455059D02*
Y00515620D01*
Y00455059D02*
X00251460Y00454660D01*
X00276459Y00455059D02*
Y00515620D01*
Y00455059D02*
X00276860Y00454660D01*
X00301859Y00455059D02*
Y00515620D01*
Y00455059D02*
X00302260Y00454660D01*
X00327259Y00455059D02*
X00327660Y00454660D01*
X00352659Y00455059D02*
X00353060Y00454660D01*
X00378059Y00455059D02*
Y00515620D01*
Y00455059D02*
X00378460Y00454660D01*
X00403459Y00455059D02*
X00403860Y00454660D01*
X00428859Y00455059D02*
Y00515620D01*
Y00455059D02*
X00429260Y00454660D01*
X00454660D02*
Y00515219D01*
X00454259Y00515620D02*
X00454660Y00515219D01*
X00479659Y00455059D02*
X00480060Y00454660D01*
X00505059D02*
Y00515620D01*
G54D11*
X00288290Y00062779D03*
Y00112479D03*
X00421640Y00111760D03*
X00320040D03*
X00454660Y00036830D03*
Y00062230D03*
X00344170Y00021590D03*
Y00046990D03*
X00232410Y00036830D03*
Y00062230D03*
X00166370Y00109220D03*
Y00083820D03*
X00548640Y00532130D03*
Y00557530D03*
Y00582930D03*
Y00608330D03*
X00034290Y00157480D03*
X00059690D03*
X00085090D03*
X00149860Y00515620D03*
X00378059D03*
X00403459D03*
X00428859D03*
X00454259D03*
X00479659D03*
X00251059D03*
X00225659D03*
X00200259D03*
X00174859D03*
X00276459D03*
X00301859D03*
X00327259D03*
X00352659D03*
X00149860Y00139700D03*
X00378059D03*
X00403459D03*
X00428859D03*
X00454259D03*
X00479659D03*
X00251059D03*
X00225659D03*
X00200259D03*
X00174859D03*
X00276459D03*
X00301859D03*
X00327259D03*
X00352659D03*
X00505059Y00454660D03*
X00276860D03*
X00251460D03*
X00226060D03*
X00200660D03*
X00175260D03*
X00403860D03*
X00429260D03*
X00454660D03*
X00480060D03*
X00378460D03*
X00353060D03*
X00327660D03*
X00302260D03*
X00505059Y00200389D03*
X00276860D03*
X00251460D03*
X00226060D03*
X00200660D03*
X00175260D03*
X00403860D03*
X00429260D03*
X00454660D03*
X00480060D03*
X00378460D03*
X00353060D03*
X00327660D03*
X00302260D03*
X00083820Y00619760D03*
Y00594360D03*
Y00568960D03*
Y00543560D03*
Y00518160D03*
X00379730Y00618490D03*
X00354330D03*
X00481330D03*
X00455930D03*
X00430530D03*
X00405130D03*
X00149860D03*
X00175260D03*
X00200660D03*
X00226060D03*
G54D12*
X00110490Y00157480D03*
X00505059Y00515620D03*
Y00139700D03*
X00149860Y00454660D03*
Y00200389D03*
X00506730Y00618490D03*
X00251460D03*
G54D13*
X00199909Y00082189D03*
Y00037189D03*
X00264909D03*
Y00082189D03*
X00311669Y00065679D03*
Y00020679D03*
X00376669D03*
Y00065679D03*
X00420889Y00082189D03*
Y00037189D03*
X00485889D03*
Y00082189D03*
G54D14*
X00083820Y00492760D03*
M02*